<svg width="32" height="32" viewBox="0 0 32 32" fill="none" xmlns="http://www.w3.org/2000/svg">
<path d="M15.4423 0C15.8247 0 16.2111 0 16.5935 0C16.6208 0.00390314 16.6481 0.0156126 16.6754 0.0156126C16.773 0.0195157 16.8667 0.0156126 16.9642 0.0234189C17.6433 0.0663534 18.3145 0.148319 18.9818 0.27322C20.4375 0.54644 21.8268 1.00311 23.1458 1.67445C26.5059 3.38012 28.9918 5.94449 30.5723 9.36754C31.4699 11.3074 31.946 13.3487 31.9928 15.4877C32.0123 16.319 31.9967 17.1504 31.8875 17.9779C31.8016 18.6492 31.6845 19.3128 31.5128 19.9646C30.705 23.0598 29.1284 25.6983 26.7556 27.845C23.9341 30.3938 20.6131 31.7638 16.8159 31.9785C16.0354 32.0214 15.2588 31.998 14.4861 31.9277C13.7095 31.8575 12.9446 31.7286 12.1876 31.5374C9.21384 30.7958 6.65769 29.3243 4.52302 27.1268C2.72005 25.2729 1.44393 23.0988 0.694648 20.6203C0.320006 19.3908 0.101465 18.134 0.0390252 16.8499C0.0351226 16.7562 0.0156101 16.6625 0 16.5688C0 16.1863 0 15.7999 0 15.4174C0.0117075 15.3276 0.0312201 15.2379 0.0390252 15.1442C0.0702453 14.8007 0.0897579 14.4572 0.124881 14.1138C0.195126 13.4541 0.312201 12.7984 0.476107 12.1544C1.28003 8.95381 2.91128 6.24893 5.36986 4.04756C7.34063 2.29114 9.6197 1.09678 12.1915 0.460571C12.851 0.296639 13.5183 0.171738 14.1934 0.105385C14.5837 0.0663534 14.9779 0.0468377 15.372 0.0156126C15.3954 0.0156126 15.4188 0.00390314 15.4423 0ZM16.4257 29.3712C17.5964 27.4859 18.7555 25.6202 19.9223 23.7467C20.656 24.422 21.3741 25.0855 22.1078 25.7568C22.8063 24.6444 23.497 23.5438 24.1917 22.4353C25.0698 23.1222 25.9361 23.8014 26.8025 24.4844C26.8025 24.4844 26.8103 24.4844 26.8103 24.4883C26.8103 24.4883 26.8181 24.4883 26.822 24.4883C26.822 24.4883 26.822 24.4844 26.8298 24.4766C26.822 24.4454 26.8103 24.4142 26.7986 24.379C26.6269 23.8989 26.463 23.4228 26.2873 22.9427C25.9595 22.045 25.6512 21.1394 25.5615 20.1793C25.5225 19.746 25.4678 19.3167 25.4249 18.8873C25.3898 18.5126 25.3585 18.1379 25.3312 17.7593C25.2961 17.2753 25.261 16.7874 25.2337 16.3034C25.2063 15.8546 25.1829 15.4018 25.1634 14.9529C25.1283 14.2933 25.0932 13.6337 25.0659 12.9701C25.0424 12.4627 25.0034 11.9553 24.9176 11.4557C24.7537 10.4995 24.4415 9.59393 23.9614 8.74694C23.9458 8.71572 23.9263 8.6884 23.899 8.64546C23.86 8.6923 23.8249 8.73133 23.7936 8.77427C23.5127 9.11774 23.2395 9.46903 22.9195 9.77737C22.8687 9.82811 22.8258 9.88666 22.7868 9.94521C22.6814 10.1013 22.6268 10.277 22.6307 10.4682C22.6307 10.6361 22.6697 10.7922 22.7243 10.9483C22.8219 11.2293 22.8961 11.5182 22.9195 11.8187C22.9897 12.6618 22.7243 13.3722 22.0765 13.9303C21.7253 14.2309 21.3155 14.426 20.8746 14.5509C20.5897 14.629 20.3048 14.6953 20.016 14.7656C19.938 14.7851 19.8599 14.8046 19.778 14.828C19.7662 15.0271 19.7701 15.2184 19.8053 15.4096C19.8872 15.8272 20.1136 16.1434 20.4531 16.3893C20.6638 16.5415 20.898 16.6547 21.1282 16.7757C21.3819 16.9045 21.6355 17.0333 21.8814 17.1738C22.057 17.2753 22.2131 17.408 22.3419 17.5641C22.3692 17.5993 22.3965 17.6344 22.4239 17.6734C22.1975 17.8178 21.9868 17.9584 21.7448 18.0559C20.6287 18.5048 19.735 19.2308 19.0794 20.2456C18.6891 20.8506 18.4082 21.5063 18.1935 22.1894C17.9906 22.8334 17.7994 23.4813 17.5769 24.1175C17.2101 25.187 16.8237 26.2525 16.4452 27.322C16.4374 27.3454 16.4257 27.3649 16.414 27.3962C16.4023 27.3727 16.3906 27.3571 16.3867 27.3415C16.2774 27.0488 16.1603 26.7599 16.0628 26.4633C15.5632 24.9684 15.0637 23.4735 14.5681 21.9747C14.4042 21.4829 14.2208 20.9989 13.971 20.5383C13.3934 19.4806 12.5622 18.7039 11.4422 18.2433C11.29 18.1808 11.1417 18.095 10.9973 18.013C10.8412 17.9232 10.689 17.8257 10.5329 17.7281C10.5017 17.7086 10.4744 17.689 10.4353 17.6656C10.4665 17.6266 10.49 17.5915 10.5173 17.5602C10.6773 17.3729 10.8763 17.2246 11.0909 17.1075C11.3212 16.9826 11.5593 16.8655 11.7934 16.7484C12.0237 16.6352 12.25 16.5181 12.4568 16.3659C12.8159 16.1005 13.0305 15.7492 13.0695 15.3003C13.0851 15.1208 13.0812 14.9412 13.0422 14.7617C13.0149 14.7539 12.9954 14.75 12.9759 14.7461C12.7846 14.7149 12.5973 14.6875 12.4061 14.6602C12.0744 14.6056 11.7544 14.5236 11.4461 14.3831C10.369 13.8874 9.80312 12.8257 9.99825 11.6626C10.0334 11.4557 10.0802 11.2528 10.1192 11.0459C10.1582 10.8312 10.1739 10.6165 10.1622 10.398C10.1387 10.0389 9.99434 9.73444 9.75239 9.47293C9.51043 9.21142 9.22164 9.00455 8.91725 8.8133C8.91335 8.8133 8.90554 8.8133 8.89383 8.8133C8.88213 8.83281 8.86652 8.85233 8.85481 8.87184C8.23041 9.9296 7.89089 11.0732 7.82845 12.2988C7.80113 12.8452 7.80893 13.3917 7.80503 13.942C7.79723 14.6797 7.80113 15.4213 7.78942 16.159C7.77771 16.9514 7.73088 17.7437 7.63722 18.5321C7.57088 19.102 7.47722 19.664 7.34454 20.2222C7.17282 20.9521 6.94648 21.6663 6.70452 22.3767C6.47427 23.0637 6.23622 23.7467 6.00207 24.4337C5.99036 24.4727 5.97865 24.5078 5.96695 24.5469C5.97475 24.5469 5.97865 24.5547 5.98646 24.5547C6.88014 23.8521 7.76991 23.1495 8.67139 22.4392C9.36214 23.5516 10.0451 24.6562 10.7358 25.7685C11.4734 25.0972 12.2032 24.4337 12.9407 23.7623C14.1037 25.6358 15.2588 27.4976 16.4257 29.3829V29.3712ZM8.40602 5.50733C8.40992 5.54246 8.40992 5.55417 8.41382 5.56588C8.56212 5.99523 8.74554 6.40506 8.9992 6.77976C9.52994 7.56039 10.1387 8.27857 10.8178 8.9382C11.5944 9.6915 12.4451 10.3589 13.3544 10.9483C13.6588 11.1435 13.9671 11.3386 14.2832 11.5104C14.7203 11.7524 15.1808 11.7758 15.6491 11.5923C15.8169 11.526 15.9925 11.4948 16.172 11.5026C16.414 11.5143 16.652 11.5377 16.894 11.5611C17.1555 11.5884 17.4169 11.6158 17.6784 11.647C17.7447 11.6548 17.8111 11.6704 17.8774 11.6821C18.0452 11.7055 18.2052 11.6938 18.3574 11.5962C18.7126 11.3738 19.0794 11.1669 19.4306 10.9444C20.3243 10.3824 21.1672 9.76176 21.9438 9.04358C22.9975 8.0678 23.8561 6.94369 24.5078 5.66346C24.5273 5.62053 24.5507 5.57759 24.5702 5.53466C24.4571 5.57759 24.3595 5.63614 24.258 5.68688C24.1175 5.76104 23.9849 5.84691 23.8639 5.9562C23.7234 6.07719 23.5712 6.17868 23.3995 6.25674C23.22 6.3348 23.0366 6.37383 22.8414 6.35822C22.619 6.34261 22.4161 6.26845 22.2326 6.15135C22.0336 6.02255 21.8385 5.88594 21.6512 5.73762C20.297 4.67206 18.7711 4.04756 17.0462 3.91485C16.3828 3.86411 15.7232 3.89534 15.0715 4.01243C13.9437 4.21149 12.9017 4.62913 11.9456 5.25753C11.688 5.42927 11.4383 5.60882 11.1807 5.78446C10.9544 5.93668 10.7202 6.0811 10.4704 6.19038C10.3065 6.26064 10.1387 6.31529 9.95922 6.3309C9.63141 6.36603 9.33482 6.27625 9.05774 6.10061C8.8392 5.9601 8.65578 5.78446 8.48797 5.5893C8.46456 5.56198 8.44114 5.53856 8.40602 5.49953V5.50733ZM12.9603 17.529C13.0032 17.5563 13.0305 17.5798 13.0578 17.5954C13.7759 18.0364 14.3691 18.6141 14.8374 19.3167C15.2003 19.8592 15.4813 20.4447 15.7193 21.0536C15.9535 21.6624 16.1759 22.2791 16.4023 22.888C16.414 22.9232 16.4296 22.9583 16.453 23.0129C16.4686 22.9622 16.4803 22.9349 16.492 22.9036C16.5818 22.6265 16.6715 22.3494 16.7652 22.0762C16.9916 21.4009 17.2374 20.7296 17.5613 20.0895C18.0843 19.0512 18.8062 18.1926 19.7936 17.5641C19.8131 17.5524 19.8287 17.5368 19.8599 17.5134C19.8092 17.4978 19.774 17.4861 19.7389 17.4744C19.5321 17.4158 19.3331 17.3417 19.1496 17.2324C18.775 17.0138 18.537 16.6937 18.4277 16.2722C18.3691 16.0458 18.3457 15.8155 18.3535 15.5853C18.3691 15.0974 18.2677 14.6329 18.1038 14.1762C17.9828 13.8366 17.8033 13.5244 17.5535 13.259C16.8979 12.5564 15.8598 12.6228 15.2705 13.2356C15.0091 13.5088 14.8374 13.8288 14.7164 14.184C14.572 14.6095 14.5174 15.0466 14.4822 15.4916C14.4627 15.7648 14.4393 16.038 14.373 16.3034C14.2676 16.7484 14.0295 17.0958 13.612 17.3026C13.4676 17.3729 13.3154 17.4197 13.1671 17.4744C13.1046 17.4978 13.0422 17.5095 12.9603 17.529ZM11.5124 11.3425C11.5007 11.3621 11.4929 11.3738 11.489 11.3855C11.4188 11.6119 11.3602 11.8421 11.3368 12.0802C11.3095 12.3534 11.3719 12.5954 11.5827 12.7867C11.7466 12.9389 11.93 13.0599 12.129 13.1575C12.3827 13.2824 12.6559 13.3527 12.9407 13.3487C13.2998 13.3487 13.6354 13.2434 13.9554 13.0872C14.01 13.0599 14.0647 13.0287 14.1388 12.9897C13.2568 12.4315 12.3905 11.8851 11.5202 11.3347L11.5124 11.3425ZM18.7204 13.0053C18.8765 13.0755 19.0092 13.1419 19.1457 13.1965C19.5009 13.337 19.8716 13.4112 20.2502 13.3331C20.7926 13.2238 21.2063 12.9506 21.3975 12.4042C21.417 12.3456 21.4404 12.2832 21.4599 12.2246C21.5263 12.0334 21.5887 11.8421 21.6551 11.6509C21.6629 11.6275 21.6668 11.604 21.6746 11.5767C21.5497 11.5065 21.4287 11.4401 21.3116 11.3699C20.4531 11.9124 19.5984 12.451 18.7204 13.0053Z" fill="white"/>
</svg>
