<svg width="31" height="31" viewBox="0 0 31 31" fill="none" xmlns="http://www.w3.org/2000/svg">
<g clip-path="url(#clip0_417_10589)">
<path d="M21.52 8.18945C20.82 8.18945 20.25 8.75945 20.25 9.45945C20.25 10.1595 20.82 10.7295 21.52 10.7295C22.22 10.7295 22.79 10.1595 22.79 9.45945C22.79 8.75945 22.22 8.18945 21.52 8.18945Z" fill="#FFFFFF"/>
<path d="M15.8812 20.5299C18.8801 20.5299 21.3112 18.0988 21.3112 15.0999C21.3112 12.101 18.8801 9.66992 15.8812 9.66992C12.8823 9.66992 10.4512 12.101 10.4512 15.0999C10.4512 18.0988 12.8823 20.5299 15.8812 20.5299Z" fill="#FFFFFF"/>
<path d="M15.8809 0.349609C7.73086 0.349609 1.13086 6.94961 1.13086 15.0996C1.13086 23.2496 7.73086 29.8496 15.8809 29.8496C24.0309 29.8496 30.6309 23.2496 30.6309 15.0996C30.6309 6.94961 24.0309 0.349609 15.8809 0.349609ZM24.4909 19.3696C24.4409 20.3996 24.2709 20.9596 24.1209 21.3296C23.9309 21.8196 23.7009 22.1796 23.3309 22.5396C22.9609 22.9096 22.6109 23.1396 22.1209 23.3296C21.7509 23.4796 21.1909 23.6496 20.1609 23.6996C19.0409 23.7496 18.7109 23.7596 15.8909 23.7596C13.0709 23.7596 12.7309 23.7496 11.6209 23.6996C10.5909 23.6496 10.0309 23.4796 9.66086 23.3296C9.17086 23.1396 8.81086 22.9096 8.45086 22.5396C8.09086 22.1696 7.85086 21.8196 7.66086 21.3296C7.51086 20.9596 7.34086 20.3996 7.29086 19.3696C7.24086 18.2496 7.23086 17.9196 7.23086 15.0996C7.23086 12.2796 7.24086 11.9396 7.29086 10.8296C7.34086 9.79961 7.51086 9.23961 7.66086 8.86961C7.85086 8.37961 8.08086 8.01961 8.45086 7.65961C8.82086 7.28961 9.17086 7.05961 9.66086 6.86961C10.0309 6.71961 10.5909 6.54961 11.6209 6.49961C12.7409 6.44961 13.0709 6.43961 15.8909 6.43961C18.7109 6.43961 19.0509 6.44961 20.1609 6.49961C21.1909 6.54961 21.7509 6.71961 22.1209 6.86961C22.6109 7.05961 22.9709 7.28961 23.3309 7.65961C23.7009 8.02961 23.9309 8.37961 24.1209 8.86961C24.2709 9.23961 24.4409 9.79961 24.4909 10.8296C24.5409 11.9496 24.5509 12.2796 24.5509 15.0996C24.5509 17.9196 24.5409 18.2596 24.4909 19.3696Z" fill="#FFFFFF"/>
</g>
<defs>
<clipPath id="clip0_417_10589">
<rect width="30" height="30" fill="white" transform="translate(0.880859 0.0996094)"/>
</clipPath>
</defs>
</svg>
