<svg width="31" height="31" viewBox="0 0 31 31" fill="none" xmlns="http://www.w3.org/2000/svg">
<g clip-path="url(#clip0_417_10600)">
<path d="M15.4805 0.349609C7.33047 0.349609 0.730469 6.94961 0.730469 15.0996C0.730469 23.2496 7.33047 29.8496 15.4805 29.8496C23.6305 29.8496 30.2305 23.2496 30.2305 15.0996C30.2305 6.94961 23.6305 0.349609 15.4805 0.349609ZM21.3405 24.2196C21.2205 24.9796 20.2205 25.2196 19.5305 24.6696C17.4205 22.9996 15.4105 21.4096 13.4805 19.8796C12.6205 19.1996 12.4805 18.0396 13.1705 17.3096C14.7805 15.5896 16.4005 13.8696 18.0305 12.1396C18.3105 11.8396 17.8505 11.4196 17.4905 11.6596C14.9505 13.3196 12.4605 14.9396 10.0105 16.5396C9.49047 16.8796 8.80047 16.9296 8.22047 16.6696C6.85047 16.0596 5.53047 15.4596 4.23047 14.8896C3.53047 14.5796 3.60047 13.5896 4.33047 13.3496L22.4005 7.43961C23.1805 7.18961 24.0305 7.71961 23.9105 8.40961L21.3305 24.2296L21.3405 24.2196Z" fill="#FFFFFF"/>
</g>
<defs>
<clipPath id="clip0_417_10600">
<rect width="30" height="30" fill="white" transform="translate(0.480469 0.0996094)"/>
</clipPath>
</defs>
</svg>
