<svg width="31" height="31" viewBox="0 0 31 31" fill="none" xmlns="http://www.w3.org/2000/svg">
<g clip-path="url(#clip0_417_10595)">
<path d="M16.4401 14.6696L21.5501 22.0996H19.4701L15.2801 16.0196L14.6901 15.1496L9.83008 8.09961H11.9101L15.8501 13.7996L16.4401 14.6696Z" fill="#FFFFFF"/>
<path d="M15.6797 0.349609C7.52969 0.349609 0.929688 6.94961 0.929688 15.0996C0.929688 23.2496 7.52969 29.8496 15.6797 29.8496C23.8297 29.8496 30.4297 23.2496 30.4297 15.0996C30.4297 6.94961 23.8297 0.349609 15.6797 0.349609ZM19.6197 24.9096L19.2397 24.3496L14.3297 17.2196L7.71969 24.9096H6.09969L13.5997 16.1696L7.49969 7.28961L6.11969 5.28961H11.7597L12.1397 5.84961L16.7397 12.5196L21.5597 6.90961L22.9597 5.28961H24.5797L17.4597 13.5796L23.8897 22.9096L25.2597 24.9096H19.6197Z" fill="#FFFFFF"/>
</g>
<defs>
<clipPath id="clip0_417_10595">
<rect width="30" height="30" fill="white" transform="translate(0.679688 0.0996094)"/>
</clipPath>
</defs>
</svg>
