<svg width="33" height="42" viewBox="0 0 33 42" fill="none" xmlns="http://www.w3.org/2000/svg">
<g clip-path="url(#clip0_13_794)">
<g clip-path="url(#clip1_13_794)">
<path d="M16.87 33.932C25.7673 33.932 32.98 26.6378 32.98 17.64C32.98 8.6422 25.7673 1.34802 16.87 1.34802C7.9727 1.34802 0.76001 8.6422 0.76001 17.64C0.76001 26.6378 7.9727 33.932 16.87 33.932Z" fill="white"/>
<path d="M26.585 14.4991C25.673 13.6491 24.42 12.3681 23.409 11.4461L23.352 11.4021C23.2515 11.3177 23.1353 11.2542 23.01 11.2151C20.545 10.7551 9.093 8.57908 8.865 8.60808C8.808 8.62208 8.737 8.63707 8.695 8.68007L8.637 8.72308C8.56338 8.79495 8.50934 8.88445 8.48 8.98308L8.466 9.02608V9.27107C9.762 12.9011 14.848 24.7991 15.859 27.5931C15.916 27.7811 16.029 28.1411 16.244 28.1551H16.286C16.4 28.1551 16.885 27.5071 16.885 27.5071C16.885 27.5071 25.631 16.7751 26.514 15.6371C26.628 15.4931 26.727 15.3491 26.813 15.1911C26.8417 15.0659 26.8357 14.9353 26.7955 14.8133C26.7553 14.6913 26.6825 14.5827 26.585 14.4991ZM19.135 15.7531L22.867 12.6271L25.061 14.6721L19.135 15.7531ZM17.682 15.5371L11.258 10.2071L21.656 12.1511L17.682 15.5371ZM18.266 16.9341L24.847 15.8681L17.327 25.0291L18.266 16.9341ZM10.39 10.7401L17.156 16.5451L16.173 25.0291L10.39 10.7391V10.7401Z" fill="#FF060A"/>
</g>
</g>
<defs>
<clipPath id="clip0_13_794">
<rect width="33" height="34" fill="white" transform="translate(0 0.640015)"/>
</clipPath>
<clipPath id="clip1_13_794">
<rect width="33" height="34" fill="white" transform="translate(0 0.640015)"/>
</clipPath>
</defs>
</svg>
