<svg width="33" height="40" viewBox="0 0 33 40" fill="none" xmlns="http://www.w3.org/2000/svg">
<g clip-path="url(#clip0_13_755)">
<g clip-path="url(#clip1_13_755)">
<g clip-path="url(#clip2_13_755)">
<path d="M16.1 32.64C24.9366 32.64 32.1 25.4766 32.1 16.64C32.1 7.80346 24.9366 0.640015 16.1 0.640015C7.26345 0.640015 0.100006 7.80346 0.100006 16.64C0.100006 25.4766 7.26345 32.64 16.1 32.64Z" fill="white"/>
<path d="M11.63 16.753C11.6192 16.9305 11.6436 17.1084 11.7018 17.2765C11.76 17.4446 11.8509 17.5995 11.9692 17.7323C12.0875 17.8651 12.231 17.9732 12.3912 18.0504C12.5515 18.1276 12.7254 18.1723 12.903 18.182H12.988C13.738 18.182 14.346 17.574 14.332 16.824C14.332 16.074 13.723 15.466 12.974 15.48C12.266 15.466 11.672 16.032 11.63 16.753ZM6.59301 16.4C6.47705 16.3934 6.36314 16.4327 6.27594 16.5094C6.18873 16.5861 6.13523 16.6941 6.12701 16.81C6.11201 17.05 6.29701 17.262 6.53701 17.277C6.65264 17.2818 6.76568 17.2419 6.85265 17.1655C6.93962 17.0892 6.99382 16.9822 7.00401 16.867C7.01088 16.7508 6.97169 16.6367 6.89494 16.5493C6.81818 16.4618 6.70906 16.4082 6.59301 16.4ZM11.545 8.90197C11.6474 8.84676 11.7249 8.75458 11.7617 8.6442C11.7985 8.53383 11.7918 8.41358 11.743 8.30797C11.643 8.08097 11.375 8.00997 11.149 8.10897C10.922 8.20897 10.852 8.47697 10.951 8.68897C11.064 8.91597 11.333 9.01497 11.545 8.90197ZM12.917 11.293C13.0754 11.2111 13.1953 11.0702 13.2509 10.9007C13.3064 10.7313 13.2932 10.5468 13.214 10.387C13.1321 10.2288 12.9914 10.1091 12.8222 10.0535C12.653 9.99801 12.4687 10.0111 12.309 10.09C12.1508 10.1719 12.0311 10.3126 11.9756 10.4818C11.9201 10.651 11.9331 10.8353 12.012 10.995C12.0937 11.1533 12.2343 11.2732 12.4036 11.329C12.5728 11.3847 12.7572 11.3718 12.917 11.293ZM8.30501 12.934C8.56001 13.104 8.89901 13.033 9.08301 12.778C9.16353 12.6536 9.19239 12.5028 9.16344 12.3575C9.1345 12.2122 9.05004 12.084 8.92801 12C8.80367 11.9194 8.65283 11.8906 8.50755 11.9195C8.36227 11.9485 8.234 12.0329 8.15001 12.155C8.10734 12.2157 8.07743 12.2845 8.06211 12.3572C8.04678 12.4298 8.04635 12.5048 8.06084 12.5776C8.07532 12.6505 8.10444 12.7196 8.1464 12.7808C8.18837 12.8421 8.24233 12.8942 8.30501 12.934ZM9.12601 16.159C9.03753 16.1536 8.94887 16.1658 8.86518 16.1951C8.78149 16.2243 8.70445 16.2699 8.63856 16.3291C8.57266 16.3884 8.51922 16.4602 8.48136 16.5404C8.44349 16.6205 8.42196 16.7074 8.41801 16.796C8.41008 16.9739 8.47244 17.1477 8.59163 17.28C8.71082 17.4123 8.87727 17.4924 9.05501 17.503C9.14341 17.5082 9.23197 17.4959 9.31554 17.4666C9.39911 17.4373 9.47603 17.3917 9.54182 17.3324C9.60761 17.2731 9.66095 17.2014 9.69875 17.1213C9.73656 17.0412 9.75806 16.9544 9.76201 16.866C9.76765 16.6888 9.70463 16.5164 9.58611 16.3846C9.46759 16.2529 9.30274 16.172 9.12601 16.159ZM8.37601 20.7C8.25451 20.7729 8.16532 20.8894 8.12654 21.0257C8.08775 21.162 8.10229 21.3079 8.16719 21.4339C8.23209 21.5599 8.34249 21.6565 8.47599 21.704C8.60949 21.7516 8.75608 21.7465 8.88601 21.69C9.00751 21.617 9.0967 21.5006 9.13549 21.3643C9.17427 21.228 9.15973 21.082 9.09483 20.956C9.02994 20.83 8.91953 20.7335 8.78603 20.6859C8.65253 20.6384 8.50594 20.6434 8.37601 20.7ZM11.007 14.758C11.1385 14.845 11.2929 14.891 11.4506 14.8902C11.6083 14.8894 11.7623 14.8419 11.8929 14.7536C12.0236 14.6653 12.1251 14.5402 12.1847 14.3942C12.2442 14.2482 12.2591 14.0877 12.2275 13.9332C12.1958 13.7788 12.119 13.6371 12.0069 13.5263C11.8947 13.4154 11.7521 13.3404 11.5973 13.3106C11.4424 13.2808 11.2822 13.2976 11.1369 13.3589C10.9916 13.4202 10.8677 13.5232 10.781 13.655C10.7219 13.7418 10.6809 13.8395 10.6603 13.9424C10.6396 14.0454 10.6399 14.1514 10.6609 14.2542C10.682 14.3571 10.7235 14.4546 10.7829 14.5412C10.8424 14.6277 10.9186 14.7014 11.007 14.758ZM19.325 11.236C19.4755 11.3323 19.6578 11.3655 19.8326 11.3285C20.0074 11.2914 20.1606 11.1871 20.259 11.038C20.3553 10.8875 20.3885 10.7052 20.3515 10.5304C20.3144 10.3556 20.2101 10.2024 20.061 10.104C19.9105 10.0077 19.7282 9.97444 19.5534 10.0115C19.3786 10.0485 19.2255 10.1529 19.127 10.302C19.0307 10.4524 18.9975 10.6348 19.0345 10.8096C19.0716 10.9843 19.1759 11.1375 19.325 11.236ZM20.712 8.85997C20.91 8.98697 21.179 8.92997 21.32 8.73197C21.462 8.53397 21.39 8.26497 21.193 8.12397C20.995 7.98197 20.726 8.05297 20.585 8.25097C20.5245 8.34935 20.5039 8.46717 20.5275 8.58024C20.5512 8.69331 20.6172 8.79304 20.712 8.85897V8.85997ZM19.439 15.466C19.2614 15.455 19.0834 15.4793 18.9152 15.5375C18.747 15.5956 18.592 15.6865 18.459 15.8048C18.3261 15.9231 18.2179 16.0666 18.1407 16.2269C18.0635 16.3873 18.0187 16.5613 18.009 16.739C17.9982 16.9166 18.0226 17.0946 18.0809 17.2627C18.1392 17.4309 18.2302 17.5858 18.3486 17.7186C18.467 17.8515 18.6105 17.9595 18.7709 18.0367C18.9313 18.1138 19.1053 18.1584 19.283 18.168H19.353C20.103 18.168 20.698 17.56 20.698 16.81C20.7051 16.4658 20.5773 16.1324 20.3418 15.8813C20.1064 15.6301 19.782 15.481 19.438 15.466H19.439ZM13.37 14.674C13.596 15.126 14.063 15.424 14.586 15.424C15.336 15.424 15.93 14.815 15.93 14.065C15.9303 13.835 15.8717 13.6089 15.7597 13.4081C15.6477 13.2072 15.486 13.0385 15.2903 12.9179C15.0945 12.7974 14.871 12.729 14.6413 12.7194C14.4116 12.7098 14.1832 12.7592 13.978 12.863C13.8177 12.9402 13.6745 13.0488 13.5568 13.1822C13.4391 13.3156 13.3493 13.4712 13.2927 13.6399C13.236 13.8085 13.2137 13.9868 13.227 14.1642C13.2402 14.3417 13.2889 14.5146 13.37 14.673V14.674ZM23.966 12.934C24.0963 12.8653 24.1944 12.7483 24.2393 12.608C24.2842 12.4678 24.2723 12.3155 24.206 12.184C24.1374 12.0537 24.0203 11.9555 23.8801 11.9106C23.7398 11.8658 23.5875 11.8777 23.456 11.944C23.3345 12.0169 23.2453 12.1334 23.2065 12.2697C23.1678 12.406 23.1823 12.5519 23.2472 12.6779C23.3121 12.8039 23.4225 12.9005 23.556 12.948C23.6895 12.9956 23.8361 12.9905 23.966 12.934ZM20.542 13.372C20.4487 13.418 20.3655 13.482 20.2972 13.5604C20.2288 13.6388 20.1766 13.73 20.1437 13.8286C20.1108 13.9273 20.0978 14.0315 20.1054 14.1352C20.113 14.239 20.1411 14.3402 20.188 14.433C20.234 14.5262 20.2981 14.6095 20.3765 14.6778C20.4549 14.7462 20.546 14.7983 20.6447 14.8313C20.7433 14.8642 20.8475 14.8772 20.9513 14.8696C21.055 14.862 21.1562 14.8339 21.249 14.787C21.631 14.589 21.801 14.107 21.603 13.726C21.557 13.6328 21.493 13.5497 21.4147 13.4814C21.3363 13.4132 21.2453 13.3611 21.1468 13.3282C21.0482 13.2952 20.9441 13.2822 20.8405 13.2897C20.7369 13.2972 20.6358 13.3252 20.543 13.372H20.542ZM16.114 8.64697C16.2611 8.65218 16.4046 8.6009 16.5151 8.50364C16.6255 8.40638 16.6946 8.27053 16.708 8.12397C16.737 7.81197 16.482 7.55797 16.185 7.52897C16.0371 7.52125 15.8921 7.57179 15.7811 7.66975C15.67 7.76771 15.6018 7.90528 15.591 8.05297C15.5835 8.20062 15.634 8.34535 15.7317 8.45631C15.8294 8.56727 15.9666 8.63568 16.114 8.64697ZM16.114 12.155C16.2184 12.162 16.3231 12.148 16.422 12.1139C16.521 12.0798 16.612 12.0262 16.6899 11.9563C16.7677 11.8863 16.8307 11.8015 16.8752 11.7068C16.9198 11.6122 16.9448 11.5095 16.949 11.405C16.9559 11.3007 16.9418 11.196 16.9076 11.0972C16.8735 10.9984 16.8198 10.9075 16.7499 10.8298C16.68 10.752 16.5953 10.6891 16.5006 10.6446C16.406 10.6002 16.3035 10.5751 16.199 10.571C16.0946 10.5639 15.9899 10.5779 15.891 10.612C15.7921 10.6462 15.701 10.6998 15.6232 10.7697C15.5453 10.8396 15.4823 10.9244 15.4378 11.0191C15.3933 11.1138 15.3682 11.2164 15.364 11.321C15.3583 11.425 15.3733 11.5291 15.4079 11.6274C15.4426 11.7257 15.4963 11.8161 15.5659 11.8936C15.6356 11.9711 15.7199 12.034 15.8139 12.0789C15.908 12.1237 16.01 12.1496 16.114 12.155ZM11.8 20.262C11.8932 20.2159 11.9763 20.1517 12.0446 20.0733C12.1128 19.9949 12.1649 19.9037 12.1977 19.8051C12.2305 19.7064 12.2435 19.6022 12.2358 19.4985C12.2281 19.3949 12.2 19.2937 12.153 19.201C12.107 19.1077 12.0429 19.0245 11.9645 18.9561C11.8862 18.8878 11.795 18.8356 11.6963 18.8027C11.5977 18.7698 11.4935 18.7567 11.3897 18.7643C11.286 18.7719 11.1848 18.8 11.092 18.847C10.9989 18.893 10.9158 18.957 10.8475 19.0353C10.7792 19.1136 10.7271 19.2047 10.6942 19.3032C10.6613 19.4018 10.6482 19.5059 10.6557 19.6095C10.6633 19.7131 10.6912 19.8142 10.738 19.907C10.7839 20.0003 10.8479 20.0836 10.9263 20.1521C11.0046 20.2206 11.0958 20.2728 11.1944 20.3058C11.2931 20.3389 11.3973 20.352 11.5011 20.3444C11.6049 20.3369 11.7071 20.3089 11.8 20.262ZM16.623 13.316C16.213 13.938 16.383 14.773 17.02 15.183C17.642 15.593 18.477 15.423 18.887 14.787C19.297 14.15 19.127 13.33 18.491 12.919C18.2716 12.7764 18.0166 12.6981 17.755 12.693C17.5303 12.6991 17.3104 12.7588 17.1134 12.8672C16.9165 12.9755 16.7484 13.1294 16.623 13.316ZM18.972 18.96C18.8924 18.8018 18.7823 18.6609 18.6481 18.5454C18.5139 18.4299 18.3581 18.342 18.1899 18.2868C18.0216 18.2316 17.8441 18.2102 17.6676 18.2238C17.491 18.2374 17.3189 18.2857 17.161 18.366C17.003 18.4456 16.8622 18.5557 16.7468 18.6898C16.6314 18.8239 16.5435 18.9795 16.4883 19.1477C16.4332 19.3158 16.4117 19.4932 16.4252 19.6697C16.4387 19.8461 16.4869 20.0182 16.567 20.176C16.907 20.842 17.713 21.11 18.377 20.771C19.043 20.445 19.311 19.652 18.972 18.96C18.986 18.973 18.986 18.973 18.972 18.96ZM21.334 18.875C21.2024 18.7882 21.048 18.7425 20.8904 18.7435C20.7327 18.7445 20.5789 18.7922 20.4484 18.8807C20.3179 18.9691 20.2166 19.0942 20.1572 19.2402C20.0978 19.3862 20.0831 19.5466 20.1148 19.701C20.1466 19.8554 20.2234 19.9969 20.3356 20.1077C20.4477 20.2184 20.5902 20.2934 20.745 20.3231C20.8998 20.3529 21.06 20.3361 21.2052 20.2748C21.3505 20.2136 21.4743 20.1106 21.561 19.979C21.6202 19.8921 21.6613 19.7942 21.682 19.6911C21.7026 19.5881 21.7023 19.4819 21.6811 19.3789C21.66 19.276 21.6183 19.1783 21.5587 19.0917C21.4991 19.0052 21.4227 18.9315 21.334 18.875ZM23.937 16.838C23.9423 16.7497 23.9299 16.6612 23.9007 16.5777C23.8715 16.4942 23.826 16.4173 23.7668 16.3515C23.7076 16.2857 23.636 16.2324 23.556 16.1945C23.4761 16.1566 23.3894 16.1351 23.301 16.131C23.1231 16.1228 22.9491 16.1849 22.8167 16.3039C22.6842 16.4229 22.6039 16.5892 22.593 16.767C22.5848 16.945 22.6471 17.1191 22.7663 17.2516C22.8855 17.3842 23.0521 17.4644 23.23 17.475C23.584 17.503 23.909 17.205 23.937 16.838ZM25.805 16.357C25.6889 16.3501 25.5747 16.3893 25.4873 16.466C25.3999 16.5428 25.3462 16.6509 25.338 16.767C25.324 17.007 25.508 17.22 25.748 17.234C25.8636 17.2388 25.9767 17.1989 26.0636 17.1225C26.1506 17.0462 26.2048 16.9392 26.215 16.824C26.2219 16.7078 26.1827 16.5937 26.1059 16.5063C26.0292 16.4188 25.9211 16.3652 25.805 16.357ZM24.036 20.7C23.9116 20.6195 23.7606 20.5908 23.6153 20.62C23.47 20.6491 23.3418 20.7338 23.258 20.856C23.1776 20.9804 23.1489 21.1314 23.178 21.2766C23.2072 21.4219 23.2918 21.5501 23.414 21.634C23.669 21.804 24.008 21.733 24.192 21.478C24.2345 21.4172 24.2642 21.3484 24.2794 21.2758C24.2945 21.2032 24.2948 21.1283 24.2802 21.0556C24.2657 20.9829 24.2365 20.9139 24.1945 20.8528C24.1526 20.7917 24.0986 20.7397 24.036 20.7ZM11.63 24.774C11.5314 24.7132 11.4133 24.6927 11.3 24.7165C11.1867 24.7403 11.0868 24.8067 11.021 24.902C10.9606 25.0005 10.9402 25.1184 10.964 25.2314C10.9878 25.3445 11.054 25.4442 11.149 25.51C11.347 25.637 11.615 25.58 11.757 25.383C11.8178 25.2845 11.8386 25.1664 11.8149 25.0531C11.7913 24.9398 11.7251 24.8399 11.63 24.774ZM20.797 24.732C20.6946 24.7872 20.6171 24.8794 20.5803 24.9897C20.5435 25.1001 20.5502 25.2204 20.599 25.326C20.698 25.552 20.966 25.623 21.193 25.524C21.419 25.425 21.49 25.156 21.391 24.944C21.278 24.718 21.009 24.619 20.797 24.732ZM15.718 20.318C16.128 19.696 15.958 18.861 15.322 18.451C15.1739 18.3527 15.0078 18.285 14.8332 18.2517C14.6587 18.2184 14.4792 18.2203 14.3054 18.2571C14.1316 18.294 13.9668 18.3652 13.8208 18.4664C13.6748 18.5677 13.5504 18.6971 13.455 18.847C13.045 19.469 13.215 20.304 13.851 20.714C14.077 20.856 14.331 20.941 14.586 20.941C14.8119 20.941 15.0342 20.8838 15.2321 20.7749C15.43 20.666 15.5971 20.5088 15.718 20.318ZM13.016 22.398C12.8655 22.3017 12.6832 22.2684 12.5084 22.3055C12.3336 22.3425 12.1805 22.4469 12.082 22.596C11.986 22.7464 11.953 22.9285 11.99 23.103C12.027 23.2775 12.1312 23.4305 12.28 23.529C12.4305 23.6253 12.6128 23.6585 12.7876 23.6215C12.9624 23.5844 13.1156 23.4801 13.214 23.331C13.31 23.1806 13.3431 22.9985 13.306 22.8239C13.269 22.6494 13.1648 22.4964 13.016 22.398ZM16.17 24.987C16.0231 24.982 15.8798 25.0334 15.7696 25.1306C15.6594 25.2279 15.5905 25.3636 15.577 25.51C15.548 25.807 15.803 26.076 16.1 26.104C16.2477 26.1117 16.3926 26.0613 16.5036 25.9635C16.6146 25.8658 16.683 25.7285 16.694 25.581C16.7015 25.4333 16.651 25.2886 16.5533 25.1776C16.4556 25.0667 16.3174 24.9983 16.17 24.987ZM16.17 21.478C16.0657 21.4711 15.9611 21.4851 15.8623 21.5193C15.7635 21.5535 15.6725 21.6072 15.5948 21.6771C15.5171 21.747 15.4541 21.8317 15.4097 21.9263C15.3652 22.021 15.3402 22.1235 15.336 22.228C15.329 22.3324 15.3429 22.4371 15.3771 22.536C15.4112 22.6349 15.4648 22.726 15.5347 22.8038C15.6046 22.8817 15.6894 22.9447 15.7841 22.9892C15.8788 23.0337 15.9815 23.0588 16.086 23.063C16.524 23.077 16.906 22.751 16.921 22.313C16.9306 22.1032 16.8573 21.8981 16.717 21.7419C16.5767 21.5857 16.3796 21.4909 16.17 21.478ZM19.424 22.341C19.2656 22.4229 19.1457 22.5637 19.0901 22.7332C19.0346 22.9027 19.0478 23.0872 19.127 23.247C19.2089 23.4054 19.3498 23.5253 19.5192 23.5809C19.6887 23.6364 19.8732 23.6232 20.033 23.544C20.1914 23.4621 20.3113 23.3212 20.3669 23.1517C20.4224 22.9823 20.4092 22.7978 20.33 22.638C20.2489 22.4788 20.1081 22.3582 19.9383 22.3025C19.7685 22.2469 19.5836 22.2607 19.424 22.341Z" fill="#0033AD"/>
</g>
</g>
</g>
<defs>
<clipPath id="clip0_13_755">
<rect width="33" height="32" fill="white" transform="translate(0 0.640015)"/>
</clipPath>
<clipPath id="clip1_13_755">
<rect width="33" height="32" fill="white" transform="translate(0 0.640015)"/>
</clipPath>
<clipPath id="clip2_13_755">
<rect width="33" height="32" fill="white" transform="translate(0 0.640015)"/>
</clipPath>
</defs>
</svg>
