<svg width="32" height="40" viewBox="0 0 32 40" fill="none" xmlns="http://www.w3.org/2000/svg">
<g clip-path="url(#clip0_13_808)">
<g clip-path="url(#clip1_13_808)">
<path d="M15.82 1.70007C24.07 1.70007 30.76 8.39007 30.76 16.6401C30.76 24.8901 24.07 31.5801 15.82 31.5801C7.57 31.5801 0.880005 24.8901 0.880005 16.6401C0.880005 8.39007 7.57 1.70007 15.82 1.70007Z" fill="#F0B90B"/>
<path d="M11.95 14.74L14.21 12.48L14.69 12.01L15.82 10.87L19.67 14.74L21.91 12.48L15.82 6.38L9.71002 12.48L11.95 14.74Z" fill="white"/>
<path d="M15.828 14.0825L13.5723 16.3381L15.828 18.5938L18.0837 16.3381L15.828 14.0825Z" fill="white"/>
<path d="M19.67 17.9501L15.82 21.8001L14.47 20.4501L14.22 20.2001L11.95 17.9501L9.71002 20.1901L15.82 26.2901L21.91 20.1901L19.67 17.9501Z" fill="white"/>
<path d="M8.10912 14.0812L5.85345 16.3369L8.10913 18.5926L10.3648 16.3369L8.10912 14.0812Z" fill="white"/>
<path d="M23.5298 14.0848L21.2741 16.3405L23.5298 18.5961L25.7855 16.3405L23.5298 14.0848Z" fill="white"/>
</g>
</g>
<defs>
<clipPath id="clip0_13_808">
<rect width="32" height="32" fill="white" transform="translate(0 0.640015)"/>
</clipPath>
<clipPath id="clip1_13_808">
<rect width="32" height="32" fill="white" transform="translate(0 0.640015)"/>
</clipPath>
</defs>
</svg>
