<svg width="33" height="40" viewBox="0 0 33 40" fill="none" xmlns="http://www.w3.org/2000/svg">
<g clip-path="url(#clip0_13_770)">
<g clip-path="url(#clip1_13_770)">
<g clip-path="url(#clip2_13_770)">
<path d="M16.54 32.64C25.3766 32.64 32.54 25.4766 32.54 16.64C32.54 7.80346 25.3766 0.640015 16.54 0.640015C7.70345 0.640015 0.540009 7.80346 0.540009 16.64C0.540009 25.4766 7.70345 32.64 16.54 32.64Z" fill="white"/>
<path d="M24.377 7.75598H27.532L20.982 14.249C19.8352 15.3776 18.2906 16.0102 16.6815 16.0102C15.0724 16.0102 13.5278 15.3776 12.381 14.249L5.82999 7.75598H8.98499L13.965 12.679C14.6915 13.3929 15.6694 13.793 16.688 13.793C17.7066 13.793 18.6845 13.3929 19.411 12.679L24.377 7.75598ZM8.94299 25.807H5.78799L12.381 19.285C13.5278 18.1563 15.0724 17.5237 16.6815 17.5237C18.2906 17.5237 19.8352 18.1563 20.982 19.285L27.574 25.807H24.42L19.398 20.842C18.6714 20.1277 17.6933 19.7275 16.6745 19.7275C15.6556 19.7275 14.6776 20.1277 13.951 20.842L8.94299 25.807Z" fill="#23292F"/>
</g>
</g>
</g>
<defs>
<clipPath id="clip0_13_770">
<rect width="33" height="32" fill="white" transform="translate(0 0.640015)"/>
</clipPath>
<clipPath id="clip1_13_770">
<rect width="33" height="32" fill="white" transform="translate(0 0.640015)"/>
</clipPath>
<clipPath id="clip2_13_770">
<rect width="33" height="32" fill="white" transform="translate(0 0.640015)"/>
</clipPath>
</defs>
</svg>
