<svg width="121" height="35" viewBox="0 0 121 35" fill="none" xmlns="http://www.w3.org/2000/svg">
<path d="M17.5 33.75C26.3366 33.75 33.5 26.5866 33.5 17.75C33.5 8.91344 26.3366 1.75 17.5 1.75C8.66344 1.75 1.5 8.91344 1.5 17.75C1.5 26.5866 8.66344 33.75 17.5 33.75Z" stroke="white" stroke-width="2.16"/>
<path d="M7.46494 23.562V13.9716H5.69374V11.682H9.79774V23.562H7.46494ZM16.436 23.7924C15.6392 23.7924 14.9144 23.6412 14.2616 23.3388C13.6136 23.0364 13.0976 22.6212 12.7136 22.0932C12.3344 21.5652 12.1448 20.9604 12.1448 20.2788C12.1448 19.5876 12.3392 18.9636 12.728 18.4068C13.1216 17.85 13.6328 17.4396 14.2616 17.1756C13.7528 16.9068 13.3544 16.5372 13.0664 16.0668C12.7832 15.5916 12.6416 15.0876 12.6416 14.5548C12.6416 13.9596 12.812 13.4316 13.1528 12.9708C13.4984 12.5052 13.9568 12.138 14.528 11.8692C15.104 11.6004 15.7376 11.466 16.4288 11.466C16.8848 11.466 17.3384 11.5356 17.7896 11.6748C18.2408 11.8092 18.6488 12.0084 19.0136 12.2724C19.3832 12.5364 19.6784 12.858 19.8992 13.2372C20.12 13.6164 20.2304 14.0532 20.2304 14.5476C20.2304 15.0996 20.0816 15.6108 19.784 16.0812C19.4912 16.5468 19.1 16.9116 18.6104 17.1756C19.2488 17.4444 19.76 17.8572 20.144 18.414C20.5328 18.9708 20.7272 19.5948 20.7272 20.286C20.7272 20.9628 20.5352 21.5652 20.1512 22.0932C19.772 22.6212 19.2584 23.0364 18.6104 23.3388C17.9624 23.6412 17.2376 23.7924 16.436 23.7924ZM16.436 21.7692C16.7816 21.7692 17.0864 21.6948 17.3504 21.546C17.6144 21.3924 17.8184 21.1836 17.9624 20.9196C18.1064 20.6556 18.1784 20.3604 18.1784 20.034C18.1784 19.6932 18.1016 19.3908 17.948 19.1268C17.7992 18.8628 17.5928 18.654 17.3288 18.5004C17.0696 18.3468 16.772 18.27 16.436 18.27C16.1048 18.27 15.8072 18.3468 15.5432 18.5004C15.2792 18.6492 15.0704 18.8556 14.9168 19.1196C14.768 19.3788 14.6936 19.6812 14.6936 20.0268C14.6936 20.3628 14.7656 20.6628 14.9096 20.9268C15.0584 21.186 15.2624 21.3924 15.5216 21.546C15.7856 21.6948 16.0904 21.7692 16.436 21.7692ZM16.436 16.3188C16.7336 16.3188 16.9976 16.2516 17.228 16.1172C17.4632 15.9828 17.648 15.8004 17.7824 15.57C17.9168 15.3396 17.984 15.078 17.984 14.7852C17.984 14.4924 17.9144 14.2284 17.7752 13.9932C17.6408 13.758 17.456 13.5732 17.2208 13.4388C16.9904 13.3044 16.7288 13.2372 16.436 13.2372C16.1384 13.2372 15.8744 13.3044 15.644 13.4388C15.4136 13.5732 15.2288 13.758 15.0896 13.9932C14.9552 14.2284 14.888 14.4924 14.888 14.7852C14.888 15.078 14.9552 15.3396 15.0896 15.57C15.224 15.8004 15.4088 15.9828 15.644 16.1172C15.8792 16.2516 16.1432 16.3188 16.436 16.3188ZM25.3936 21.2868V18.5436H22.6504V16.6356H25.3936V13.8924H27.3016V16.6356H30.0448V18.5436H27.3016V21.2868H25.3936Z" fill="white"/>
<g clip-path="url(#clip0_0_1)">
<path d="M55.18 6.75H116.82C117.855 6.75 118.775 7.218 119.465 7.803C120.04 8.505 120.5 9.441 120.5 10.495V25.005C120.5 26.059 120.04 26.995 119.465 27.697C118.775 28.399 117.855 28.75 116.82 28.75H55.18C54.145 28.75 53.225 28.399 52.535 27.697C51.96 26.995 51.5 26.059 51.5 25.005V10.495C51.5 9.441 51.96 8.505 52.535 7.803C53.225 7.218 54.145 6.75 55.18 6.75ZM116.82 7.686H55.18C54.8161 7.68653 54.4559 7.75928 54.1203 7.90004C53.7847 8.0408 53.4804 8.24676 53.225 8.506C52.7079 9.03845 52.419 9.75175 52.42 10.494V25.004C52.42 25.824 52.765 26.526 53.225 26.994C53.685 27.579 54.375 27.813 55.18 27.813H116.82C117.625 27.813 118.315 27.579 118.775 26.993C119.235 26.526 119.58 25.823 119.58 25.004V10.495C119.58 9.675 119.235 8.973 118.775 8.505C118.52 8.24594 118.215 8.04016 117.88 7.89958C117.544 7.75899 117.184 7.6864 116.82 7.686ZM76.57 15.176H77.26V13.069H77.835C78.41 13.069 78.64 13.42 78.755 14.005C78.87 14.707 78.985 15.059 79.1 15.175H79.79C79.675 15.059 79.56 14.59 79.33 13.888C79.215 13.42 79.1 13.069 78.64 12.835C79.215 12.718 79.56 12.25 79.56 11.548C79.56 11.197 79.445 10.846 79.215 10.612C78.87 10.378 78.525 10.261 77.835 10.261C77.375 10.261 76.915 10.261 76.57 10.378V15.176ZM77.26 10.846C77.375 10.729 77.49 10.729 77.835 10.729C78.525 10.729 78.985 11.079 78.985 11.665C78.985 12.25 78.525 12.601 77.835 12.601H77.26V10.846ZM83.01 12.367H81.055V10.846H83.125V10.26H80.48V15.175H83.24V14.706H81.055V12.952H83.01V12.367ZM83.7 14.941C84.045 15.176 84.505 15.293 84.965 15.293C86.115 15.293 86.69 14.59 86.69 13.888C86.69 13.186 86.23 12.718 85.425 12.484C84.735 12.133 84.505 11.899 84.505 11.431C84.505 11.197 84.735 10.729 85.425 10.729C85.885 10.729 86.115 10.846 86.345 10.963L86.46 10.495C86.1384 10.3361 85.7837 10.2559 85.425 10.261C84.505 10.261 83.815 10.846 83.815 11.548C83.815 12.25 84.39 12.718 85.08 12.952C85.77 13.186 86 13.42 86 13.888C86 14.473 85.655 14.824 85.08 14.824C84.62 14.824 84.16 14.59 83.93 14.474L83.7 14.941ZM87.495 15.176H88.185V13.303H88.645C89.22 13.303 89.795 13.069 90.14 12.718C90.37 12.484 90.485 12.133 90.485 11.665C90.485 11.314 90.37 10.963 90.14 10.729C89.795 10.378 89.335 10.261 88.76 10.261C88.185 10.261 87.84 10.261 87.495 10.378V15.176ZM88.185 10.846C88.3 10.846 88.53 10.729 88.76 10.729C89.45 10.729 89.91 11.079 89.91 11.782C89.91 12.367 89.45 12.835 88.645 12.835C88.415 12.835 88.3 12.718 88.185 12.718V10.846ZM93.36 10.261C91.98 10.261 91.06 11.197 91.06 12.835C91.06 14.356 91.98 15.293 93.245 15.293C94.51 15.293 95.545 14.356 95.545 12.718C95.545 11.197 94.625 10.261 93.36 10.261ZM93.245 10.729C94.28 10.729 94.855 11.782 94.855 12.719C94.855 13.889 94.28 14.824 93.245 14.824C92.325 14.824 91.75 13.888 91.75 12.835C91.75 11.665 92.21 10.729 93.245 10.729ZM96.925 15.176V13.069C96.925 12.25 96.925 11.665 96.81 11.079C97.155 11.665 97.385 12.133 97.73 12.719L99.34 15.176H99.915V10.26H99.34V12.366C99.34 13.186 99.34 13.77 99.455 14.356C99.225 13.887 98.88 13.419 98.535 12.834L97.04 10.261H96.35V15.176H96.925ZM100.835 14.941C101.065 15.176 101.525 15.293 101.985 15.293C103.135 15.293 103.71 14.59 103.71 13.888C103.71 13.186 103.25 12.718 102.445 12.484C101.755 12.133 101.525 11.899 101.525 11.431C101.525 11.197 101.755 10.729 102.445 10.729C102.905 10.729 103.135 10.846 103.365 10.963L103.48 10.495C103.158 10.3361 102.804 10.2559 102.445 10.261C101.525 10.261 100.835 10.846 100.835 11.548C100.835 12.25 101.41 12.718 102.215 12.952C102.79 13.186 103.02 13.42 103.02 13.888C103.02 14.473 102.675 14.824 102.1 14.824C101.64 14.824 101.18 14.59 100.95 14.474L100.835 14.941ZM104.515 10.261V15.176H105.205V10.26L104.515 10.261ZM106.24 15.176C106.47 15.293 106.815 15.293 107.275 15.293C108.08 15.293 108.54 15.176 108.885 14.824C109.115 14.59 109.345 14.239 109.345 13.771C109.345 13.069 108.77 12.718 108.31 12.601C108.885 12.367 109.115 12.016 109.115 11.548C109.115 11.08 109 10.846 108.77 10.612C108.425 10.378 108.08 10.261 107.39 10.261C106.93 10.261 106.585 10.261 106.24 10.378V15.176ZM106.93 10.846C107.045 10.729 107.16 10.729 107.505 10.729C108.08 10.729 108.54 10.963 108.54 11.548C108.54 12.016 108.08 12.367 107.505 12.367H106.93V10.846ZM106.93 12.836H107.39C108.08 12.836 108.655 13.186 108.655 13.771C108.655 14.473 108.08 14.824 107.39 14.824C107.16 14.824 107.045 14.707 106.93 14.707V12.836ZM110.15 15.176H112.91V14.707H110.84V10.261H110.15V15.176ZM116.015 12.367H114.175V10.846H116.13V10.26H113.6V15.175H116.245V14.706H114.175V12.952H116.015V12.367ZM82.205 20.324H79.445V21.846H80.595V23.601C80.48 23.718 80.135 23.718 79.79 23.718C78.41 23.718 77.49 22.665 77.49 21.027C77.49 19.154 78.525 18.218 79.905 18.218C80.71 18.218 81.17 18.452 81.63 18.686L81.975 17.165C81.63 16.931 80.825 16.697 79.905 16.697C77.49 16.697 75.765 18.335 75.765 21.027C75.765 22.314 76.11 23.367 76.8 24.187C77.49 24.888 78.41 25.239 79.79 25.239C80.71 25.239 81.745 25.005 82.205 24.771V20.324ZM87.265 23.016L87.84 25.122H89.565L87.38 16.814H85.195L83.01 25.122H84.62L85.195 23.016H87.265ZM85.425 21.612L85.885 19.856C86 19.388 86.115 18.686 86.23 18.218C86.345 18.686 86.46 19.271 86.575 19.856L87.035 21.612H85.425ZM96.81 25.122H98.42L98.075 16.814H95.89L95.085 19.622C94.855 20.559 94.625 21.612 94.395 22.548C94.28 21.612 94.05 20.558 93.82 19.622L93.13 16.814H90.83L90.37 25.122H91.98L92.095 21.962C92.095 20.91 92.21 19.622 92.21 18.569C92.44 19.622 92.67 20.793 92.9 21.846L93.705 25.006H94.97L95.89 21.729C96.12 20.793 96.465 19.622 96.695 18.569V21.963L96.81 25.122ZM99.685 16.814V25.122H101.41V16.814H99.685ZM104.285 25.122V19.037C104.63 19.973 105.09 21.027 105.55 21.963L107.16 25.123H108.885V16.813H107.39V19.271C107.39 20.441 107.39 21.611 107.505 22.781C107.132 21.7857 106.71 20.8095 106.24 19.856L104.745 16.814H102.79V25.122H104.285ZM116.36 20.324H113.715V21.846H114.75V23.601C114.635 23.718 114.405 23.718 113.945 23.718C112.68 23.718 111.645 22.665 111.645 21.027C111.645 19.154 112.68 18.218 114.06 18.218C114.865 18.218 115.44 18.452 115.785 18.686L116.13 17.165C115.785 16.931 115.095 16.697 114.175 16.697C111.76 16.697 109.92 18.335 109.92 21.027C109.92 22.314 110.265 23.367 110.955 24.187C111.645 24.888 112.565 25.239 113.945 25.239C114.865 25.239 115.9 25.005 116.36 24.771V20.324ZM63.92 25.005H61.045V19.271H60.24C59.09 19.388 58.515 19.856 58.17 21.611C57.825 23.367 57.48 24.654 57.25 25.005H54.375C54.605 24.42 55.065 22.548 55.41 20.91C55.755 19.622 56.215 18.57 57.135 18.218V18.101C55.985 17.75 54.835 16.463 54.835 14.591C54.835 13.186 55.295 12.25 55.985 11.548C56.905 10.728 58.285 10.378 60.125 10.378C61.62 10.378 63 10.495 63.92 10.728V12.016C65.185 10.963 66.795 10.378 68.75 10.378C70.36 10.378 71.625 10.728 72.2 11.08L71.625 13.654C70.935 13.304 70.13 13.069 68.635 13.069C66.335 13.069 64.495 14.59 64.495 17.75C64.495 20.793 66.105 22.548 68.52 22.548C69.095 22.548 69.67 22.431 69.9 22.314V19.27H67.945V16.697H72.66V24.303C71.74 24.654 70.13 25.123 68.405 25.123C66.45 25.123 65.07 24.654 63.92 23.835V25.005ZM61.045 12.952C60.93 12.952 60.47 12.835 59.78 12.835C58.515 12.835 57.71 13.537 57.71 14.825C57.71 16.112 58.515 16.931 60.01 16.931H61.045V12.952Z" fill="white"/>
</g>
<defs>
<clipPath id="clip0_0_1">
<rect width="69" height="22" fill="white" transform="translate(51.5 6.75)"/>
</clipPath>
</defs>
</svg>
