<svg width="33" height="40" viewBox="0 0 33 40" fill="none" xmlns="http://www.w3.org/2000/svg">
<g clip-path="url(#clip0_13_787)">
<g clip-path="url(#clip1_13_787)">
<g clip-path="url(#clip2_13_787)">
<path d="M16.44 30.9081C24.32 30.9081 30.708 24.5201 30.708 16.6401C30.708 8.76007 24.32 2.37207 16.44 2.37207C8.56 2.37207 2.172 8.76007 2.172 16.6401C2.172 24.5201 8.56 30.9081 16.44 30.9081Z" fill="white"/>
<path d="M16.44 0.640015C7.603 0.640015 0.440002 7.80301 0.440002 16.64C0.440002 25.477 7.603 32.64 16.44 32.64C25.276 32.64 32.44 25.477 32.44 16.64C32.4522 12.4089 30.7832 8.34625 27.8001 5.34569C24.817 2.34514 20.7641 0.652462 16.533 0.640015L16.44 0.640015ZM16.711 17.182L15.045 22.8H23.955C24.0141 22.7979 24.0731 22.8074 24.1285 22.8281C24.1839 22.8487 24.2347 22.8801 24.278 22.9204C24.3212 22.9607 24.3562 23.0092 24.3807 23.063C24.4052 23.1168 24.4189 23.1749 24.421 23.234V23.381L23.646 26.054C23.6119 26.1804 23.5357 26.2914 23.4302 26.3688C23.3246 26.4462 23.1958 26.4855 23.065 26.48H9.428L11.714 18.693L9.157 19.468L9.737 17.686L12.295 16.911L15.51 5.98601C15.5454 5.86036 15.6219 5.75016 15.7271 5.67297C15.8324 5.59577 15.9605 5.55601 16.091 5.56001H19.54C19.6592 5.55597 19.7751 5.5994 19.8623 5.68078C19.9495 5.76216 20.0008 5.87482 20.005 5.99401V6.14101L17.293 15.361L19.85 14.587L19.308 16.447L16.711 17.182Z" fill="#345D9D"/>
</g>
</g>
</g>
<defs>
<clipPath id="clip0_13_787">
<rect width="33" height="32" fill="white" transform="translate(0 0.640015)"/>
</clipPath>
<clipPath id="clip1_13_787">
<rect width="33" height="32" fill="white" transform="translate(0 0.640015)"/>
</clipPath>
<clipPath id="clip2_13_787">
<rect width="33" height="32" fill="white" transform="translate(0 0.640015)"/>
</clipPath>
</defs>
</svg>
