<svg width="32" height="40" viewBox="0 0 32 40" fill="none" xmlns="http://www.w3.org/2000/svg">
<g clip-path="url(#clip0_13_606)">
<g clip-path="url(#clip1_13_606)">
<g clip-path="url(#clip2_13_606)">
<path d="M31.5198 20.5118C29.3848 29.0818 20.7008 34.2988 12.1278 32.1598C3.55476 30.0208 -1.65924 21.3418 0.479761 12.7698C2.61876 4.1998 11.2978 -1.0202 19.8698 1.1198C28.4398 3.2588 33.6598 11.9378 31.5198 20.5118Z" fill="#F7931A"/>
<path d="M23.056 14.36C23.374 12.231 21.753 11.087 19.536 10.323L20.256 7.43899L18.5 6.99999L17.799 9.80899C17.3312 9.69376 16.8621 9.58342 16.392 9.47799L17.096 6.65099L15.342 6.21399L14.624 9.09699L11.083 8.21899L10.616 10.095C10.616 10.095 11.918 10.393 11.891 10.412C12.602 10.59 12.731 11.06 12.709 11.433L10.739 19.334C10.652 19.55 10.431 19.874 9.934 19.75C9.952 19.776 8.658 19.43 8.658 19.43L7.787 21.443L11.323 22.336L10.596 25.253L12.35 25.691L13.07 22.804C13.55 22.934 14.014 23.054 14.468 23.167L13.751 26.04L15.507 26.478L16.234 23.566C19.228 24.132 21.479 23.904 22.426 21.198C23.189 19.018 22.388 17.76 20.813 16.939C21.96 16.674 22.824 15.919 23.055 14.361M19.043 19.985C18.499 22.165 14.83 20.987 13.639 20.691L14.603 16.826C15.793 17.123 19.61 17.711 19.044 19.985M19.588 14.329C19.093 16.313 16.038 15.305 15.046 15.057L15.919 11.551C16.911 11.799 20.103 12.26 19.587 14.328" fill="white"/>
</g>
</g>
</g>
<defs>
<clipPath id="clip0_13_606">
<rect width="32" height="32" fill="white" transform="translate(0 0.640015)"/>
</clipPath>
<clipPath id="clip1_13_606">
<rect width="32" height="32" fill="white" transform="translate(0 0.640015)"/>
</clipPath>
<clipPath id="clip2_13_606">
<rect width="32" height="32" fill="white" transform="translate(0 0.640015)"/>
</clipPath>
</defs>
</svg>
