<svg width="33" height="40" viewBox="0 0 33 40" fill="none" xmlns="http://www.w3.org/2000/svg">
<g clip-path="url(#clip0_13_763)">
<g clip-path="url(#clip1_13_763)">
<g clip-path="url(#clip2_13_763)">
<path d="M16.32 32.64C25.1566 32.64 32.32 25.4766 32.32 16.64C32.32 7.80346 25.1566 0.640015 16.32 0.640015C7.48345 0.640015 0.320007 7.80346 0.320007 16.64C0.320007 25.4766 7.48345 32.64 16.32 32.64Z" fill="#0AC18E"/>
<path d="M21.31 11.267C20.507 9.44401 18.66 9.05401 16.397 9.43201L15.67 6.61401L13.957 7.05601L14.671 9.86601C14.221 9.98001 13.758 10.078 13.299 10.208L12.584 7.41401L10.87 7.85601L11.597 10.675C11.227 10.78 8.13699 11.572 8.13699 11.572L8.60799 13.408C8.60799 13.408 9.86799 13.054 9.85499 13.083C10.554 12.9 10.882 13.249 11.037 13.578L13.035 21.302C13.059 21.525 13.018 21.907 12.539 22.037C12.568 22.053 11.293 22.357 11.293 22.357L11.479 24.497C11.479 24.497 14.541 23.714 14.943 23.613L15.678 26.463L17.392 26.021L16.657 23.15C17.128 23.04 17.587 22.926 18.034 22.809L18.764 25.663L20.478 25.221L19.743 22.374C22.383 21.732 24.247 20.067 23.865 17.521C23.622 15.986 21.945 14.727 20.551 14.585C21.408 13.825 21.842 12.717 21.31 11.267ZM20.486 17.988C20.828 20.51 17.323 20.818 16.166 21.123L15.159 17.351C16.32 17.046 19.909 15.767 20.486 17.988ZM18.375 12.851C18.736 15.093 15.739 15.353 14.773 15.601L13.855 12.177C14.825 11.937 17.64 10.776 18.375 12.851Z" fill="white"/>
</g>
</g>
</g>
<defs>
<clipPath id="clip0_13_763">
<rect width="33" height="32" fill="white" transform="translate(0 0.640015)"/>
</clipPath>
<clipPath id="clip1_13_763">
<rect width="33" height="32" fill="white" transform="translate(0 0.640015)"/>
</clipPath>
<clipPath id="clip2_13_763">
<rect width="33" height="32" fill="white" transform="translate(0 0.640015)"/>
</clipPath>
</defs>
</svg>
