<svg width="33" height="40" viewBox="0 0 33 40" fill="none" xmlns="http://www.w3.org/2000/svg">
<g clip-path="url(#clip0_13_778)">
<g clip-path="url(#clip1_13_778)">
<g clip-path="url(#clip2_13_778)">
<path d="M16.88 32.64C25.7166 32.64 32.88 25.4766 32.88 16.64C32.88 7.80346 25.7166 0.640015 16.88 0.640015C8.04345 0.640015 0.880005 7.80346 0.880005 16.64C0.880005 25.4766 8.04345 32.64 16.88 32.64Z" fill="white"/>
<path fill-rule="evenodd" clip-rule="evenodd" d="M18.323 14.8721V16.8101C18.238 16.8241 17.8 16.8521 16.908 16.8521C16.173 16.8521 15.635 16.8241 15.451 16.8101V14.8721C12.594 14.9991 10.471 15.4941 10.471 16.0881C10.471 16.6821 12.594 17.1781 15.451 17.3051C15.635 17.3191 16.159 17.3331 16.894 17.3331C17.828 17.3331 18.238 17.3051 18.323 17.3051C21.166 17.1781 23.288 16.6821 23.288 16.0881C23.288 15.4941 21.166 14.9991 18.323 14.8721Z" fill="#50AF95"/>
<path fill-rule="evenodd" clip-rule="evenodd" d="M28.24 16.4001L24.095 7.68506C24.0809 7.65557 24.0588 7.63065 24.0312 7.61314C24.0036 7.59564 23.9717 7.58625 23.939 7.58606H9.82101C9.78822 7.58634 9.75619 7.59587 9.72859 7.61357C9.70099 7.63126 9.67895 7.65639 9.66501 7.68606L5.52001 16.4001C5.50575 16.4334 5.50223 16.4704 5.50994 16.5059C5.51764 16.5414 5.53619 16.5736 5.56301 16.5981L16.78 27.3351C16.85 27.3921 16.95 27.3921 17.02 27.3351L28.24 16.5981C28.2576 16.568 28.2668 16.5339 28.2668 16.4991C28.2668 16.4643 28.2576 16.4301 28.24 16.4001ZM18.323 17.7721V23.3321H15.451V17.7721C12.226 17.6161 9.79201 16.9801 9.79201 16.2161C9.79201 15.4521 12.226 14.8161 15.452 14.6591V12.9191H11.476V10.2741H22.284V12.9191H18.31V14.6591C21.535 14.8151 23.954 15.4521 23.954 16.2161C23.969 16.9801 21.534 17.6161 18.323 17.7721Z" fill="#50AF95"/>
</g>
</g>
</g>
<defs>
<clipPath id="clip0_13_778">
<rect width="33" height="32" fill="white" transform="translate(0 0.640015)"/>
</clipPath>
<clipPath id="clip1_13_778">
<rect width="33" height="32" fill="white" transform="translate(0 0.640015)"/>
</clipPath>
<clipPath id="clip2_13_778">
<rect width="33" height="32" fill="white" transform="translate(0 0.640015)"/>
</clipPath>
</defs>
</svg>
