<svg width="32" height="40" viewBox="0 0 32 40" fill="none" xmlns="http://www.w3.org/2000/svg">
<g clip-path="url(#clip0_13_801)">
<g clip-path="url(#clip1_13_801)">
<g clip-path="url(#clip2_13_801)">
<path d="M16 32.3501C24.71 32.3501 31.71 25.3501 31.71 16.6401C31.71 7.93005 24.71 0.930054 16 0.930054C7.28998 0.930054 0.289978 7.93005 0.289978 16.6401C0.289978 25.3501 7.28998 32.3501 16 32.3501Z" fill="#2775CA"/>
<path d="M20.32 19.12C20.32 16.83 18.95 16.04 16.2 15.71C14.23 15.45 13.84 14.93 13.84 14.01C13.84 13.09 14.5 12.5 15.81 12.5C16.99 12.5 17.64 12.89 17.97 13.87C18.04 14.07 18.23 14.2 18.43 14.2H19.47C19.73 14.2 19.93 14 19.93 13.74V13.67C19.67 12.23 18.49 11.12 16.99 10.99V9.42001C16.99 9.16001 16.79 8.96001 16.46 8.89001H15.48C15.22 8.89001 15.02 9.09001 14.95 9.42001V10.93C12.98 11.19 11.74 12.5 11.74 14.14C11.74 16.3 13.05 17.15 15.8 17.48C17.63 17.81 18.23 18.2 18.23 19.25C18.23 20.3 17.32 21.02 16.07 21.02C14.37 21.02 13.78 20.3 13.59 19.32C13.52 19.06 13.33 18.93 13.13 18.93H12.02C11.76 18.93 11.56 19.13 11.56 19.39V19.46C11.82 21.1 12.87 22.27 15.03 22.6V24.17C15.03 24.43 15.23 24.63 15.56 24.7H16.54C16.8 24.7 17 24.5 17.07 24.17V22.6C19.04 22.27 20.34 20.9 20.34 19.13L20.32 19.12Z" fill="white"/>
<path d="M12.66 26C7.55002 24.17 4.94002 18.47 6.84002 13.43C7.82002 10.68 9.98002 8.59001 12.66 7.61001C12.92 7.48001 13.05 7.28001 13.05 6.95001V6.04001C13.05 5.78001 12.92 5.58001 12.66 5.51001C12.59 5.51001 12.46 5.51001 12.4 5.58001C6.18002 7.55001 2.78002 14.15 4.74002 20.38C5.92002 24.05 8.74002 26.86 12.4 28.04C12.66 28.17 12.93 28.04 12.99 27.78C13.06 27.71 13.06 27.65 13.06 27.52V26.61C13.06 26.41 12.86 26.15 12.67 26.02L12.66 26ZM19.6 5.58001C19.34 5.45001 19.07 5.58001 19.01 5.84001C18.94 5.91001 18.94 5.97001 18.94 6.10001V7.01001C18.94 7.27001 19.14 7.54001 19.33 7.67001C24.44 9.50001 27.05 15.2 25.15 20.24C24.17 22.99 22.01 25.08 19.33 26.06C19.07 26.19 18.94 26.39 18.94 26.72V27.63C18.94 27.89 19.07 28.09 19.33 28.16C19.4 28.16 19.53 28.16 19.59 28.09C25.81 26.12 29.21 19.52 27.25 13.29C26.07 9.56001 23.19 6.74001 19.59 5.57001L19.6 5.58001Z" fill="white"/>
</g>
</g>
</g>
<defs>
<clipPath id="clip0_13_801">
<rect width="32" height="32" fill="white" transform="translate(0 0.640015)"/>
</clipPath>
<clipPath id="clip1_13_801">
<rect width="32" height="32" fill="white" transform="translate(0 0.640015)"/>
</clipPath>
<clipPath id="clip2_13_801">
<rect width="32" height="32" fill="white" transform="translate(0 0.640015)"/>
</clipPath>
</defs>
</svg>
