<svg width="33" height="40" viewBox="0 0 33 40" fill="none" xmlns="http://www.w3.org/2000/svg">
<g clip-path="url(#clip0_13_625)">
<g clip-path="url(#clip1_13_625)">
<g clip-path="url(#clip2_13_625)">
<path d="M16.66 32.64C25.4966 32.64 32.66 25.4766 32.66 16.64C32.66 7.80346 25.4966 0.640015 16.66 0.640015C7.82345 0.640015 0.660004 7.80346 0.660004 16.64C0.660004 25.4766 7.82345 32.64 16.66 32.64Z" fill="#988430"/>
<path d="M16.66 32.127C25.2132 32.127 32.147 25.1932 32.147 16.64C32.147 8.08672 25.2132 1.15295 16.66 1.15295C8.10677 1.15295 1.173 8.08672 1.173 16.64C1.173 25.1932 8.10677 32.127 16.66 32.127Z" fill="#7A6A2A"/>
<path d="M16.66 31.801C25.0332 31.801 31.821 25.0132 31.821 16.64C31.821 8.26682 25.0332 1.479 16.66 1.479C8.28682 1.479 1.49901 8.26682 1.49901 16.64C1.49901 25.0132 8.28682 31.801 16.66 31.801Z" fill="#BA9F33"/>
<path fill-rule="evenodd" clip-rule="evenodd" d="M7.655 14.931C7.565 14.849 7.469 14.766 7.381 14.683C7.2916 14.5993 7.20159 14.5163 7.111 14.434L6.843 14.178C6.799 14.134 6.752 14.096 6.708 14.051L6.568 13.93C6.211 13.59 5.851 13.251 5.498 12.912C5.864 13.246 6.221 13.578 6.586 13.917L6.713 14.044C6.757 14.088 6.803 14.126 6.848 14.17L7.117 14.419C7.207 14.502 7.296 14.585 7.387 14.675C7.477 14.765 7.564 14.848 7.655 14.931ZM2.912 14.881C2.912 14.881 4.212 15.015 4.846 15.105C5.434 15.188 7.272 15.47 7.272 15.47L2.912 14.88V14.881ZM2.912 14.881C3.278 14.911 3.642 14.95 4.008 14.989C4.194 15.007 4.373 15.028 4.551 15.046L4.826 15.076L5.095 15.116L6.182 15.289L6.726 15.379C6.905 15.411 7.083 15.444 7.27 15.476C7.08819 15.4565 6.90682 15.4332 6.726 15.406L6.182 15.328L5.095 15.168C5.005 15.155 4.916 15.136 4.825 15.123L4.551 15.092C4.373 15.074 4.186 15.048 4.007 15.027C3.642 14.983 3.277 14.937 2.912 14.88V14.881ZM7.142 15.809C7.142 15.809 5.755 16.161 5.287 16.296C4.826 16.423 3.43 16.847 3.43 16.847L7.143 15.809H7.142Z" fill="#CFB66C"/>
<path fill-rule="evenodd" clip-rule="evenodd" d="M7.14301 15.809C6.83501 15.899 6.52801 15.988 6.21601 16.07L5.28901 16.319L4.36701 16.589L3.90701 16.715C3.75401 16.759 3.59901 16.798 3.44101 16.842C3.59301 16.791 3.74901 16.738 3.90101 16.694L4.36201 16.547C4.67001 16.451 4.97701 16.36 5.28401 16.265C5.59701 16.187 5.90501 16.105 6.21801 16.029C6.51601 15.954 6.82901 15.879 7.14301 15.809ZM3.62401 17.702C3.77701 17.645 5.53801 16.824 5.94701 16.632C6.15201 16.536 6.74701 16.325 6.74701 16.325L3.62401 17.702Z" fill="#CFB66C"/>
<path fill-rule="evenodd" clip-rule="evenodd" d="M3.62401 17.702C3.75901 17.65 3.88601 17.588 4.01501 17.528L4.39801 17.349L5.16801 16.979C5.42301 16.858 5.67201 16.723 5.93601 16.609C6.06855 16.554 6.20334 16.5047 6.34001 16.461L6.54501 16.397C6.61501 16.379 6.68001 16.357 6.75001 16.34C6.49401 16.461 6.22401 16.565 5.96801 16.684C5.71201 16.811 5.45001 16.914 5.18601 17.028L4.40401 17.373C4.14201 17.479 3.88601 17.593 3.62401 17.702ZM3.79501 18.418C3.79501 18.418 5.39001 17.484 5.93901 17.183C6.22601 17.023 7.15601 16.562 7.15601 16.562L3.79501 18.418Z" fill="#CFB66C"/>
<path fill-rule="evenodd" clip-rule="evenodd" d="M3.795 18.419C4.065 18.253 4.339 18.085 4.613 17.914L5.023 17.665C5.163 17.582 5.297 17.505 5.44 17.422C5.58 17.339 5.714 17.256 5.857 17.179C5.924 17.137 5.995 17.1 6.069 17.069L6.286 16.961C6.574 16.821 6.861 16.679 7.164 16.557C6.89 16.731 6.607 16.878 6.325 17.031C6.185 17.109 6.043 17.179 5.903 17.256C5.763 17.334 5.629 17.416 5.486 17.492C5.346 17.575 5.212 17.652 5.07 17.727L4.647 17.957L3.795 18.419ZM7.143 16.767C7.143 16.767 6.151 17.528 5.83 17.771C5.51 18.015 4.564 18.698 4.564 18.698L7.143 16.767Z" fill="#CFB66C"/>
<path fill-rule="evenodd" clip-rule="evenodd" d="M12.833 22.905L12.326 21.945L12.621 20.744L14.726 19.931L13.83 18.093L14.273 16.236L15.104 14.574L17.672 14.17L19.56 12.37L23.635 12.679L24.435 17.036L22.895 22.522L22.017 25.362L18.459 25.497L16.808 24.353L14.874 23.545L12.833 22.905Z" fill="#E2CC85"/>
<path fill-rule="evenodd" clip-rule="evenodd" d="M19.073 22.874C19.073 22.874 18.581 23.1 17.742 23.048C17.499 22.722 15.798 22.568 15.798 22.568C15.798 22.568 15.586 22.504 15.21 22.659C14.833 22.813 14.475 22.794 14.141 22.877C13.807 22.96 13.476 22.525 13.22 22.434C12.964 22.338 12.624 22.108 12.624 22.108L11.907 22.038L10.467 21.43L8.18101 19.151L7.56001 20.124L7.36801 21.328L8.05901 22.755L9.92101 24.45L13.551 25.372L15.702 24.738L18.397 23.598L19.073 22.874Z" fill="#F1D789"/>
<path fill-rule="evenodd" clip-rule="evenodd" d="M6.177 14.8231L6.637 13.4271L7.187 12.5271L8.955 12.3781L8.425 13.9271L6.946 16.5571L7.56 18.9051L6.472 19.4491L6.138 18.9361L5.869 17.7611L5.851 16.4411L6.177 14.8231Z" fill="#F4ECB4"/>
<path fill-rule="evenodd" clip-rule="evenodd" d="M8.16 22.7791L7.821 22.3051C7.821 22.3051 7.731 22.0791 7.782 21.8831C7.834 21.6831 7.826 21.6701 7.801 21.5951C7.775 21.5201 7.557 21.2611 7.571 21.0391C7.583 20.8131 7.552 20.7391 7.718 20.5591C7.891 20.3861 7.839 20.0861 7.839 20.0861L8.065 20.2261L8.115 20.1481C8.115 20.1481 8.199 20.2131 8.199 20.3141C8.217 20.1741 8.142 19.5271 8.312 19.3791C8.483 19.2321 8.78601 20.0701 8.78601 20.0701L8.6 18.8541L8.12 17.6061L7.269 16.4661L7.218 15.2111V15.1021C7.218 15.1021 6.827 15.7021 6.718 16.1771C6.64 16.5031 6.827 16.9001 6.788 17.3681C6.757 17.8341 6.718 17.7981 6.832 17.9831C6.946 18.1671 7.222 18.5471 7.114 18.8211C7.018 19.0571 6.692 18.8911 6.692 18.8911C6.692 18.8911 6.627 19.0831 6.539 19.1531C6.51869 19.0585 6.47503 18.9705 6.412 18.8971C6.407 18.9411 6.394 19.0001 6.394 19.0001C6.394 19.0001 6.337 18.8221 6.28 18.5971C6.203 18.2971 6.12 17.9001 6.045 17.6871C6.014 17.8101 5.936 18.1801 5.936 18.1801L5.98 18.7501L6.193 19.5311L6.397 20.0431L6.597 20.6701L6.77 21.0901L6.91 21.4121L7.031 22.1341L7.619 22.7551L7.932 22.8951L8.16 22.7791Z" fill="#F3E19D"/>
<path fill-rule="evenodd" clip-rule="evenodd" d="M6.485 13.683C6.485 13.683 6.063 14.4 5.942 15.123C5.82 15.845 5.712 16.609 5.788 17.593C5.866 18.584 6.013 19.193 6.132 19.628C6.337 20.35 6.868 21.355 6.868 21.355L6.886 21.315C6.79666 21.1463 6.72527 20.9686 6.673 20.785C6.603 20.511 6.578 20.185 6.513 20.037C6.456 19.889 6.36 19.762 6.313 19.581C6.269 19.408 6.263 19.133 6.127 18.929C6.07 18.846 6 18.629 5.98 18.411C5.954 18.085 5.992 17.72 5.961 17.419C5.904 16.919 5.866 16.581 5.917 16.319C5.969 16.057 6.239 15.315 6.404 14.724C6.513 14.346 6.448 14.028 6.647 13.699C6.847 13.373 6.969 13.085 7.013 12.886C7.063 12.705 6.485 13.683 6.485 13.683Z" fill="#F2E8B0"/>
<path fill-rule="evenodd" clip-rule="evenodd" d="M8.487 13.396C8.487 13.396 8.269 13.461 8.166 13.575C8.062 13.683 8.018 13.774 7.878 13.958C7.738 14.142 7.731 14.292 7.617 14.522C7.503 14.747 7.251 15.087 7.22 15.208C7.19 15.33 7.138 15.899 7.073 16.168C7.016 16.438 7.138 16.77 7.138 16.77L7.285 16.738C7.285 16.738 7.285 16.93 7.433 17.059C7.58 17.186 7.606 16.629 7.606 16.629L8.158 14.769L8.988 14.204L9.079 13.748L8.487 13.396Z" fill="#F5EEC0"/>
<path fill-rule="evenodd" clip-rule="evenodd" d="M8.89001 14.24C8.89001 14.24 8.50001 14.266 8.30801 14.406C8.23001 14.463 8.19901 14.509 8.11601 14.579C7.96401 14.706 7.80801 14.823 7.73301 14.989C7.65001 15.154 7.56001 15.406 7.49801 15.879C7.47201 16.079 7.47201 16.262 7.45401 16.423C7.42801 16.641 7.38901 16.813 7.41001 16.935C7.43501 17.184 7.69201 17.313 7.71701 17.595L8.24701 17.326L8.74701 15.356L9.80901 14.69L9.20801 14.017L8.89001 14.239V14.24Z" fill="#E6DB9D"/>
<path fill-rule="evenodd" clip-rule="evenodd" d="M6.09 27.508L6.097 27.449C6.174 26.783 6.187 26.279 6.244 25.963C6.327 25.515 6.384 25.349 6.371 25.181C6.353 24.911 6.332 24.715 6.358 24.508C6.398 24.233 6.666 23.908 6.658 23.682C6.653 23.503 6.563 23.387 6.485 23.278C6.408 23.17 6.345 23.078 6.345 23.078C6.345 23.078 6.876 22.714 6.871 21.243C6.88181 21.2461 6.89222 21.2505 6.902 21.256L7.164 21.999L7.342 22.217L8.028 23.496L8.911 24.353L10.216 25.23L11.034 26.12L11.117 28.495L10.047 29.882L9.873 30.199C8.48171 29.5009 7.20585 28.5934 6.09 27.508Z" fill="#E5CB7A"/>
<path fill-rule="evenodd" clip-rule="evenodd" d="M9.356 29.78C9.356 29.78 9.375 29.484 9.618 29.292C9.657 29.357 9.683 29.419 9.675 29.466C9.79033 29.2813 9.94342 29.1231 10.1242 29.0018C10.305 28.8805 10.5094 28.7988 10.724 28.762C11.42 28.635 11.588 28.127 11.588 28.127L13.066 26.784L14.757 25.228L16.813 24.505L17.773 24.27C17.773 24.27 17.792 24.34 17.755 24.495C17.934 24.482 18.33 24.392 18.742 24.246C18.907 24.182 19.062 24.156 19.146 24.241C19.267 24.355 19.286 24.624 19.293 24.785C19.493 24.741 19.723 24.549 19.907 24.567C20.203 24.599 20.464 24.945 20.765 24.945C21.161 24.945 21.339 24.702 21.616 24.51C21.782 24.397 22.02 24.254 22.155 24.158C22.475 23.923 25.873 22.885 25.873 22.885L27.063 22.962L27.255 24.242L27.153 27.585L27.115 27.621L21.7 30.449L14.194 31.6C12.5125 31.3255 10.8898 30.7676 9.395 29.95L9.357 29.779L9.356 29.78Z" fill="#D8C173"/>
<path fill-rule="evenodd" clip-rule="evenodd" d="M6.545 27.933C6.652 27.71 6.748 27.523 6.765 27.457C6.778 27.591 6.803 27.887 6.852 28.2C6.74855 28.1123 6.64621 28.0233 6.545 27.933Z" fill="#F1D789"/>
<path fill-rule="evenodd" clip-rule="evenodd" d="M12.028 31.0801L12.999 30.8101L13.082 30.8361C13.082 30.8361 13.126 30.8611 13.126 30.9491C13.248 30.8791 13.351 30.8921 13.426 30.8461C13.466 30.9291 13.504 31.2031 13.675 31.2361C13.853 31.2761 14.045 31.1591 14.239 31.0121C14.431 30.8591 14.649 30.6671 14.814 30.5901C14.874 30.7001 14.928 30.8161 14.974 30.9341C15.192 30.7601 15.57 30.0561 16.108 30.0691C16.264 29.7011 16.524 29.3871 16.856 29.1661C17.356 28.8261 17.669 28.8011 18.06 28.8321C18.215 28.6301 18.407 28.4591 18.625 28.3271C18.689 28.3531 18.868 28.4611 19.091 28.3571C19.316 28.2541 19.57 27.8531 19.904 27.8011C20.0838 27.7766 20.2664 27.8151 20.421 27.9101C20.421 27.9101 21.394 26.9441 22.065 26.6231C22.039 26.5451 21.988 26.2531 22.775 25.6061C22.819 25.6451 22.788 25.7531 22.819 25.7591C22.831 25.7591 23.023 25.6761 23.267 25.4891C23.567 25.2651 23.927 25.0291 24.144 24.9641C24.554 24.8431 24.988 25.0911 24.988 25.0911C25.0251 25.0651 25.0663 25.0458 25.11 25.0341C25.213 25.0161 25.288 25.0041 25.345 24.9831C25.34 25.1181 25.415 25.3481 25.345 25.5471C25.426 25.5931 25.512 25.6291 25.601 25.6571C25.558 25.7521 25.461 25.9951 25.301 26.1121C25.436 26.1771 25.454 26.2521 25.645 26.3171C25.5494 26.448 25.4622 26.585 25.384 26.7271C25.327 26.8471 25.122 27.3531 25.032 27.5441C24.936 27.7361 24.807 28.0881 24.744 28.1591C24.682 28.2291 24.457 28.5291 24.284 28.6761C24.6306 28.5607 24.9801 28.454 25.332 28.3561C25.252 28.4721 24.85 29.0681 24.464 29.6421C22.6123 30.752 20.5453 31.4545 18.4007 31.7028C16.2562 31.9511 14.0833 31.7395 12.027 31.0821L12.028 31.0801Z" fill="#E0CD81"/>
<path fill-rule="evenodd" clip-rule="evenodd" d="M8.954 14.1701C8.954 14.1701 8.729 14.1701 8.685 14.2011C8.641 14.2321 8.911 14.2971 8.993 14.3281C9.076 14.3591 9.255 14.5021 9.301 14.6161C9.345 14.7241 10.919 15.3581 10.919 15.3581L12.033 15.3011L12.417 14.7711L11.687 14.1311L12.198 12.6221L11.52 12.7321L9.89 13.7041L9.071 14.0171L8.954 14.1701Z" fill="#DFC57C"/>
<path fill-rule="evenodd" clip-rule="evenodd" d="M11.4 14.67C11.416 14.696 11.4386 14.7174 11.4654 14.7319C11.4923 14.7465 11.5225 14.7538 11.553 14.753C11.783 14.753 11.995 14.81 12.083 14.926C12.231 15.113 12.64 15.708 12.64 15.708L13.619 16.06L13.682 14.908L12.612 14.165L11.396 14.613V14.67H11.4Z" fill="#E5CC7C"/>
<path fill-rule="evenodd" clip-rule="evenodd" d="M11.207 15.097C11.207 15.097 11.386 15.11 11.611 15.027C11.836 14.944 12.206 14.766 12.367 14.836C12.592 14.931 12.546 15.232 12.789 15.501C12.937 15.667 13.206 15.661 13.359 15.841C13.511 16.019 14.037 15.936 14.037 15.936L14.237 17.011L13.437 18.037L13.175 19.31H12.093L11.105 18.918L10.618 17.741L10.861 16.55L11.207 15.097Z" fill="#D2C281"/>
<path fill-rule="evenodd" clip-rule="evenodd" d="M13.3 15.149C13.3266 15.1572 13.3542 15.1616 13.382 15.162C13.352 15.188 13.286 15.244 13.312 15.392C13.338 15.54 13.422 15.726 13.352 15.84C13.4074 15.9009 13.4487 15.9733 13.473 16.052C13.517 16.179 13.53 16.296 13.817 16.314C13.7755 16.3393 13.7372 16.3695 13.703 16.404C13.703 16.404 13.903 16.578 14.003 16.738C14.107 16.734 14.382 16.648 14.382 16.648L14.439 16.688L14.56 16.636C14.56 16.636 14.446 16.592 14.53 16.316C14.607 16.072 14.677 16.085 14.683 16.066C14.689 16.049 14.74 15.792 14.74 15.689C14.779 15.554 14.81 15.145 14.81 15.145L14.727 14.242L14.261 13.959L13.882 13.594L13.525 14.267L13.289 14.501L13.271 15.084L13.3 15.149Z" fill="#E2C270"/>
<path fill-rule="evenodd" clip-rule="evenodd" d="M14.42 14.393C14.42 14.393 14.503 14.628 14.535 14.81C14.5461 14.7744 14.5522 14.7373 14.553 14.7C14.553 14.7 14.617 15.058 14.63 15.206C14.656 15.201 14.681 15.193 14.687 15.219C14.693 15.244 14.752 15.532 14.738 15.692C14.846 15.515 14.995 15.365 15.173 15.258C15.277 15.193 15.398 15.123 15.525 15.118C15.725 15.113 15.87 15.245 16.108 15.245C16.683 15.245 17.203 14.823 17.586 14.693C17.868 14.597 18.112 14.527 18.283 14.372C18.365 14.302 18.513 14.147 18.648 13.916C18.826 13.609 19.013 13.342 19.199 13.308C19.115 13.324 19.029 13.33 18.943 13.326C18.943 13.326 19 13.269 19.097 13.192C19.193 13.114 19.309 13.018 19.475 13.018C19.77 13.018 19.917 13.062 20.083 13.062C20.1721 13.0615 20.2606 13.0467 20.345 13.018C20.345 13.018 20.518 13.14 20.909 13.14C21.299 13.145 21.561 13.179 21.766 13.197C21.971 13.215 22.656 13.14 22.853 13.146C22.9811 13.1508 23.107 13.1814 23.223 13.236L22.589 11.393L20.311 9.401L18.954 10.361L16.867 12.449L14.847 13.197L14.426 13.671V14.393H14.42Z" fill="#CCB360"/>
<path fill-rule="evenodd" clip-rule="evenodd" d="M18.951 13.3361C18.951 13.3361 19.008 13.2801 19.104 13.2021C19.2 13.1241 19.316 13.0281 19.482 13.0281C19.777 13.0281 19.925 13.0721 20.09 13.0721C20.256 13.0671 20.352 13.0281 20.352 13.0281C20.352 13.0281 20.526 13.1501 20.916 13.1501C21.307 13.1551 21.569 13.1891 21.773 13.2071C21.978 13.2251 22.663 13.1501 22.861 13.1551C22.9892 13.1601 23.1151 13.191 23.231 13.2461L22.943 12.4151L22.61 11.7811L21.657 10.7371L20.505 10.0591C20.3732 10.021 20.2408 9.98467 20.108 9.95007L19.073 10.5771L18.133 13.0081L18.115 13.5201L18.723 13.8071C18.876 13.5511 19.045 13.3471 19.203 13.3211C19.06 13.3361 18.951 13.3361 18.951 13.3361Z" fill="#D5B457"/>
<path fill-rule="evenodd" clip-rule="evenodd" d="M18.938 13.51C18.848 13.515 18.773 13.497 18.752 13.432C18.674 13.215 18.612 13.184 18.547 13.184C18.482 13.184 18.394 13.324 18.342 13.336C18.29 13.349 18.229 13.176 18.229 13.176L18.172 13.15C18.172 13.15 17.838 13.367 17.602 13.624C17.367 13.88 16.981 14.315 16.807 14.393C16.634 14.47 16.038 14.496 15.834 14.54C15.6668 14.583 15.5102 14.66 15.374 14.766C15.343 14.799 15.464 14.836 15.483 14.869C15.501 14.9 15.283 14.887 15.265 14.92C15.252 14.946 15.316 15.094 15.348 15.169C15.4034 15.1415 15.4642 15.1265 15.526 15.125C15.726 15.12 15.871 15.252 16.109 15.252C16.684 15.252 17.204 14.83 17.587 14.7C17.87 14.604 18.113 14.534 18.284 14.379C18.366 14.309 18.514 14.154 18.649 13.923C18.747 13.765 18.843 13.618 18.939 13.509L18.938 13.51Z" fill="#D2B257"/>
<path fill-rule="evenodd" clip-rule="evenodd" d="M10.695 26.323C10.695 26.323 10.644 26.131 10.17 25.637C10.035 25.497 9.95201 25.381 9.86101 25.297C9.63601 25.085 9.50401 25.028 9.34401 24.907C8.99201 24.645 8.60801 24.645 8.31401 24.324C8.01801 24.004 7.67401 23.39 7.43501 22.763C7.20001 22.136 7.13501 21.937 7.13501 21.919C7.13501 21.901 7.20001 21.779 7.28301 21.797C7.36501 21.815 7.36501 21.976 7.38601 22.015C7.42801 22.078 7.47401 22.138 7.52601 22.193C7.64801 22.333 7.82101 22.501 7.90901 22.75C7.89101 22.538 7.81901 22.302 7.81901 22.302C7.81901 22.302 8.27401 22.59 8.66301 22.89C9.05301 23.19 9.21401 23.294 9.32801 23.485C9.44201 23.677 9.71101 24.182 9.84001 24.329C9.96901 24.477 11.735 25.034 11.735 25.034L12.575 25.66L12.991 26.574L12.665 27.086L12.039 27.22L11.021 26.765L10.695 26.323Z" fill="#D2B159"/>
<path fill-rule="evenodd" clip-rule="evenodd" d="M8.435 23.175C8.435 23.175 8.647 23.514 9.165 23.835C9.631 24.117 10.369 24.373 11.026 24.526C11.404 24.616 11.782 24.686 12.121 24.692C13.035 24.705 13.664 24.443 14.444 24.358C14.866 24.314 15.384 24.28 15.922 24.153C16.613 23.987 17.022 23.801 17.579 23.539C17.983 23.352 18.353 23.213 18.654 23.034C19.076 22.785 19.384 22.508 19.741 22.426C19.697 22.547 19.651 22.765 19.298 22.99C19.485 22.985 19.741 22.972 19.741 22.972C19.741 22.972 19.493 23.119 19.055 23.451C18.785 23.656 18.428 24.002 18.063 24.233C17.828 24.38 17.571 24.489 17.403 24.577C16.993 24.802 16.828 24.917 16.559 25.191C16.5935 25.1861 16.6285 25.1861 16.663 25.191C16.663 25.191 16.323 25.235 16.08 25.365C16.029 25.365 15.94 25.347 15.785 25.391C15.663 25.43 15.503 25.518 15.337 25.564C15.101 25.634 15.024 25.604 15.024 25.604L15.063 25.681C15.063 25.681 14.756 25.675 14.653 25.686C14.671 25.691 14.666 25.699 14.666 25.699C14.6481 25.702 14.6308 25.7081 14.615 25.717C14.5659 25.749 14.5118 25.7726 14.455 25.787C14.423 25.792 14.397 25.792 14.359 25.8C14.372 25.83 14.473 26.004 14.519 26.107C14.48 26.133 13.898 26.573 13.898 26.573C13.916 26.6013 13.9308 26.6315 13.942 26.663C13.96 26.72 13.968 26.803 13.986 26.843C14.03 26.92 14.056 26.933 14.056 26.933C14.056 26.933 13.986 26.946 13.864 26.977C13.761 27.003 13.634 27.047 13.454 27.073C13.399 27.08 13.344 27.084 13.289 27.085C13.315 27.142 13.429 27.36 13.219 27.611C13.009 27.862 12.944 27.899 12.879 28.059C12.8466 28.0344 12.8122 28.0126 12.776 27.994C12.706 27.964 12.61 27.917 12.576 27.854C12.557 27.937 12.531 28.019 12.499 28.098C12.434 28.271 12.339 28.442 12.32 28.571C12.25 28.494 12.121 28.341 11.942 28.372C11.764 28.403 11.622 28.647 11.59 28.717C11.59 28.673 11.56 28.639 11.552 28.691C11.4701 29.1325 11.2397 29.5326 10.899 29.825C10.894 29.703 10.894 29.434 10.881 29.345C10.83 29.397 10.767 29.472 10.394 29.633C10.029 29.793 10.087 29.954 10.087 29.954C10.087 29.954 10.057 29.698 10.253 29.428C10.453 29.159 10.573 29.032 10.573 29.012C10.5701 28.9911 10.5614 28.9714 10.548 28.955C10.522 28.929 10.47 28.898 10.47 28.877C10.501 28.864 10.81 28.717 10.791 28.411C10.7814 28.2183 10.7046 28.035 10.574 27.893C10.561 27.88 10.696 27.785 10.677 27.753C10.664 27.735 10.499 27.613 10.478 27.549C10.4829 27.5103 10.4916 27.4721 10.504 27.435C10.522 27.378 10.535 27.339 10.53 27.3C10.5069 27.2089 10.4719 27.1211 10.426 27.039C10.444 27.044 10.574 27.039 10.574 27.039C10.574 27.039 10.47 26.873 10.452 26.795C10.434 26.718 10.395 26.513 10.375 26.475C10.419 26.479 10.527 26.487 10.527 26.475C10.533 26.435 10.432 26.371 10.477 26.321C10.507 26.326 10.567 26.351 10.624 26.424C10.592 26.341 10.541 26.181 10.432 26.116C10.4934 26.0939 10.5587 26.0848 10.6237 26.0892C10.6888 26.0937 10.7522 26.1117 10.81 26.142C10.963 26.232 11.015 26.359 11.015 26.359C11.015 26.359 11.105 26.429 11.245 26.533C11.405 26.66 11.61 26.84 11.936 26.968C12.006 27.007 12.185 27.007 12.314 26.981C12.3703 26.9675 12.4242 26.9455 12.474 26.916C12.4923 26.9053 12.5118 26.8966 12.532 26.89C12.5041 26.8344 12.472 26.7809 12.436 26.73C12.48 26.73 12.532 26.735 12.532 26.735C12.532 26.735 12.563 26.665 12.423 26.53C12.454 26.5 12.493 26.479 12.493 26.427C12.449 26.421 12.371 26.357 12.353 26.331C12.379 26.313 12.418 26.253 12.463 26.235C12.423 26.204 12.327 26.075 12.283 26.062C12.3252 26.0464 12.366 26.0274 12.405 26.005C12.405 26.005 12.188 25.948 12.118 25.901C12.048 25.85 11.944 25.761 11.882 25.735C11.817 25.709 11.703 25.697 11.657 25.645C11.701 25.658 11.771 25.645 11.823 25.645C11.861 25.645 11.88 25.65 11.893 25.65C11.887 25.632 11.887 25.593 11.988 25.58C12.0367 25.5727 12.0839 25.5579 12.128 25.536C12.128 25.536 12.032 25.531 11.923 25.427C11.814 25.324 11.724 25.241 11.662 25.227C11.597 25.215 11.475 25.272 11.4 25.267C11.297 25.254 11.253 25.202 11.253 25.202C11.253 25.202 10.909 25.233 10.145 24.767C9.485 24.363 9.197 24.006 9.197 24.006C9.13538 23.9836 9.07582 23.9558 9.019 23.923C8.77 23.793 8.426 23.524 8.436 23.173L8.435 23.175Z" fill="#C2A44D"/>
<path fill-rule="evenodd" clip-rule="evenodd" d="M17.96 7.63503C18.02 7.65503 18.073 7.69103 18.113 7.73903C18.235 7.87903 18.313 8.14303 18.036 8.42503C18.144 8.46403 18.189 8.47603 18.284 8.46403C18.188 8.57803 17.971 8.82103 17.958 9.03403C17.945 9.20703 18.054 9.25903 18.054 9.25903C18.054 9.25903 17.888 9.45003 17.88 9.77103C17.959 9.68303 18.044 9.60103 18.136 9.52703C18.3393 9.37049 18.5513 9.2256 18.771 9.09303C18.7686 9.13842 18.7747 9.18387 18.789 9.22703C18.789 9.22703 19.123 8.95303 19.403 9.07503C19.53 9.13203 19.473 9.31003 19.473 9.31003C19.473 9.31003 19.646 9.24503 19.768 9.36703C19.89 9.48903 20.062 9.80303 20.15 9.92403C20.189 9.98103 20.29 10.09 20.393 10.258C20.535 10.494 20.653 10.743 20.746 11.001C20.751 10.867 20.784 10.657 21.168 10.789C21.551 10.924 21.986 11.206 22.351 11.762C22.716 12.318 22.806 12.945 22.99 13.184C23.176 13.414 23.368 13.798 23.381 13.958C23.394 14.118 23.324 14.636 23.707 16.037C23.816 15.602 23.982 14.637 23.982 14.637L24.072 13.785L24.176 11.149L21.424 8.86303L19.272 7.30103L17.872 7.43603L17.959 7.63603L17.96 7.63503Z" fill="#CAA13E"/>
<path fill-rule="evenodd" clip-rule="evenodd" d="M23.073 11.5581C23.073 11.5581 23.034 11.3021 22.387 10.8671C21.74 10.4371 21.235 10.4371 20.769 10.0721C20.411 9.78407 20.039 9.12407 19.796 8.90707C19.56 8.69207 19.522 8.07007 19.522 8.07007L20.316 7.40507L21.498 5.69607L22.498 4.59607L22.977 5.26107L23.642 6.04307L24.012 7.61307L24.147 9.90907L23.073 11.5581Z" fill="#B59544"/>
<path fill-rule="evenodd" clip-rule="evenodd" d="M23.873 14.3101C23.8926 13.9619 23.8495 13.6131 23.746 13.2801C23.576 12.7501 23.203 11.8071 23.029 11.4541C22.959 11.0631 23.011 11.0321 23.086 10.9881C23.161 10.9441 23.444 10.7831 23.598 10.2191C23.753 9.65507 24.233 9.63707 24.233 9.63707L24.528 9.41907L24.976 10.5401L25.366 11.5521L25.488 12.3271L25.578 12.9871L25.367 14.3821L24.318 15.3301L23.873 14.3101Z" fill="#C89D3A"/>
<path fill-rule="evenodd" clip-rule="evenodd" d="M9.24301 29.865V29.836C9.26449 29.8223 9.28343 29.8051 9.29901 29.785C9.31801 29.759 9.33101 29.728 9.34401 29.72C9.41088 29.6913 9.48332 29.678 9.55601 29.681C9.62101 29.694 9.79201 29.764 9.88201 29.759C10.069 29.754 10.286 29.611 10.63 29.676C11.148 29.772 11.27 30.124 11.57 30.323C11.775 30.463 11.987 30.401 12.018 30.401H12.088C12.101 30.401 12.197 30.292 12.248 30.298C12.352 30.303 12.362 30.388 12.427 30.393C12.58 30.411 12.875 30.316 13.023 30.355C13.0697 30.3697 13.1117 30.3962 13.1452 30.4319C13.1786 30.4676 13.2023 30.5113 13.214 30.5589C13.2256 30.6064 13.2249 30.6561 13.2117 30.7032C13.1986 30.7504 13.1736 30.7933 13.139 30.828C12.979 30.976 12.826 31.116 12.795 31.238C12.835 31.268 12.872 31.3 12.908 31.334C11.6273 31.0074 10.395 30.5129 9.24301 29.865Z" fill="#CEB052"/>
<path fill-rule="evenodd" clip-rule="evenodd" d="M23.029 24.692C23.029 24.692 23.433 24.153 23.573 23.887C23.713 23.612 23.13 20.13 23.13 20.13L24.3 16.296L24.269 15.048C24.269 15.048 24.326 13.896 24.461 13.396C24.621 13.684 25.121 14.031 25.23 14.214C25.28 13.862 25.455 13.119 25.429 12.327C25.525 12.474 25.755 13.958 25.755 13.958L25.985 14.958L26.285 16.018L26.62 17.14L26.82 17.914L26.933 18.1L27.029 18.427L27.119 18.779L27.381 19.605L27.535 20.283L27.656 21.513C27.683 21.607 27.702 21.703 27.713 21.8C27.719 21.935 27.695 22.012 27.695 22.036C27.695 22.059 27.739 22.331 27.721 22.536C27.695 22.74 27.695 22.901 27.535 23.048C27.375 23.194 27.273 24.073 27.273 24.073L26.986 23.881C26.986 23.881 27.043 23.62 26.908 23.381C26.8555 23.2872 26.7745 23.2125 26.6767 23.1679C26.5788 23.1233 26.4693 23.1111 26.364 23.133C26.217 23.164 25.922 23.21 25.826 23.293C25.736 23.376 25.513 23.633 25.308 23.749C25.052 23.903 24.635 23.915 24.413 23.967C24.187 24.017 23.939 24.171 23.677 24.35C23.4719 24.4827 23.2554 24.5968 23.03 24.691L23.029 24.692Z" fill="#CCA847"/>
<path fill-rule="evenodd" clip-rule="evenodd" d="M23.029 30.349L23.079 30.378C24.9184 29.5161 26.5666 28.2944 27.926 26.785C27.9183 26.3646 27.9 25.9444 27.871 25.525C27.827 25.103 27.858 24.674 27.845 24.425C27.7968 23.9144 27.7241 23.4065 27.627 22.903C27.557 22.641 27.423 22.512 27.402 22.512C27.384 22.517 27.275 23.004 27.275 23.126C27.275 23.249 27.249 23.543 27.249 23.618C27.231 23.613 27.223 23.567 27.223 23.548C27.197 23.613 27.166 23.727 27.153 23.74C27.14 23.753 27.172 23.631 27.153 23.605C27.135 23.579 27.103 23.592 27.109 23.528C27.112 23.4896 27.118 23.4514 27.127 23.414C27.127 23.414 27.05 23.528 26.993 23.818C26.936 24.105 26.936 24.113 26.915 24.138C26.897 24.17 26.794 24.273 26.788 24.312C26.783 24.382 26.884 24.452 26.892 24.491C26.897 24.556 26.802 24.856 26.77 25.003C26.74 25.15 26.752 25.438 26.72 25.585C26.693 25.72 26.668 25.797 26.58 25.855C26.644 25.867 26.706 25.885 26.706 25.885C26.706 25.885 26.796 26.269 26.566 26.595C26.484 26.709 26.463 26.761 26.375 26.865C26.201 27.055 26.067 27.274 26.054 27.415C26.0451 27.3734 26.0391 27.3313 26.036 27.289C26.036 27.289 25.766 27.602 25.652 27.781C25.505 28.011 25.3 27.998 25.242 28.055C25.185 28.112 25.172 28.215 25.192 28.298C25.14 28.311 25.044 28.329 24.979 28.528C24.9403 28.6456 24.858 28.744 24.749 28.803C24.627 28.873 24.479 28.893 24.405 28.912C24.469 28.93 24.495 28.93 24.526 28.951C24.487 29.015 24.309 29.116 24.109 29.246C23.91 29.368 23.814 29.546 23.765 29.663C23.714 29.771 23.638 29.841 23.517 29.854C23.567 29.885 23.644 29.958 23.682 29.981C23.625 29.994 23.529 29.994 23.356 30.141C23.175 30.292 23.113 30.336 23.03 30.349H23.029Z" fill="#C39D3C"/>
<path fill-rule="evenodd" clip-rule="evenodd" d="M19.427 31.5491C19.526 31.4791 19.633 31.4221 19.747 31.3791C20.15 31.2191 20.577 31.1881 20.745 31.1361C20.906 31.0851 21.033 31.0141 21.232 30.9761L21.218 31.1041C20.63 31.2881 20.033 31.4371 19.427 31.5491Z" fill="#D2BA6B"/>
<path fill-rule="evenodd" clip-rule="evenodd" d="M26.874 20.927C26.874 20.927 26.792 21.375 26.644 21.657C26.533 21.8777 26.4306 22.1025 26.337 22.331C26.337 22.243 26.348 22.155 26.367 22.069C26.181 22.178 25.728 22.439 25.6 22.556C25.478 22.665 25.274 22.856 25.222 22.946C25.344 22.59 25.47 22.269 25.492 22.121C25.305 22.256 24.435 22.973 23.982 23.447L22.571 24.588C22.408 24.676 22.241 24.755 22.068 24.823C21.825 24.927 21.538 25.015 21.326 25.098C21.383 24.945 21.473 24.81 21.6 24.681C21.735 24.554 22.138 24.117 22.2 23.913C22.258 23.701 22.27 23.573 22.195 23.395C22.125 23.413 21.965 23.421 21.856 23.452C21.748 23.483 21.631 23.6 21.631 23.6C21.631 23.6 21.714 23.126 21.892 22.678C21.758 22.683 21.527 22.722 21.527 22.722C21.527 22.722 21.848 22.183 22.397 21.808C22.229 21.844 22.0647 21.8953 21.906 21.961C21.585 22.095 21.233 22.295 20.971 22.403C21.119 22.199 22.154 20.721 22.771 19.343C23.385 17.968 23.615 17.616 23.749 16.879C23.819 16.514 23.801 15.974 23.819 15.491C23.837 15.011 23.897 14.582 23.858 14.295C24.018 14.494 24.619 15.055 24.64 16.312C24.658 17.567 24.065 19.263 23.436 20.177C23.59 20.221 23.988 20.273 24.396 19.562C24.806 18.852 24.8 18.654 24.948 18.359C24.966 18.506 24.961 18.558 24.961 18.558C24.961 18.558 25.557 17.836 25.839 16.927C25.896 17.317 26.064 17.662 25.799 18.379C25.564 19.027 25.256 19.185 25.256 19.185C25.256 19.185 25.409 19.159 25.634 19.024C25.673 19.12 25.665 19.229 25.73 19.267C25.795 19.306 25.883 19.371 25.896 19.433C25.966 19.33 26.074 19.197 26.108 19.099C26.082 19.304 26.064 20.199 26.159 20.655C26.359 20.637 26.563 20.624 26.703 20.265C26.607 20.616 26.607 20.829 26.672 21.129C26.778 21.057 26.874 20.927 26.874 20.927Z" fill="#C0993A"/>
<path fill-rule="evenodd" clip-rule="evenodd" d="M20.147 6.65698C20.147 6.65698 19.948 6.73998 19.609 6.73998C19.314 6.73998 19.397 6.62598 18.936 6.62598C18.226 6.62598 15.749 7.03598 15.314 7.02998C15.031 7.02398 16.266 7.15098 16.266 7.15098L19.423 7.19498L20.057 7.14498L20.292 6.66498L20.147 6.65698Z" fill="#A88F33"/>
<path fill-rule="evenodd" clip-rule="evenodd" d="M11.964 12.826C11.964 12.826 11.56 13.135 11.389 13.37C11.218 13.606 11.127 13.761 10.933 13.953C10.9787 13.9548 11.0244 13.9487 11.068 13.935C11.068 13.935 11.068 13.985 11.037 13.999C11.0638 13.996 11.0908 13.9991 11.1163 14.0079C11.1417 14.0167 11.1648 14.0311 11.184 14.05C11.127 14.082 10.972 14.237 11.094 14.42C11.184 14.56 11.376 14.573 11.376 14.573C11.376 14.573 11.332 14.7 11.516 14.687C11.912 14.669 12.354 14.496 12.559 14.54C12.764 14.591 12.88 14.61 13.025 14.861C13.179 15.109 13.312 15.148 13.312 15.148C13.312 15.148 13.403 14.918 13.382 14.574C13.4565 14.3883 13.4978 14.191 13.504 13.991L13.369 13L12.782 12.256L12.021 12.678L11.964 12.826Z" fill="#E3C571"/>
<path fill-rule="evenodd" clip-rule="evenodd" d="M12.686 12.679C12.686 12.679 12.743 12.813 12.981 12.826C12.955 12.883 12.955 12.891 12.963 12.935L12.976 13.044C13.0022 13.0314 13.026 13.0141 13.046 12.993C13.059 13.05 13.033 13.14 13.046 13.205C13.054 13.245 13.066 13.283 13.085 13.319C13.0888 13.31 13.0931 13.3014 13.098 13.293C13.103 13.28 13.148 13.433 13.276 13.549C13.276 13.531 13.28 13.513 13.289 13.498C13.2911 13.5302 13.3018 13.5613 13.32 13.588C13.3104 13.5835 13.3016 13.5774 13.294 13.57C13.294 13.57 13.307 13.98 13.377 14.192C13.3887 14.1783 13.3991 14.1636 13.408 14.148C13.408 14.135 13.403 14.262 13.39 14.352C13.372 14.443 13.385 14.57 13.385 14.57C13.4315 14.5335 13.4826 14.5032 13.537 14.48C13.615 14.448 13.742 14.352 13.82 14.14C13.865 14.02 13.9 13.896 13.923 13.77C13.948 13.818 13.966 13.87 13.975 13.923C13.98 13.988 14.102 13.954 14.102 13.954L14.127 13.672L14.281 13.032L14.421 12.637L15.094 11.588L16.31 10.651L17.372 10.895L18.267 9.67798L16.724 8.75098L15.264 8.90398L13.939 10.739L12.878 12.404L12.686 12.679Z" fill="#D8B65B"/>
<path fill-rule="evenodd" clip-rule="evenodd" d="M20.334 10.023C20.334 10.023 20.244 10.041 19.982 10.176C19.72 10.312 19.539 10.355 19.438 10.554C19.3791 10.6649 19.3421 10.7861 19.329 10.911C19.329 10.911 19.508 10.834 19.612 10.808C19.72 10.782 19.842 10.79 19.829 10.834C19.8166 10.8643 19.7994 10.8923 19.778 10.917C19.778 10.917 19.983 10.911 19.978 11.012C19.9752 11.1046 19.9483 11.1949 19.9 11.274C19.86 11.325 19.7 11.401 19.682 11.46C19.638 11.582 19.7 11.587 19.677 11.686C19.659 11.781 19.573 11.968 19.294 12.294C19.006 12.62 18.884 12.851 18.884 12.851C18.884 12.851 18.744 12.589 18.672 12.364C18.621 12.39 18.346 12.542 18.346 12.542L17.709 10.324L17.722 10.176C17.722 10.176 17.779 10.106 17.792 9.97601C17.696 9.94601 17.682 9.92001 17.556 9.79801C17.429 9.67701 17.326 9.52901 17.113 9.42801C17.083 9.37101 17.043 9.29301 16.888 9.26201C16.733 9.23101 16.64 9.20501 16.64 9.20501C16.64 9.20501 16.722 9.17501 16.761 9.11001C16.665 9.12201 16.588 9.15401 16.378 9.14801C16.166 9.14301 16.142 9.13501 16.026 9.15401C15.91 9.17201 15.77 9.22401 15.718 9.04401C15.661 9.00101 15.539 9.04001 15.436 9.19201C15.332 9.34501 15.296 9.46701 15.096 9.52601C15.0822 9.61401 15.0517 9.69854 15.006 9.77501C14.949 9.87101 14.858 9.96601 14.736 10.109C14.545 10.334 14.576 10.704 14.27 10.986C13.962 11.269 14.322 10.205 14.322 10.205L14.814 9.02701L16.214 7.65701L18.389 7.51001L18.601 8.63601L19.663 9.00101L20.333 10.024L20.334 10.023Z" fill="#D3AE4D"/>
<path fill-rule="evenodd" clip-rule="evenodd" d="M20.678 10.271L19.764 8.95304L19.124 8.46104C19.124 8.46104 18.669 7.62304 18.638 7.59704C18.612 7.57904 18.182 7.53204 17.908 7.51404L17.959 7.64104C18.019 7.66104 18.072 7.69604 18.113 7.74404C18.234 7.88404 18.313 8.14804 18.035 8.43004C18.144 8.47004 18.189 8.48204 18.284 8.47004C18.188 8.58304 17.97 8.82704 17.957 9.03904C17.944 9.21204 18.053 9.26404 18.053 9.26404C18.053 9.26404 17.887 9.45604 17.88 9.77604C17.958 9.68804 18.044 9.60604 18.136 9.53304C18.327 9.37904 18.591 9.20604 18.77 9.09804C18.7676 9.14344 18.7737 9.18888 18.788 9.23204C18.788 9.23204 19.122 8.95804 19.403 9.07904C19.529 9.13604 19.473 9.31504 19.473 9.31504C19.473 9.31504 19.646 9.25004 19.768 9.37204C19.889 9.49404 20.063 9.80704 20.151 9.92904C20.19 9.98604 20.291 10.095 20.394 10.263C20.535 10.498 20.654 10.747 20.746 11.006C20.751 10.902 20.772 10.757 20.951 10.757L20.678 10.271Z" fill="#CAA13E"/>
<path fill-rule="evenodd" clip-rule="evenodd" d="M6.97701 14.0151C6.97701 14.0151 6.91301 13.8551 6.97701 13.5411C7.04201 13.2281 7.14301 13.0811 7.17701 12.6191C7.21001 12.1591 7.51101 11.5841 7.51101 11.5841L8.34101 11.2061L8.92901 11.3661L9.10301 12.1541L8.36001 12.5641C8.36001 12.5641 8.32001 12.7371 8.11101 12.8761C7.90101 13.0161 7.61101 13.1251 7.54101 13.2671C7.49945 13.3545 7.4692 13.4469 7.45101 13.5421C7.45101 13.5421 7.23901 13.4981 7.11101 13.6371C6.97701 13.7801 6.98201 13.9071 6.97701 14.0151Z" fill="#F4EFC8"/>
<path fill-rule="evenodd" clip-rule="evenodd" d="M8.65501 13.805C8.65501 13.805 8.58501 13.849 8.53301 13.959C8.48201 13.876 8.36001 13.384 8.35501 12.941C8.34901 12.498 8.32301 12.389 8.42501 12.236C8.52801 12.084 8.92901 11.923 8.87201 11.648C8.81501 11.387 8.57701 11.278 8.28501 11.353C8.08001 11.404 7.92701 11.84 7.71501 12.057C7.55501 12.223 7.36301 12.197 7.31101 12.287C7.24101 12.409 7.30601 12.531 7.28501 12.609C7.23703 12.7276 7.17455 12.8397 7.09901 12.943C6.86301 13.282 6.46501 13.761 6.41301 14.19C6.43101 13.947 6.41801 13.942 6.48301 13.673L6.44301 13.608L6.70001 12.769L6.86501 12.078L7.23501 10.92L7.88801 9.73698L8.52201 9.02698L9.18201 9.07198L9.26001 10.064L9.63801 11.925L10.433 12.904L9.15901 13.761L8.65501 13.805Z" fill="#EBCC73"/>
<path fill-rule="evenodd" clip-rule="evenodd" d="M9.051 14.157C9.051 14.157 8.942 14.183 8.903 14.162C8.864 14.142 8.826 14.118 8.839 14.092C8.851 14.066 8.921 14.022 8.921 14.002C8.92243 13.9832 8.91657 13.9647 8.90465 13.9501C8.89273 13.9356 8.87566 13.9262 8.857 13.924C8.797 13.916 8.77901 13.954 8.77901 13.954C8.77901 13.954 8.722 13.911 8.676 13.904C8.7032 13.9004 8.73058 13.8984 8.758 13.898C8.68651 13.8658 8.61072 13.8443 8.533 13.834C8.598 13.795 8.725 13.681 8.808 13.681C8.89 13.681 8.942 13.668 8.929 13.624C8.916 13.58 8.852 13.515 8.782 13.489C8.808 13.459 8.826 13.412 8.764 13.285C8.699 13.158 8.72401 13.072 8.74601 13.041C8.76401 13.003 8.828 12.933 8.86 12.889C8.89 12.845 8.917 12.785 8.968 12.754C8.994 12.736 9.077 12.703 9.16 12.671C9.25 12.641 9.326 12.601 9.377 12.641C9.434 12.679 9.408 12.731 9.408 12.731C9.408 12.731 9.588 12.666 9.748 12.749C9.908 12.826 10.299 12.876 10.299 12.876L10.439 13.158L9.512 13.953L9.129 14.145L9.052 14.157H9.051Z" fill="#E5C66B"/>
<path fill-rule="evenodd" clip-rule="evenodd" d="M10.338 12.858C10.338 12.858 10.05 13.049 9.98601 13.119C10.024 13.124 10.089 13.15 10.063 13.189C10.032 13.228 9.84601 13.362 9.74201 13.489C9.646 13.601 9.56281 13.7234 9.49401 13.854C9.45401 13.924 9.16001 14.129 9.05901 14.154C9.27101 14.154 9.69901 13.894 9.85901 13.894C9.85301 13.971 9.90301 14.059 9.99301 14.067C10.083 14.074 10.345 14.124 10.697 13.907C11.05 13.694 10.933 13.536 11.081 13.432C11.363 13.246 11.477 13.08 11.632 12.977C11.787 12.873 11.868 12.85 11.868 12.85C11.868 12.85 11.873 12.772 11.918 12.78C11.9308 12.7813 11.9429 12.7861 11.9532 12.7938C11.9634 12.8016 11.9713 12.812 11.976 12.824C11.976 12.824 12.246 12.632 12.59 12.581C12.5818 12.5771 12.5754 12.5703 12.572 12.562C12.572 12.562 12.598 12.549 12.603 12.536C12.603 12.536 12.621 12.511 12.634 12.524C12.647 12.536 12.665 12.632 12.691 12.671C12.748 12.645 12.857 12.401 12.857 12.401L13.119 11.654V10.97L12.914 11.009L11.378 11.661L10.446 12.627L10.337 12.857L10.338 12.858Z" fill="#E6BD62"/>
<path fill-rule="evenodd" clip-rule="evenodd" d="M14.76 9.50507C14.843 9.48485 14.9225 9.4525 14.996 9.40907C14.965 9.49207 14.965 9.58207 14.83 9.77907C14.696 9.97607 14.69 10.0041 14.582 10.2091C14.473 10.4211 14.46 10.7271 14.357 10.8611C14.4033 10.8385 14.4529 10.8236 14.504 10.8171C14.504 10.8171 14.401 10.9081 14.357 11.0041C14.312 11.0991 14.235 11.2991 14.043 11.4211C13.852 11.5431 13.608 11.6201 13.347 11.9071C13.085 12.1901 12.817 12.5471 12.681 12.6751C12.751 12.5541 12.847 12.3101 12.873 12.1501C12.899 11.9901 12.868 11.7981 12.912 11.5861C12.956 11.3731 12.956 11.2201 13.168 10.8501C13.38 10.4801 13.742 9.19307 13.742 9.19307L14.524 8.94507L14.76 9.50507Z" fill="#B6933F"/>
<path fill-rule="evenodd" clip-rule="evenodd" d="M14.195 9.03095C14.195 9.03095 13.96 9.37096 13.895 9.67096C13.83 9.97096 13.89 9.94496 13.851 10.093C13.8279 10.1828 13.8279 10.2771 13.851 10.367C13.9326 10.2356 14.0444 10.1256 14.177 10.046C14.4 9.91096 14.581 9.81596 14.689 9.70196C14.798 9.57996 14.889 9.38096 15.124 9.22796C15.028 9.21496 14.894 9.17095 14.868 9.17695C14.964 9.06695 15.251 8.90195 15.541 8.70295C15.828 8.49795 15.811 8.41496 16.276 8.21096C16.123 8.23696 16.051 8.19796 15.924 8.21096C15.975 8.10196 16.154 8.05095 16.334 7.87095C16.513 7.69295 16.22 7.42896 16.22 7.42896L14.854 8.25495L14.194 9.03196L14.195 9.03095Z" fill="#C49937"/>
<path fill-rule="evenodd" clip-rule="evenodd" d="M10.49 8.41502L10.521 8.16602L10.912 7.54002L11.322 6.44002V4.93402L11.29 4.06402L11.355 3.49402L11.405 3.31402L11.456 3.24402L11.79 3.41702L12.251 4.04302L12.295 5.25302L11.847 7.16102L10.568 8.55602L10.49 8.41502Z" fill="#DFC068"/>
<path fill-rule="evenodd" clip-rule="evenodd" d="M11.508 3.17507C11.508 3.17507 11.303 3.18007 11.259 4.03207C11.216 4.88307 11.195 5.33207 11.164 5.75307C11.132 6.17507 11.06 6.43207 11.024 6.68007C10.987 6.92907 10.967 7.26807 10.85 7.47507C10.8 7.57107 10.69 7.87107 10.433 8.09607C10.2001 8.28558 9.93575 8.43281 9.65201 8.53107C9.53801 8.55707 8.96001 8.61407 8.72501 8.74407C8.64201 8.78807 8.49901 8.84007 8.34201 8.98707C7.91821 9.38729 7.56939 9.86007 7.31201 10.3831C6.85001 11.2911 6.38901 13.8571 6.38901 13.8571L6.49301 13.6841C6.49301 13.6841 6.50601 13.4541 6.73601 13.0491C6.96201 12.6451 6.89701 12.1921 7.21001 11.4191C7.33201 11.1231 7.48501 10.7391 7.67101 10.4141C7.96601 9.88307 8.32301 9.42707 8.68301 9.17907C9.27101 8.77507 9.91801 8.68707 9.91801 8.68707L10.615 8.22607C10.615 8.22607 10.737 7.99007 10.897 7.72107C11.122 7.34307 11.409 6.92107 11.472 6.30807C11.568 5.39807 11.337 4.80307 11.35 4.26507C11.363 3.72707 11.368 3.33007 11.477 3.23507C11.586 3.13907 11.508 3.17507 11.508 3.17507Z" fill="#A88F33"/>
<path fill-rule="evenodd" clip-rule="evenodd" d="M11.508 7.24005C11.508 7.24005 11.815 6.48305 11.956 5.81305C11.982 5.67805 12.033 5.54305 12.046 5.43505C12.111 4.80105 12.129 4.53905 12.046 4.19205C11.982 3.93605 11.733 3.70505 11.604 3.52605C11.477 3.34005 11.417 3.27005 11.444 3.23105C11.472 3.19959 11.5066 3.17468 11.5453 3.15809C11.584 3.1415 11.6259 3.13363 11.668 3.13505C11.7726 3.13798 11.8755 3.1622 11.9704 3.20621C12.0653 3.25023 12.1502 3.31312 12.22 3.39105C12.42 3.62105 12.577 4.40405 12.577 4.40405L12.743 5.43605L13.165 6.73605L11.508 7.24005Z" fill="#C99E3D"/>
<path fill-rule="evenodd" clip-rule="evenodd" d="M14.395 6.45208C14.395 6.45208 14.338 6.47808 14.235 6.45208C14.2396 6.49448 14.2323 6.53733 14.2139 6.57583C14.1956 6.61432 14.1668 6.64696 14.131 6.67008C14.021 6.62608 13.004 6.71408 13.004 6.71408C13.004 6.71408 12.53 6.63108 12.383 6.00408C12.279 5.58708 12.46 5.01308 12.401 4.63408C12.311 4.07808 12.183 3.96908 12.171 3.79608C12.157 3.62308 12.145 3.57908 12.145 3.47008C12.087 3.45708 12.054 3.43908 11.997 3.43908C11.984 3.38808 12.01 3.34308 11.953 3.25208C11.984 3.26508 12.196 3.29208 12.445 3.52708C12.65 3.71808 12.65 3.78808 12.681 3.82708C12.719 3.86608 13.033 4.13408 13.167 4.40208C13.302 4.66908 13.563 5.52208 13.623 5.66208C13.641 5.72008 13.68 5.77708 13.777 5.90608C13.927 6.09208 14.147 6.40108 14.395 6.45208Z" fill="#B58634"/>
<path fill-rule="evenodd" clip-rule="evenodd" d="M12.717 3.83997C12.874 4.09297 13.015 4.35597 13.139 4.62697C13.292 4.97097 13.382 5.25397 13.574 5.48397C13.47 5.18397 13.287 4.59397 13.178 4.38397C13.056 4.16197 12.807 3.92297 12.717 3.83997Z" fill="#A88F33"/>
<path fill-rule="evenodd" clip-rule="evenodd" d="M10.956 8.09607C10.956 8.09607 10.695 8.16107 10.208 8.41707C10.048 8.50007 9.89501 8.57007 9.74801 8.63507C9.38503 8.80345 9.00998 8.94451 8.62601 9.05707C8.65201 9.08807 8.66601 9.10107 8.66601 9.10107C8.66601 9.10107 8.66601 9.22807 8.73601 9.30107C8.69601 9.33907 8.17801 9.69107 8.33101 10.8691C8.43501 10.8301 8.55601 10.7791 8.57401 10.7791C8.60601 10.7841 8.61401 10.8691 8.65201 10.8691C8.69101 10.8691 8.81801 10.8181 8.95201 10.6441C8.94701 10.7141 8.87001 11.4181 9.28701 11.8921C9.36401 11.8021 9.56101 11.5011 9.56101 11.5011L9.56601 11.4051C9.56601 11.4051 9.58401 11.0711 9.69301 10.7651C9.76663 10.5702 9.87544 10.3906 10.014 10.2351L11.122 8.65307L10.956 8.09607Z" fill="#E6C367"/>
<path fill-rule="evenodd" clip-rule="evenodd" d="M9.92001 10.42C9.86946 10.4555 9.81383 10.4831 9.75501 10.502C9.73709 10.4149 9.73752 10.3249 9.75629 10.238C9.77506 10.151 9.81174 10.069 9.86401 9.99698C10.043 9.73598 10.434 9.39699 10.542 9.12699C10.612 8.95299 10.581 8.51798 11.202 7.96198C11.824 7.40498 12.067 7.21298 12.067 7.21298L13.072 6.70898L14.307 7.19498L13.693 9.59998L13.217 10.726L11.322 10.369L9.92101 10.419L9.92001 10.42Z" fill="#DCBA5A"/>
<path fill-rule="evenodd" clip-rule="evenodd" d="M10.644 9.76604L10.88 9.47104V9.26104C10.88 9.26104 11.141 9.19103 11.423 8.90403C11.705 8.61703 12.096 8.06504 12.441 8.09904C12.785 8.13804 12.819 8.84703 12.831 9.04703C12.845 9.24603 12.889 9.69904 12.959 9.94204C13.036 10.186 12.119 11.107 12.119 11.107L11.497 11.581L10.644 9.76604Z" fill="#E9CE77"/>
<path fill-rule="evenodd" clip-rule="evenodd" d="M11.373 12.223C11.373 12.223 11.565 11.923 11.424 11.858C11.507 11.672 11.66 11.475 11.66 11.475C11.66 11.475 11.769 11.205 12.12 10.875C12.473 10.543 12.69 10.323 12.747 10.1C12.7821 9.95515 12.8012 9.80693 12.804 9.65796C12.8422 9.6888 12.883 9.71624 12.926 9.73996C12.983 9.76596 13.252 9.98896 13.214 10.437C13.174 10.885 13.009 11.071 13.009 11.071C13.009 11.071 12.849 11.231 12.734 11.315C12.613 11.397 12.569 11.493 12.364 11.501C12.385 11.4842 12.4087 11.471 12.434 11.462C12.434 11.462 12.222 11.436 12.108 11.54C11.994 11.643 11.751 11.962 11.63 12.058C11.508 12.135 11.373 12.223 11.373 12.223Z" fill="#CDAE50"/>
<path fill-rule="evenodd" clip-rule="evenodd" d="M19.982 7.18701C19.676 7.07562 19.3544 7.01286 19.029 7.00101C18.485 6.98301 17.69 7.01401 16.911 7.01901C16.072 7.02401 15.311 6.73201 14.255 6.68001C14.082 6.57601 13.641 6.12301 12.264 7.08401C12.347 7.07901 13.264 6.87201 13.582 7.27001C13.902 7.66701 13.812 8.34001 13.768 8.50001C13.685 8.85701 13.416 9.37801 13.308 9.74301C13.198 10.108 13.224 10.3 13.147 10.556C13.069 10.812 12.898 10.939 12.999 11.234C13.134 11.151 13.204 11.151 13.429 10.646C13.654 10.142 13.608 9.78201 13.981 9.35401C14.346 8.92401 14.953 8.33701 15.184 8.18901C15.415 8.04201 17.25 7.08901 19.172 7.99801C19.635 7.94801 19.982 7.18701 19.982 7.18701Z" fill="#D2A83E"/>
<path fill-rule="evenodd" clip-rule="evenodd" d="M13.038 6.83496C13.036 6.81549 13.0317 6.79635 13.025 6.77796C13.007 6.74031 12.9834 6.70558 12.955 6.67496C12.955 6.67496 12.499 6.59196 12.269 6.61796C11.865 6.66196 11.5 7.16096 11.329 7.41796C11.159 7.67396 10.946 8.06996 10.716 8.27496C10.7185 8.25502 10.7139 8.23482 10.703 8.21796C10.703 8.21796 10.716 8.23596 10.69 8.26196C10.664 8.28796 10.664 8.29996 10.677 8.31196L10.716 8.35196C10.729 8.35196 11.086 8.19096 11.573 7.73696C12.091 7.26296 12.487 7.01996 12.693 6.93696C12.804 6.88996 12.92 6.85596 13.038 6.83496Z" fill="#C29637"/>
<path fill-rule="evenodd" clip-rule="evenodd" d="M21.877 4.88904C21.877 4.88904 21.794 4.99204 21.69 5.10604C21.46 5.34904 21.16 5.62404 20.903 5.90604C20.66 6.17604 20.386 6.38504 20.077 6.73704C19.769 7.08904 19.412 7.48004 19.321 7.59404C19.2392 7.71144 19.1886 7.84771 19.174 7.99004C19.13 7.95904 19.078 7.92504 19.078 7.92504C19.0999 7.9657 19.126 8.00392 19.156 8.03904C19.221 8.13004 19.321 8.24404 19.373 8.31404C19.437 8.40204 19.483 8.50304 19.508 8.60904C19.538 8.61404 19.738 8.65304 19.987 8.24404C20.235 7.83404 20.561 7.38704 20.561 7.38704L21.079 6.61704L21.406 5.96604L21.816 5.23604L21.877 4.88904Z" fill="#AC8132"/>
<path fill-rule="evenodd" clip-rule="evenodd" d="M22.408 4.36597C22.408 4.36597 22.094 4.62197 21.973 4.77597C21.851 4.92897 21.563 5.33197 21.563 5.33197L21.667 5.31897L22.192 4.85297L22.397 4.48797L22.408 4.36597Z" fill="#A88F33"/>
<path fill-rule="evenodd" clip-rule="evenodd" d="M22.312 24.94C22.312 24.94 22.307 24.728 22.426 24.601C22.547 24.474 22.856 24.288 23.156 23.589C23.456 22.889 23.49 22.732 23.49 22.732C23.49 22.732 22.951 23.192 22.62 23.302C22.697 23.141 22.741 23.027 22.78 22.944C22.736 22.905 22.55 22.861 22.531 22.841C22.635 22.737 22.691 22.483 22.901 22.315C23.171 22.11 23.663 21.758 24.045 21.445C24.427 21.131 25.179 20.401 25.275 20.189C25.332 20.272 25.345 20.323 25.345 20.323C25.345 20.323 24.967 20.816 24.77 21.129C24.597 21.398 24.61 21.551 24.61 21.551L24.967 21.397C24.967 21.397 25.07 21.78 24.602 22.363C24.807 22.285 24.889 22.332 25.006 22.267C24.814 22.389 24.55 22.555 24.301 23.01C24.058 23.466 23.727 23.997 23.168 24.328C22.624 24.678 22.31 24.938 22.31 24.938L22.312 24.94Z" fill="#A67A2E"/>
<path fill-rule="evenodd" clip-rule="evenodd" d="M20.909 7.45704C20.909 7.45704 20.696 7.89904 20.665 8.24404C20.66 8.32704 20.639 8.39204 20.639 8.48704C20.634 8.79504 20.657 9.14004 20.589 9.30004C20.562 9.23504 20.549 9.19104 20.523 9.16604C20.484 9.27404 20.414 9.61304 20.357 9.74004C20.3001 9.50815 20.2742 9.26974 20.28 9.03104C20.285 8.69104 20.293 8.62704 20.293 8.55704C20.28 8.66104 20.21 8.80104 20.184 8.88304C20.145 8.81304 20.101 8.72304 20.049 8.64804C20.019 8.69904 19.979 8.77504 19.946 8.81404C19.9336 8.73784 19.9249 8.66108 19.92 8.58404C19.915 8.44904 19.907 8.27504 19.915 8.23904C19.928 8.16904 20.037 7.89504 20.267 7.64304C20.541 7.34304 20.824 6.76604 20.907 6.58704C20.989 6.40804 21.341 5.66504 21.341 5.66504H21.611L21.22 6.55604C21.22 6.55604 20.984 7.04304 20.862 7.22204C20.741 7.40004 20.484 7.91304 20.37 8.11204C20.453 8.00404 20.523 7.94704 20.606 7.84304C20.686 7.77004 20.909 7.45704 20.909 7.45704Z" fill="#8C6228"/>
<path fill-rule="evenodd" clip-rule="evenodd" d="M22.413 4.33203C22.3689 4.46732 22.2993 4.59291 22.208 4.70203C22.048 4.89403 21.703 5.15003 21.535 5.35403C21.381 5.55403 21.075 6.09803 21.214 6.74203C21.264 6.60203 21.361 6.32503 21.618 6.01203C21.874 5.69903 22.148 5.33903 22.283 5.05903C22.418 4.77703 22.436 4.55503 22.436 4.55503L22.487 4.49003L22.456 4.34203L22.413 4.33203Z" fill="#CBA94C"/>
<path fill-rule="evenodd" clip-rule="evenodd" d="M27.656 21.505C27.656 21.505 27.552 21.223 27.521 20.966C27.49 20.71 27.572 20.659 27.477 20.366C27.42 20.187 27.317 20.212 27.29 20.187C27.265 20.162 27.246 19.892 27.252 19.744C27.2597 19.6026 27.2493 19.4608 27.221 19.322C27.181 19.292 27.156 19.265 27.099 19.074C27.034 18.882 27.003 18.786 26.972 18.729C26.941 18.673 26.85 18.621 26.85 18.564C26.85 18.45 26.954 18.39 26.954 18.359C26.949 18.294 26.871 18.346 26.85 18.328C26.824 18.297 26.915 18.11 26.881 18.085C26.868 18.072 26.778 18.18 26.754 18.149C26.728 18.119 26.697 17.81 26.651 17.606C26.607 17.406 26.561 17.261 26.555 17.202C26.55 17.145 26.198 16.14 26.112 15.897C26.0434 15.6912 25.9856 15.4819 25.939 15.27C25.913 15.149 25.895 14.9 25.882 14.926C25.869 14.952 25.877 15.079 25.856 15.074C25.838 15.068 25.773 14.626 25.753 14.556C25.735 14.486 25.626 14.249 25.599 14.076C25.573 13.903 25.516 13.45 25.477 13.142C25.438 12.834 25.42 12.707 25.42 12.63C25.4267 12.4415 25.4167 12.2528 25.39 12.066C25.3386 11.7415 25.2569 11.4224 25.146 11.113C24.972 10.678 24.512 9.56505 24.429 9.28805C24.429 9.21805 24.519 9.25705 24.519 9.25705C24.519 9.25705 24.745 9.82105 24.911 10.256C25.071 10.691 25.224 11.074 25.263 11.113C25.293 11.152 25.537 11.579 25.646 12.278C25.755 12.978 25.793 13.622 25.858 14.051C25.889 14.256 25.915 14.474 25.98 14.691C26.05 14.927 26.158 15.17 26.301 15.543C26.423 15.856 26.513 16.118 26.562 16.343C26.619 16.63 26.619 16.848 26.653 16.99C26.684 17.112 26.731 17.355 26.84 17.707C26.948 18.059 27.109 18.512 27.217 18.794C27.43 19.359 27.525 19.83 27.557 20.081C27.585 20.341 27.682 21.236 27.656 21.505Z" fill="#A88F33"/>
<path fill-rule="evenodd" clip-rule="evenodd" d="M22.426 4.30002L22.413 4.33202C22.413 4.33202 22.452 4.34502 22.443 4.39702C22.444 4.46702 22.44 4.53902 22.431 4.60902C22.418 4.69902 22.392 4.76902 22.387 4.82602C22.387 4.94802 22.405 5.08802 22.233 5.43502C22.183 5.53102 22.151 5.61302 22.125 5.67002C22.0947 5.75324 22.0489 5.82994 21.99 5.89602C22.08 5.84402 22.407 5.64002 22.573 5.67002C22.4157 5.75841 22.2801 5.8807 22.176 6.02802C22.2779 6.04592 22.3821 6.04592 22.484 6.02802C22.771 5.98402 23.092 5.88002 23.374 5.90102C23.682 5.91902 23.561 5.53102 23.561 5.53102L23.205 4.74902L22.532 4.27502L22.426 4.30002Z" fill="#BE9C44"/>
<path fill-rule="evenodd" clip-rule="evenodd" d="M24.181 10.157C24.181 10.157 23.881 9.85701 23.759 8.82601C23.637 7.79001 23.663 6.26601 23.663 6.26601L23.42 5.67101C23.42 5.67101 23.369 5.27401 23.241 5.12701C23.114 4.98001 22.863 4.73101 22.749 4.60901C22.635 4.48801 22.506 4.32201 22.429 4.29601C22.467 4.23101 22.641 3.86601 23.306 3.86101C23.971 3.85601 24.176 4.22601 24.246 4.36101C24.316 4.49501 24.629 5.07801 24.746 6.18701C24.854 7.29501 24.859 7.37701 24.841 7.76101C24.8015 8.1753 24.733 8.5863 24.636 8.99101C24.526 9.43601 24.403 9.93201 24.181 10.157Z" fill="#A17C34"/>
<path fill-rule="evenodd" clip-rule="evenodd" d="M23.24 11.04C23.34 11.047 23.44 11.025 23.527 10.975C23.622 10.97 23.969 11.015 24.236 10.675C24.254 10.753 24.301 10.962 24.179 11.149C24.244 11.084 24.339 11.059 24.352 11.04C24.358 11.136 24.448 11.43 24.065 12.148C24.168 12.034 24.29 12.039 24.399 12.026C24.404 12.161 24.477 12.614 24.285 12.858C24.158 13.023 23.951 12.971 23.951 12.971C23.954 12.9351 23.954 12.899 23.951 12.863C23.946 12.793 23.92 12.723 23.938 12.676C23.8377 12.6305 23.7463 12.5676 23.668 12.49C23.444 12.277 23.151 11.915 23.13 11.646C23.105 11.346 23.374 11.281 23.374 11.281C23.3514 11.2609 23.3322 11.2372 23.317 11.211C23.304 11.167 23.291 11.097 23.239 11.041L23.24 11.04Z" fill="#8C6228"/>
<path fill-rule="evenodd" clip-rule="evenodd" d="M21.242 7.78299C21.242 7.78299 21.229 7.76499 21.16 7.84799C21.173 7.76499 21.186 7.68799 21.19 7.61199C21.2234 7.54258 21.2665 7.47827 21.318 7.42099C21.278 7.49799 21.253 7.56799 21.253 7.56799C21.253 7.56799 21.349 7.38899 21.489 7.28099C21.584 7.20299 21.706 7.16699 21.758 7.09399C21.815 7.01699 21.802 7.00399 21.815 6.99099C21.815 6.99099 21.942 6.90799 22.135 6.66399C22.162 6.63399 22.201 6.59999 22.226 6.56899C22.3175 6.52992 22.4076 6.48756 22.496 6.44199C22.623 6.37199 22.765 6.27599 22.853 6.23699C23.026 6.15899 23.21 6.16699 23.296 6.04499C23.36 6.02699 23.43 5.83299 23.417 5.66699C23.513 5.70699 24.005 6.01199 24.173 6.67999C24.295 7.15299 24.078 7.88299 23.987 8.23599C23.897 8.58799 23.883 8.84899 23.757 9.00999C23.596 9.22199 23.078 9.52199 22.951 9.66999C22.843 9.79199 22.516 10.1 22.529 10.322C22.542 10.488 22.747 10.578 22.791 10.61C22.835 10.641 22.835 10.68 22.918 10.66C23.001 10.642 23.031 10.604 23.065 10.604C23.104 10.609 23.104 10.617 23.122 10.617C23.1351 10.6167 23.1482 10.615 23.161 10.612C23.161 10.612 23.148 10.847 22.597 10.919C22.557 10.924 22.519 10.937 22.47 10.945C22.535 10.914 22.573 10.914 22.643 10.818C22.566 10.805 22.343 10.792 22.286 10.774C22.3207 10.7171 22.3635 10.6656 22.413 10.621C22.457 10.582 22.408 10.57 22.369 10.59C22.302 10.635 22.239 10.685 22.177 10.737C22.112 10.794 22.055 10.872 21.952 10.942C21.9325 10.8659 21.9311 10.7864 21.9478 10.7096C21.9644 10.6329 21.9987 10.5611 22.048 10.5C22.017 10.505 21.957 10.595 21.9 10.577C21.8897 10.4827 21.8958 10.3873 21.918 10.295C21.949 10.178 22.118 9.97399 22.118 9.97399L22.93 8.52099L23.104 7.42099L21.242 7.78299Z" fill="#92723A"/>
<path fill-rule="evenodd" clip-rule="evenodd" d="M21.199 7.84503C21.199 7.84503 21.155 7.87603 21.243 7.93503C21.23 7.95403 21.199 8.01903 21.16 8.06303C21.116 8.11303 21.069 8.14603 21.05 8.19003C21.012 8.28003 20.981 8.34203 20.981 8.38103C20.981 8.42103 20.968 8.66903 20.859 8.82903C20.821 8.88603 20.776 8.98203 20.745 9.04703C20.681 9.16003 20.624 9.25103 20.611 9.30303C20.585 9.39303 20.567 9.64203 20.567 9.64203L20.645 9.54603C20.613 9.61103 20.58 9.68003 20.531 9.73203C20.561 9.70603 20.652 9.64203 20.805 9.50703C21.017 9.32803 21.349 9.02803 21.753 8.79003C21.631 8.83403 21.527 8.83403 21.445 8.84703C21.509 8.78303 22.092 8.09903 22.397 8.03403C22.4156 8.0105 22.4248 7.98095 22.423 7.95103L22.162 7.92603L21.631 8.03903L21.553 7.62903L21.199 7.84503Z" fill="#B18E3E"/>
<path fill-rule="evenodd" clip-rule="evenodd" d="M22.043 10.175C22.043 10.175 21.973 10.245 21.908 10.419C21.8582 10.3669 21.8155 10.3084 21.781 10.245C21.685 10.085 21.538 9.88 21.193 9.997C21.188 9.887 21.18 9.831 21.193 9.753C21.25 9.74 21.423 9.601 21.597 9.396C21.719 9.256 21.833 9.096 21.911 8.891C21.9941 8.82849 22.0795 8.76912 22.167 8.713C22.332 8.599 22.532 8.443 22.563 8.27C22.485 8.3 22.319 8.379 22.071 8.366C22.167 8.322 22.314 8.276 22.296 8.083L22.366 8.039C22.337 8.02933 22.3065 8.02493 22.276 8.026C22.27 8.008 22.262 7.983 22.218 7.996C22.174 8.008 22.168 8.008 22.161 8.026C22.143 8.032 22.084 8.026 22.04 8.058C21.996 8.088 21.874 8.192 21.827 8.21L21.871 8.133C21.871 8.133 21.744 8.146 21.654 8.184C21.488 8.241 21.297 8.344 21.102 8.445C21.12 8.415 21.128 8.395 21.141 8.388C21.154 8.383 21.185 8.376 21.185 8.37C21.185 8.365 21.172 8.32 21.18 8.3C21.238 8.178 21.307 8.06 21.385 7.948C21.475 7.827 21.493 7.653 21.493 7.653L21.89 7.453L23.003 7.198L23.725 7.242L23.635 7.742L23.208 8.614L22.843 9.409L22.426 9.896L22.043 10.176V10.175Z" fill="#543E26"/>
<path fill-rule="evenodd" clip-rule="evenodd" d="M23.847 8.01304C23.847 8.01304 23.412 8.55104 23.29 8.63404C23.368 8.46804 23.847 7.48204 24.02 7.20804C23.982 7.17704 23.93 7.17704 24.052 6.69604C23.948 6.93904 23.912 7.06604 23.826 7.13004C23.741 7.19504 23.731 7.17404 23.673 7.17404C23.6838 7.15456 23.6884 7.13221 23.686 7.11004C23.686 7.11004 23.321 7.06604 23.071 7.06604C22.821 7.06604 22.328 7.20004 22.054 7.30904C21.836 7.39904 21.714 7.39904 21.637 7.45704C21.559 7.52104 21.515 7.59104 21.477 7.60904C21.445 7.62704 21.297 7.67404 21.264 7.72304C21.233 7.77404 21.181 7.83204 21.181 7.84504C21.181 7.85804 21.168 7.87604 21.207 7.86304C21.22 7.85804 21.316 7.80604 21.425 7.74104C21.572 7.65804 21.751 7.56304 21.88 7.50604C22.25 7.35804 22.367 7.38404 22.533 7.35304C22.706 7.32204 22.955 7.24904 23.12 7.24904C23.286 7.24404 23.6 7.24904 23.672 7.26204C23.641 7.28804 23.615 7.31904 23.628 7.42804C23.628 7.45904 23.602 7.49304 23.577 7.56804C23.499 7.78004 23.351 8.13204 23.269 8.31104C23.156 8.55404 23.026 8.75904 22.962 8.88604C22.898 9.01204 22.757 9.34604 22.618 9.52604C22.478 9.70404 22.406 9.81205 22.362 9.85105C22.318 9.89105 22.005 10.121 22.028 10.203C22.085 10.185 22.445 10.05 22.706 9.75604C22.967 9.46104 23.02 9.28204 23.224 9.12104C23.428 8.96104 23.589 8.69104 23.684 8.46904C23.765 8.26204 23.746 8.19704 23.847 8.01304Z" fill="#806031"/>
<path fill-rule="evenodd" clip-rule="evenodd" d="M14.472 12.032C14.472 12.032 14.415 12.267 14.286 12.384C14.159 12.498 13.934 12.596 13.908 12.788C13.877 12.979 14.133 13.075 14.133 13.075C14.133 13.075 13.993 13.305 13.993 13.479C13.993 13.658 13.988 13.691 14.006 13.862C13.9859 13.8753 13.9689 13.8926 13.956 13.913C13.956 13.913 13.968 14.079 14.095 14.183C14.222 14.286 14.33 14.348 14.395 14.323C14.4049 14.3438 14.4135 14.3652 14.421 14.387C14.421 14.387 14.517 14.144 14.581 13.931C14.646 13.714 14.703 13.745 14.729 13.452C14.755 13.16 15.036 12.657 15.036 12.657L15.228 12.228L14.915 11.985L14.472 12.031V12.032Z" fill="#B6903C"/>
<path fill-rule="evenodd" clip-rule="evenodd" d="M15.055 12.454C14.9906 12.5202 14.9311 12.591 14.877 12.666C14.794 12.78 14.729 12.883 14.607 12.927C14.486 12.972 14.408 12.971 14.416 13.093C14.423 13.215 14.537 13.267 14.602 13.329C14.672 13.393 14.729 13.502 14.698 13.624C14.737 13.606 14.807 13.585 14.871 13.445C14.936 13.305 15.389 12.454 15.389 12.454H15.055Z" fill="#685026"/>
<path fill-rule="evenodd" clip-rule="evenodd" d="M16.84 10.488C16.84 10.488 16.878 10.385 16.84 10.31C16.8 10.232 16.565 10.206 16.448 10.118C16.327 10.028 16.178 9.96502 16.058 10.004C16.075 9.96002 16.148 9.86402 16.088 9.84402C16.031 9.82602 15.819 9.92202 15.762 9.96602C15.705 10.01 15.576 10.061 15.55 10.093C15.524 10.123 15.48 10.183 15.454 10.157C15.428 10.139 15.415 10.093 15.371 10.118C15.327 10.144 15.115 10.318 15.076 10.418C15.037 10.52 14.949 10.745 14.685 11.001C14.421 11.257 14.307 11.423 14.385 11.519C14.462 11.615 14.499 11.545 14.512 11.628C14.5219 11.7092 14.5175 11.7914 14.499 11.871C14.468 12.006 14.416 12.133 14.486 12.158C14.664 12.215 14.838 12.108 14.876 12.14C14.954 12.21 14.833 12.461 15.016 12.51C15.203 12.562 15.386 12.467 15.386 12.467L16.066 12.101L16.718 11.757L17.051 11.097L16.872 10.545L16.838 10.488H16.84Z" fill="#D4B968"/>
<path fill-rule="evenodd" clip-rule="evenodd" d="M16.2 12.065C16.2 12.065 16.085 11.892 16.225 11.739C16.365 11.586 16.565 11.522 16.642 11.426C16.6272 11.4077 16.6074 11.3942 16.585 11.387C16.6366 11.295 16.7151 11.2211 16.81 11.175C16.772 11.1334 16.7193 11.1083 16.663 11.105C16.536 11.105 16.458 11.182 16.342 11.182C16.228 11.182 16.215 11.125 16.215 11.125C16.215 11.125 16.406 11.107 16.388 11.022C16.37 10.932 16.337 10.932 16.337 10.932C16.337 10.932 16.707 10.778 16.772 10.696C16.836 10.614 16.829 10.517 16.842 10.478C16.886 10.478 17.142 10.344 17.246 10.401C17.349 10.458 17.276 10.613 17.276 10.613C17.276 10.613 17.59 10.377 17.75 10.146C17.89 10.159 17.955 10.05 18.057 10.05C18.184 10.05 18.383 10.224 18.422 10.594C18.448 10.806 18.487 10.928 18.448 11.304C18.43 11.516 18.435 11.969 18.499 12.194C18.543 12.373 18.647 12.354 18.647 12.354C18.6313 12.4085 18.6 12.4572 18.557 12.494C18.487 12.559 18.478 12.73 18.487 12.794C18.497 12.842 18.509 12.889 18.525 12.934C18.525 12.934 18.442 13.03 18.421 13.095C18.403 13.16 18.318 13.204 18.256 13.204C18.193 13.204 18.225 13.199 18.142 13.204C18.059 13.209 18.033 13.222 17.982 13.204C17.929 13.186 17.891 13.164 17.912 12.999C17.93 12.833 17.272 12.448 17.272 12.448L16.197 12.064L16.199 12.065H16.2Z" fill="#CCA849"/>
<path fill-rule="evenodd" clip-rule="evenodd" d="M14.964 13.701C14.964 13.701 15.2 14.015 16.168 14.015C16.628 14.015 16.79 13.971 16.885 13.945C16.989 13.919 17.377 13.766 17.768 13.305C18.12 12.889 18.042 12.718 18.042 12.718L17.837 12.687L17.172 12.777L15.202 13.617L14.964 13.701Z" fill="#585136"/>
<path fill-rule="evenodd" clip-rule="evenodd" d="M15.687 13.78C15.687 13.78 14.847 13.966 14.847 13.435C14.847 12.917 15.365 12.373 15.495 12.278C15.63 12.182 15.951 12.073 15.951 12.073H16.725L16.872 12.463L16.808 13.308L15.687 13.778V13.779V13.78Z" fill="#252211"/>
<path fill-rule="evenodd" clip-rule="evenodd" d="M16.46 12.231C16.46 12.231 16.3 12.083 15.935 12.282C15.57 12.481 15.275 12.897 15.257 13.274C15.239 13.608 15.531 13.856 15.987 13.869C16.326 13.882 16.531 13.843 16.634 13.819L16.474 13.619L16.46 12.231Z" fill="#C3B378"/>
<path fill-rule="evenodd" clip-rule="evenodd" d="M16.303 12.314C16.303 12.314 16.264 12.283 16.149 12.344C16.053 12.396 15.914 12.531 15.805 12.627C15.735 12.684 15.691 12.71 15.651 12.754C15.491 12.945 15.356 13.259 15.434 13.414C15.512 13.569 15.768 13.748 16.42 13.626L16.3 12.314H16.303Z" fill="#E6D89C"/>
<path fill-rule="evenodd" clip-rule="evenodd" d="M16.09 12.635C16.09 12.635 15.987 12.795 15.987 13.052C15.987 13.313 16.135 13.73 16.678 13.761C17.095 13.787 17.375 13.161 17.678 12.917C17.908 12.731 18.048 12.725 18.048 12.725C18.048 12.725 17.812 12.469 17.183 12.138C16.562 11.804 15.865 11.76 15.487 12.272C15.666 12.259 16.243 12.112 16.243 12.112L16.526 12.202L16.09 12.635Z" fill="#252211"/>
<path fill-rule="evenodd" clip-rule="evenodd" d="M17.042 13.091C17.006 13.043 16.98 12.979 17.131 12.963C17.281 12.947 17.348 12.956 17.401 13.026C17.452 13.096 17.503 13.155 17.426 13.184C17.359 13.1958 17.2904 13.1936 17.2243 13.1776C17.1582 13.1616 17.0961 13.1321 17.042 13.091ZM16.798 12.639C16.798 12.639 16.746 12.661 16.772 12.616C16.782 12.562 16.85 12.466 17.016 12.488C17.182 12.511 17.146 12.623 17.119 12.655C17.092 12.687 16.953 12.741 16.849 12.718C16.822 12.714 16.8 12.702 16.79 12.686C16.78 12.671 16.782 12.653 16.797 12.638L16.798 12.639Z" fill="#6F674D"/>
<path fill-rule="evenodd" clip-rule="evenodd" d="M9.774 12.774C9.90338 12.8661 10.0572 12.9176 10.216 12.922C10.452 12.917 10.755 12.674 10.895 12.518C10.977 12.428 11.048 12.332 11.125 12.257C11.19 12.192 11.234 12.161 11.265 12.117C11.309 12.066 11.355 11.969 11.379 11.938C11.322 11.982 11.239 12.06 11.153 12.112C11.0459 12.1774 10.9343 12.2353 10.819 12.285C10.749 12.311 10.025 12.695 10.025 12.695L9.774 12.775V12.774Z" fill="#AC924C"/>
<path fill-rule="evenodd" clip-rule="evenodd" d="M10.087 10.861C10.087 10.861 10.2 10.784 10.421 10.734C10.633 10.684 11.061 10.644 11.061 10.644L11.412 10.797L11.552 11.328L11.296 11.88L10.97 12.085L10.6 11.489L10.087 10.862V10.861Z" fill="#9F8E57"/>
<path fill-rule="evenodd" clip-rule="evenodd" d="M9.626 11.335L9.504 11.426C9.504 11.426 9.535 11.369 9.561 11.196C9.587 11.022 9.721 10.6 9.918 10.356C10.115 10.114 10.11 10.126 10.11 10.126C10.0918 10.1227 10.0731 10.1233 10.0552 10.1278C10.0373 10.1322 10.0205 10.1405 10.006 10.152C10.0988 10.0071 10.2207 9.88317 10.364 9.78798C10.529 9.68498 10.594 9.65298 10.768 9.73698C10.941 9.81998 10.985 9.86298 11.112 9.85798C11.239 9.85298 11.347 9.71798 11.347 9.71798C11.347 9.71798 11.373 9.80098 11.277 9.99298C11.182 10.185 10.804 10.575 10.804 10.575L10.017 11.114L9.626 11.336V11.335Z" fill="#EAC970"/>
<path fill-rule="evenodd" clip-rule="evenodd" d="M10.208 10.797C10.208 10.797 10.778 10.874 10.951 10.714C10.956 10.732 10.977 10.732 10.977 10.745C10.9757 10.7549 10.9711 10.764 10.964 10.771C10.9829 10.7681 11.0019 10.7664 11.021 10.766C11.0438 10.7728 11.0673 10.7772 11.091 10.779C11.111 10.779 11.129 10.776 11.148 10.773C11.1462 10.7859 11.1418 10.7983 11.1351 10.8095C11.1284 10.8207 11.1195 10.8304 11.109 10.838C11.135 10.838 11.16 10.843 11.16 10.864C11.16 10.884 11.166 10.947 11.134 10.96C11.1085 10.9671 11.0814 10.9654 11.057 10.955C11.0591 11.0041 11.0724 11.052 11.096 11.095C11.147 11.19 11.256 11.299 11.403 11.268C11.403 11.268 11.48 11.454 11.154 11.868C11.11 11.926 11.064 12.003 11.007 12.068C10.9846 12.1171 10.9675 12.1684 10.956 12.221C10.956 12.221 11.507 12.008 11.666 11.524C11.826 11.037 11.856 10.558 11.826 10.111C11.8261 10.0138 11.8067 9.91761 11.769 9.82803C11.691 9.66803 11.473 9.69403 11.386 9.78403C11.259 9.91103 11.046 10.227 10.751 10.444C10.451 10.662 10.438 10.7 10.207 10.797H10.208Z" fill="#D7BC6B"/>
<path fill-rule="evenodd" clip-rule="evenodd" d="M9.52501 11.496C9.52501 11.496 9.41601 11.56 9.35901 11.803C9.30201 12.051 9.41001 12.354 9.47301 12.45C9.53601 12.546 9.67801 12.808 9.97301 12.82C10.0459 12.8196 10.118 12.8047 10.185 12.776C10.288 12.729 10.385 12.669 10.472 12.598C10.599 12.502 10.702 12.419 10.69 12.411C10.659 12.398 9.90801 11.777 9.90801 11.777L9.62601 11.462L9.52501 11.496Z" fill="#585136"/>
<path fill-rule="evenodd" clip-rule="evenodd" d="M10.234 12.526C10.234 12.526 10.387 12.513 10.478 12.456C10.568 12.399 9.94701 11.783 9.94701 11.783L9.99101 12.449L10.234 12.526Z" fill="#453A25"/>
<path fill-rule="evenodd" clip-rule="evenodd" d="M9.57401 11.4491C9.57401 11.4491 9.49601 11.5971 9.49601 11.6361C9.48301 11.7621 9.52201 12.1611 9.55301 12.2881C9.58401 12.4221 9.75301 12.6271 9.97001 12.6271C10.105 12.6271 10.291 12.5441 10.291 12.5241C10.291 12.4981 10.1 12.4721 10.048 12.3761C10.017 12.3251 10.004 12.1971 9.99701 12.0691C9.99201 11.9861 9.99201 11.8951 10.023 11.8641C10.093 11.7861 10.105 11.5641 10.105 11.5641L10.354 11.1021H10.027L9.63601 11.3451L9.57401 11.4491Z" fill="#84754B"/>
<path fill-rule="evenodd" clip-rule="evenodd" d="M9.478 11.592C9.478 11.592 9.734 11.252 9.965 11.175C10.195 11.097 10.299 11.144 10.299 11.144L10.164 11.488L9.973 11.7L9.986 11.809C9.986 11.809 9.954 12.096 10.146 12.296C10.338 12.495 10.48 12.487 10.563 12.487C10.646 12.487 10.884 12.417 11.006 12.13C11.114 11.86 11.205 11.516 10.988 11.17C10.775 10.825 10.4 10.812 10.328 10.812C10.255 10.812 9.685 10.841 9.478 11.592Z" fill="#252211"/>
<path fill-rule="evenodd" clip-rule="evenodd" d="M16.052 12.744C15.956 12.699 16.046 12.43 16.142 12.347C16.2578 12.2338 16.4104 12.166 16.572 12.156C16.65 12.151 16.725 12.2 16.712 12.252C16.694 12.347 16.559 12.482 16.437 12.578C16.269 12.71 16.16 12.793 16.052 12.744Z" fill="#F7F7E7"/>
<path fill-rule="evenodd" clip-rule="evenodd" d="M10.874 11.2761C10.944 11.2701 11.034 11.3261 11.052 11.4031C11.07 11.4851 11.008 11.6511 10.874 11.6511C10.764 11.6511 10.708 11.5161 10.708 11.4781C10.7094 11.4464 10.7183 11.4156 10.734 11.3881C10.739 11.3791 10.752 11.2881 10.874 11.2761Z" fill="#F8F6DE"/>
<path fill-rule="evenodd" clip-rule="evenodd" d="M9.864 11.335C9.864 11.335 9.685 11.418 9.602 11.591C9.54323 11.7191 9.52575 11.8624 9.552 12.001C9.564 12.065 9.629 12.226 9.672 12.283C9.717 12.34 9.777 12.379 9.821 12.373C9.865 12.368 9.955 12.252 9.955 12.182C9.955 12.112 9.96 11.817 10.045 11.656C10.121 11.496 9.865 11.336 9.865 11.336L9.864 11.335Z" fill="#D4C38B"/>
<path fill-rule="evenodd" clip-rule="evenodd" d="M9.89001 11.322C9.85901 11.34 9.80701 11.366 9.82001 11.4C9.83301 11.43 9.94201 11.451 9.98001 11.527C10.024 11.604 10.024 11.687 10.012 11.727C10.0457 11.7105 10.0762 11.6882 10.102 11.661C10.159 11.597 10.229 11.509 10.289 11.509C10.327 11.509 10.366 11.527 10.403 11.527C10.46 11.527 10.516 11.509 10.524 11.449C10.537 11.372 10.415 11.302 10.346 11.315C10.358 11.263 10.376 11.188 10.32 11.135C10.263 11.084 10.084 11.175 10.045 11.201C9.99222 11.2399 9.94054 11.2802 9.89001 11.322Z" fill="#E2D59D"/>
<path fill-rule="evenodd" clip-rule="evenodd" d="M14.004 16.762L14.387 16.649L14.496 16.726C14.496 16.726 14.573 16.892 14.695 16.913C14.656 16.995 14.555 17.066 14.56 17.125C14.5669 17.1648 14.587 17.2011 14.617 17.228C14.617 17.228 14.273 17.798 14.951 18.372C14.791 18.437 14.586 18.526 14.478 18.577C14.555 18.595 14.721 18.627 14.791 18.691C14.861 18.754 14.861 18.774 14.925 18.812C14.99 18.852 15.029 18.903 15.016 18.926C14.972 18.9 14.824 18.823 14.799 18.896C14.773 18.968 14.159 18.939 14.159 18.939L13.123 19.139C13.123 19.139 13.163 19.035 13.053 18.939C12.927 18.825 12.771 18.944 12.606 18.818C12.388 18.652 12.38 18.46 12.311 18.388C12.381 18.344 12.523 18.279 12.862 18.234C12.849 18.208 12.805 18.131 12.831 18.061C12.862 17.971 12.991 17.913 12.953 17.805C13.01 17.792 13.035 17.792 13.178 17.613C13.313 17.434 13.395 17.396 13.498 17.383C13.603 17.37 13.665 17.383 13.856 17.204C13.991 17.077 13.946 16.969 13.946 16.969C13.946 16.969 14.035 16.941 14.004 16.762Z" fill="#CBAC5A"/>
<path fill-rule="evenodd" clip-rule="evenodd" d="M12.872 16.82C12.878 16.793 12.898 16.78 13.038 16.793C13.178 16.806 14.063 16.71 14.304 16.698C14.547 16.679 15.404 16.692 15.821 16.78C16.238 16.868 16.661 16.972 16.865 17.024C17.069 17.081 17.134 17.101 17.126 17.127C17.121 17.153 17.075 17.178 17.048 17.171C17.023 17.166 16.344 16.959 16.135 16.915C15.925 16.871 15.2 16.755 14.803 16.762C14.433 16.767 14.286 16.756 13.973 16.792C13.659 16.832 13.141 16.883 12.986 16.862C12.832 16.844 12.864 16.845 12.872 16.82Z" fill="#D6BC6F"/>
<path fill-rule="evenodd" clip-rule="evenodd" d="M14.956 18.8481C14.956 18.8481 15.487 19.1361 15.679 19.4881C15.819 19.7491 15.596 19.8781 15.596 19.8781C15.596 19.8781 15.896 19.8781 15.858 20.0451C15.839 20.1481 15.34 20.4281 15.006 20.5751C14.666 20.7231 14.68 20.7151 14.514 20.7411C14.354 20.7671 13.914 20.6901 13.822 20.8191C13.732 20.9471 13.772 21.0801 13.797 21.1011C13.822 21.1191 14.032 21.1451 14.032 21.1451C14.032 21.1451 13.988 21.2671 13.553 21.2801C13.118 21.2931 13.01 21.3231 12.983 21.3701C12.958 21.4141 13.066 21.3881 13.266 21.4211C13.466 21.4521 13.745 21.4731 13.745 21.4731C13.745 21.4731 13.655 21.5501 13.419 21.6131C13.149 21.6831 12.727 21.7471 12.601 21.8251C12.665 21.8691 12.761 21.9331 12.805 21.9391C12.7056 21.962 12.6093 21.9966 12.518 22.0421C12.557 22.0681 12.608 22.0991 12.608 22.0991C12.608 22.0991 12.391 22.3611 12.264 22.4251C12.137 22.4901 11.407 22.8291 11.156 22.7651C10.529 22.5991 10.452 21.9131 10.299 21.8611C10.069 21.7831 9.96 21.9391 9.755 21.8301C9.846 21.7651 9.895 21.7261 9.991 21.6821C9.887 21.6321 9.351 21.2921 9.351 21.2921C9.2951 21.1696 9.23302 21.0502 9.165 20.9341C9.062 20.7551 8.909 20.5171 8.795 20.3071C8.546 19.8471 8.533 19.6341 8.308 19.3731C8.347 19.3221 8.481 19.3291 8.481 19.3291L10.369 19.9501L13.716 20.0471L14.586 18.8051L14.956 18.8481Z" fill="#DFC677"/>
<path fill-rule="evenodd" clip-rule="evenodd" d="M9.99901 20.744C10.019 20.766 10.042 20.785 10.069 20.801C10.133 20.845 10.229 20.896 10.294 20.974C10.32 20.935 10.384 20.865 10.498 20.974C10.613 21.083 10.754 21.005 10.843 21.031C10.933 21.062 10.938 21.075 10.938 21.075C10.938 21.075 10.99 21.031 11.104 20.985C11.174 20.958 11.257 20.94 11.347 20.915C11.43 20.896 11.521 20.87 11.583 20.87C11.64 20.91 11.845 21.126 12.665 20.806C13.44 20.506 13.618 20.472 13.748 20.518C13.761 20.488 13.774 20.428 13.973 20.435C13.973 20.353 13.807 20.07 13.807 20.07L12.893 19.757H12.393L10.894 20.032L10.064 20.506L9.99901 20.744Z" fill="#C4A859"/>
<path fill-rule="evenodd" clip-rule="evenodd" d="M9.49901 20.218C9.49901 20.218 9.51701 20.358 9.72401 20.505C9.92901 20.653 9.99401 20.741 9.99401 20.741C9.99401 20.741 10.032 20.69 10.064 20.638C10.094 20.581 10.12 20.516 10.172 20.498C10.276 20.454 10.512 20.536 10.562 20.524C10.607 20.511 10.594 20.42 10.641 20.42C10.749 20.415 10.819 20.49 10.858 20.49C10.897 20.49 10.993 20.485 11.005 20.464C11.018 20.444 11.024 20.228 11.171 20.124C11.2312 20.0849 11.2999 20.061 11.3713 20.0544C11.4427 20.0478 11.5147 20.0586 11.581 20.086C11.581 20.125 11.586 20.221 11.69 20.226C11.793 20.231 11.803 20.213 11.894 20.244C11.985 20.275 12.094 20.239 12.143 20.391C12.187 20.379 12.29 20.366 12.264 20.218C12.316 20.179 12.36 20.153 12.469 20.001C12.495 19.961 12.539 19.918 12.573 19.861C12.663 19.861 12.773 19.843 12.917 19.97C12.873 20 12.847 20.02 12.834 20.052C12.8721 20.0896 12.9069 20.1304 12.938 20.174C12.977 20.225 13.003 20.288 13.052 20.301C13.16 20.332 13.339 20.288 13.539 20.301C13.6875 20.3107 13.8318 20.3541 13.961 20.428C13.987 20.415 13.987 20.41 14.051 20.423C14.116 20.436 14.165 20.441 14.095 20.358C14.134 20.376 14.178 20.415 14.217 20.376C14.256 20.337 14.287 20.28 14.395 20.267C14.505 20.254 14.543 20.272 14.587 20.159C14.644 20.019 14.447 20.019 14.447 20.019C14.447 20.019 14.537 19.936 14.639 19.827C14.761 19.713 14.9 19.566 14.934 19.384C14.991 19.05 14.664 19.007 14.664 19.007L13.083 19.493L11.149 19.397L9.49901 20.218Z" fill="#927D49"/>
<path fill-rule="evenodd" clip-rule="evenodd" d="M8.078 15.648C8.078 15.648 8.026 15.713 7.995 15.866C7.963 16.019 7.977 16.001 7.951 16.109C7.925 16.218 7.606 17.3 7.726 17.665C7.846 18.03 8.052 18.165 8.181 18.46C8.207 18.525 8.232 18.564 8.246 18.62C8.29 18.812 8.251 18.96 8.303 19.151C8.321 19.216 8.368 19.291 8.438 19.369C8.591 19.529 8.842 19.682 8.95 19.791C9.102 19.951 9.32 20.278 9.597 20.308C9.744 20.327 9.954 20.264 10.127 20.161C10.281 20.065 10.377 19.931 10.537 19.854C10.651 19.797 10.773 19.776 10.881 19.75C11.107 19.706 11.311 19.699 11.433 19.724C11.619 19.764 12.06 19.898 12.303 19.898C12.494 19.895 12.683 19.868 12.868 19.82C13.238 19.711 13.686 19.525 13.981 19.442C14.154 19.391 14.294 19.377 14.437 19.346C14.68 19.289 14.885 19.212 15.001 19.064C14.923 18.974 14.828 18.834 14.31 18.839C13.722 18.852 13.044 19.178 12.71 19.229C12.376 19.282 12.23 19.326 11.858 19.191C11.492 19.055 11.48 18.965 11.48 18.965C11.48 18.965 11.096 18.697 10.936 18.012C10.776 17.328 10.936 16.829 11.353 16.355C11.461 16.233 11.436 16.125 11.436 16.125C11.436 16.125 11.71 15.755 11.635 15.408C11.552 15.064 11.021 15.134 11.021 15.134L8.078 15.648Z" fill="#6E6342"/>
<path fill-rule="evenodd" clip-rule="evenodd" d="M8.52 16.8C8.49749 16.8431 8.48712 16.8915 8.49 16.94C8.494 17.01 8.515 17.1 8.725 17.305C8.903 17.484 8.865 17.683 8.865 17.683C8.865 17.683 8.955 17.701 9.198 17.587C9.39 17.497 9.454 17.657 9.454 17.657C9.5102 17.6276 9.57113 17.6084 9.634 17.6C9.6904 17.5948 9.74499 17.5774 9.794 17.549C9.794 17.549 10.019 17.779 10.216 17.889C10.394 17.984 10.498 18.049 10.586 17.984C10.669 17.927 10.669 17.81 10.663 17.759C10.6426 17.7112 10.6168 17.6659 10.586 17.624C10.529 17.541 10.438 17.445 10.432 17.368C10.419 17.19 10.567 16.978 10.536 16.925C10.505 16.874 10.388 16.861 10.101 16.965C9.803 17.063 8.519 16.801 8.519 16.801L8.52 16.8Z" fill="#39331F"/>
<path fill-rule="evenodd" clip-rule="evenodd" d="M9.19801 17.958C9.19801 17.958 9.05101 17.818 9.10301 17.14C9.16501 17.139 9.22801 17.145 9.28901 17.158C9.28901 17.158 9.36801 17.683 9.19801 17.958Z" fill="#292311"/>
<path fill-rule="evenodd" clip-rule="evenodd" d="M8.147 15.13C8.16752 15.1151 8.1866 15.0984 8.204 15.08C8.154 15.175 7.917 15.558 8.109 16.162C8.3 16.762 8.782 17.21 9.375 17.231C9.967 17.251 10.279 16.961 10.635 16.527C10.775 16.353 10.935 16.136 11.078 15.988C11.29 15.758 11.456 15.693 11.456 15.47C11.456 15.015 10.99 14.81 10.304 14.606C9.618 14.401 8.999 14.426 8.678 14.566C8.365 14.719 8.23 14.88 8.148 15.131L8.147 15.13Z" fill="#252211"/>
<path fill-rule="evenodd" clip-rule="evenodd" d="M10.35 18.162L10.402 18.136C10.402 18.136 10.415 17.932 10.498 17.937C10.58 17.95 10.619 18.059 10.611 18.097C10.606 18.137 10.586 18.201 10.503 18.193C10.394 18.196 10.35 18.163 10.35 18.163V18.162Z" fill="#3F3824"/>
<path fill-rule="evenodd" clip-rule="evenodd" d="M10.12 17.292C10.12 17.292 10.171 17.274 10.234 17.336C10.285 17.336 10.508 17.311 10.578 17.355C10.648 17.399 10.669 17.437 10.669 17.437C10.669 17.437 10.408 17.494 10.265 17.437C10.12 17.388 10.12 17.292 10.12 17.292Z" fill="#2D2815"/>
<path fill-rule="evenodd" clip-rule="evenodd" d="M11.272 17.331C11.272 17.318 11.132 17.222 10.985 17.191C10.959 17.186 10.954 17.204 10.934 17.204C10.921 17.199 10.916 17.16 10.916 17.16L10.832 17.204C10.832 17.204 10.819 17.222 10.862 17.256C10.902 17.286 10.966 17.313 10.984 17.364C11.003 17.416 11.003 17.434 11.01 17.442C11.016 17.447 11.106 17.442 11.15 17.416C11.194 17.39 11.277 17.348 11.272 17.331Z" fill="#82764F"/>
<path fill-rule="evenodd" clip-rule="evenodd" d="M9.965 17.857C9.965 17.857 9.991 17.678 10.165 17.67C10.343 17.658 10.377 17.83 10.377 17.83L10.273 17.935C10.273 17.932 10.194 17.823 9.965 17.857Z" fill="#2D2816"/>
<path fill-rule="evenodd" clip-rule="evenodd" d="M11.091 17.088C11.091 17.088 10.995 17.191 10.783 17.222C10.765 17.197 10.726 17.145 10.783 17.062C10.84 16.979 10.905 16.953 10.969 16.979C11.028 16.989 11.075 17.031 11.091 17.088Z" fill="#574F35"/>
<path fill-rule="evenodd" clip-rule="evenodd" d="M11.486 17.456C11.491 17.411 11.472 17.402 11.486 17.379C11.499 17.356 11.576 17.311 11.589 17.333C11.595 17.343 11.589 17.379 11.589 17.423C11.589 17.468 11.589 17.513 11.575 17.546C11.555 17.592 11.5 17.614 11.472 17.601C11.444 17.587 11.438 17.523 11.438 17.511C11.452 17.501 11.486 17.479 11.486 17.456ZM11.963 16.965C11.963 16.942 12.011 16.896 12.039 16.896C12.081 16.896 12.081 16.951 12.086 16.965C12.1 16.974 12.1 16.955 12.114 16.997C12.128 17.037 12.148 17.11 12.134 17.156C12.119 17.201 12.064 17.233 12.05 17.224C12.0134 17.14 11.9843 17.053 11.963 16.964V16.965Z" fill="#82764F"/>
<path fill-rule="evenodd" clip-rule="evenodd" d="M11.034 17.274C11.034 17.274 11.091 17.287 11.169 17.352C11.143 17.37 11.104 17.391 11.104 17.391C11.104 17.391 11.099 17.331 11.034 17.274Z" fill="#6E6342"/>
<path fill-rule="evenodd" clip-rule="evenodd" d="M10.908 16.741C10.892 16.728 10.954 16.696 10.99 16.701C11.027 16.706 11.043 16.728 11.083 16.733C11.123 16.739 11.129 16.72 11.143 16.706C11.158 16.693 11.211 16.701 11.22 16.706C11.226 16.712 11.23 16.719 11.235 16.726C11.2357 16.7153 11.2387 16.7049 11.2439 16.6956C11.2491 16.6862 11.2563 16.6782 11.265 16.672C11.2773 16.664 11.2911 16.6587 11.3055 16.6562C11.32 16.6538 11.3348 16.6544 11.349 16.658C11.355 16.677 11.386 16.745 11.379 16.758C11.373 16.772 11.281 16.791 11.266 16.778C11.281 16.81 11.349 16.878 11.358 16.891C11.367 16.905 11.29 16.937 11.26 16.931C11.1332 16.8867 11.0141 16.8229 10.907 16.742L10.908 16.741ZM11.31 16.291C11.3037 16.277 11.2927 16.2657 11.279 16.259C11.258 16.253 11.187 16.259 11.187 16.291C11.187 16.324 11.247 16.506 11.316 16.601C11.393 16.696 11.445 16.774 11.496 16.796C11.531 16.81 11.571 16.798 11.589 16.769C11.595 16.755 11.61 16.655 11.604 16.419C11.598 16.183 11.589 15.955 11.574 15.941C11.558 15.928 11.497 15.928 11.475 15.955C11.454 15.982 11.315 16.251 11.31 16.291Z" fill="#585136"/>
<path fill-rule="evenodd" clip-rule="evenodd" d="M11.016 17.6001C11.016 17.6001 10.926 17.5441 10.837 17.5821C10.755 17.6221 10.76 17.7741 10.76 17.7741C10.798 17.7891 10.84 17.7841 10.874 17.7611C10.931 17.7221 11.004 17.6581 11.016 17.6011V17.6001Z" fill="#574F35"/>
<path fill-rule="evenodd" clip-rule="evenodd" d="M11.187 17.805C11.182 17.754 11.136 17.754 11.136 17.727C11.1392 17.7143 11.1465 17.7031 11.1568 17.6951C11.1672 17.6871 11.1799 17.6828 11.193 17.683C11.218 17.683 11.243 17.715 11.275 17.735C11.307 17.753 11.353 17.785 11.358 17.825C11.363 17.865 11.307 17.973 11.244 17.973C11.182 17.973 11.2 17.856 11.187 17.804V17.805ZM11.687 17.735C11.687 17.735 11.583 17.766 11.591 17.735C11.598 17.705 11.621 17.696 11.656 17.696C11.6731 17.6787 11.6958 17.668 11.72 17.666C11.734 17.664 11.748 17.669 11.759 17.678C11.759 17.678 11.829 17.648 11.849 17.665C11.87 17.683 11.855 17.683 11.868 17.705C11.884 17.727 11.895 17.754 11.898 17.782C11.898 17.802 11.821 17.846 11.759 17.839C11.687 17.823 11.699 17.749 11.687 17.735ZM12.29 17.619C12.29 17.619 12.32 17.637 12.295 17.658C12.238 17.6914 12.1739 17.7109 12.108 17.715C12.031 17.715 11.961 17.727 11.961 17.702C11.961 17.676 12.026 17.624 12.064 17.611C12.0718 17.6013 12.0817 17.5934 12.093 17.5881C12.1042 17.5827 12.1165 17.58 12.129 17.58C12.16 17.58 12.282 17.567 12.316 17.562C12.346 17.556 12.373 17.575 12.354 17.601C12.347 17.619 12.29 17.619 12.29 17.619ZM12.468 16.819C12.468 16.819 12.43 16.902 12.386 16.902C12.342 16.897 12.342 16.884 12.342 16.871C12.342 16.853 12.386 16.806 12.38 16.793C12.368 16.793 12.336 16.793 12.342 16.763C12.342 16.736 12.386 16.705 12.424 16.711C12.4533 16.6867 12.4899 16.673 12.528 16.672C12.572 16.672 12.611 16.685 12.611 16.711C12.611 16.737 12.56 16.794 12.541 16.807C12.521 16.827 12.494 16.84 12.468 16.819ZM11.878 18.349C11.878 18.349 11.827 18.355 11.827 18.38C11.827 18.393 11.84 18.393 11.858 18.386C11.8685 18.3852 11.8789 18.3832 11.889 18.38C11.894 18.386 11.894 18.411 11.933 18.411C11.9647 18.4069 11.9952 18.3967 12.023 18.381C12.055 18.367 12.081 18.354 12.081 18.329C12.068 18.285 12.041 18.264 12.003 18.264C11.9831 18.2627 11.9633 18.2672 11.946 18.277C11.946 18.277 11.933 18.251 11.889 18.277C11.845 18.303 11.85 18.303 11.863 18.317C11.886 18.337 11.879 18.35 11.879 18.35L11.878 18.349ZM11.586 18.619C11.586 18.606 11.65 18.579 11.668 18.587C11.686 18.593 11.738 18.691 11.738 18.701C11.738 18.714 11.673 18.745 11.648 18.745C11.622 18.745 11.578 18.701 11.578 18.695C11.578 18.689 11.608 18.681 11.608 18.676C11.616 18.663 11.586 18.632 11.586 18.619ZM11.381 18.241C11.394 18.235 11.394 18.222 11.411 18.209C11.4168 18.2051 11.4235 18.2026 11.4304 18.2018C11.4374 18.2009 11.4444 18.2017 11.451 18.204C11.4557 18.1961 11.4621 18.1893 11.4697 18.1841C11.4773 18.1789 11.4859 18.1755 11.495 18.174C11.525 18.168 11.552 18.174 11.546 18.186C11.546 18.225 11.572 18.251 11.572 18.282C11.572 18.312 11.554 18.352 11.489 18.378C11.4349 18.3924 11.3787 18.3968 11.323 18.391C11.31 18.386 11.297 18.334 11.31 18.308C11.3279 18.2806 11.3529 18.2577 11.381 18.241Z" fill="#82764F"/>
<path fill-rule="evenodd" clip-rule="evenodd" d="M11.49 18.2581C11.49 18.2581 11.422 18.2911 11.422 18.3071C11.4161 18.3223 11.4133 18.3387 11.414 18.3551C11.414 18.3651 11.502 18.3491 11.514 18.3391C11.518 18.3331 11.49 18.2741 11.49 18.2581Z" fill="#6E6342"/>
<path fill-rule="evenodd" clip-rule="evenodd" d="M11.078 18.136C11.104 18.142 11.148 18.136 11.182 18.149C11.208 18.162 11.226 18.189 11.2 18.219C11.174 18.25 11.148 18.297 11.091 18.289C11.026 18.284 10.964 18.25 10.964 18.224C10.963 18.2077 10.9652 18.1913 10.9705 18.1759C10.9758 18.1604 10.9842 18.1462 10.995 18.134C11.021 18.114 11.034 18.126 11.078 18.136Z" fill="#585136"/>
<path fill-rule="evenodd" clip-rule="evenodd" d="M11.047 18.162C11.047 18.162 10.964 18.227 10.944 18.258C10.918 18.289 10.791 18.45 10.752 18.483C10.7649 18.4605 10.7797 18.4391 10.796 18.419C10.7447 18.4517 10.7062 18.5012 10.687 18.559C10.657 18.654 10.861 18.706 10.995 18.745C11.13 18.784 11.182 18.796 11.182 18.796C11.1325 18.7217 11.09 18.6431 11.055 18.561C11.004 18.439 10.977 18.426 11.011 18.369C11.037 18.312 11.076 18.273 11.076 18.229C11.06 18.189 11.047 18.162 11.047 18.162Z" fill="#574F35"/>
<path fill-rule="evenodd" clip-rule="evenodd" d="M8.096 18.367C8.11484 18.3704 8.13416 18.3704 8.153 18.367C8.191 18.362 8.595 18.213 9.017 18.24C9.333 18.26 9.647 18.31 9.952 18.394C10.482 18.534 11.142 18.81 11.57 18.968C11.684 19.012 11.795 19.09 11.877 19.121C12.204 19.248 12.217 19.248 12.408 19.281C12.633 19.313 12.864 19.238 13.105 19.186C13.4 19.121 13.905 19.09 14.347 19.026C14.49 19.006 14.631 18.973 14.769 18.929C14.769 18.929 14.417 19.282 13.573 19.409C13.2319 19.4604 12.8852 19.4645 12.543 19.421C12.3459 19.405 12.1507 19.3706 11.96 19.318C11.807 19.274 11.494 19.158 11.108 19.062C10.839 18.992 10.538 18.94 10.194 18.875C9.345 18.72 8.424 18.541 8.095 18.368L8.096 18.367Z" fill="#252211"/>
<path fill-rule="evenodd" clip-rule="evenodd" d="M7.143 16.767C6.938 16.94 6.721 17.107 6.509 17.267L5.869 17.757C5.652 17.918 5.439 18.084 5.222 18.245C5.004 18.405 4.787 18.558 4.556 18.705C4.761 18.532 4.978 18.371 5.196 18.214C5.413 18.056 5.639 17.901 5.848 17.741L6.488 17.249C6.708 17.089 6.92 16.923 7.143 16.767ZM6.01 18.579C6.01 18.579 6.24 18.388 6.528 18.119C6.885 17.785 7.323 17.357 7.463 17.279L6.01 18.579Z" fill="#CFB66C"/>
<path fill-rule="evenodd" clip-rule="evenodd" d="M6.011 18.58C6.125 18.465 6.247 18.354 6.369 18.245L6.555 18.085C6.612 18.033 6.677 17.976 6.734 17.919C6.848 17.805 6.959 17.683 7.073 17.567C7.129 17.508 7.189 17.453 7.252 17.401C7.28317 17.3734 7.31779 17.3498 7.355 17.331C7.386 17.313 7.42 17.28 7.464 17.274C7.438 17.314 7.407 17.331 7.381 17.364C7.35 17.391 7.324 17.422 7.298 17.448C7.241 17.505 7.177 17.556 7.12 17.608C6.998 17.712 6.871 17.813 6.75 17.921C6.628 18.03 6.514 18.147 6.392 18.255C6.26 18.367 6.138 18.475 6.012 18.58H6.011ZM7.56 17.543C7.56 17.543 6.716 18.369 6.542 18.503L7.56 17.543Z" fill="#CFB66C"/>
<path fill-rule="evenodd" clip-rule="evenodd" d="M7.56001 17.5441C7.48401 17.6311 7.40201 17.7141 7.31601 17.7921L7.06001 18.0351C6.97701 18.1181 6.90001 18.2011 6.81201 18.2841C6.72101 18.3621 6.63801 18.4371 6.54201 18.5091L6.79101 18.2661C6.87401 18.1831 6.96401 18.1131 7.05201 18.0301L7.30101 17.7871C7.38601 17.7021 7.46901 17.6191 7.56001 17.5441ZM7.59801 17.9911C7.52101 18.2081 7.42901 18.4211 7.32401 18.6261C7.10701 19.0611 6.78001 19.6041 6.63801 19.8811L7.59801 17.9911Z" fill="#CFB66C"/>
<path fill-rule="evenodd" clip-rule="evenodd" d="M7.59801 17.9921C7.59529 18.0818 7.57597 18.1703 7.54101 18.2531C7.51101 18.3361 7.47701 18.4171 7.43801 18.4961C7.39901 18.5741 7.35501 18.6561 7.31101 18.7321C7.26701 18.8071 7.21501 18.8851 7.17601 18.9621L6.91501 19.4231C6.82501 19.5771 6.73601 19.7311 6.64101 19.8791C6.70501 19.7131 6.79301 19.5581 6.87601 19.4051C6.96601 19.2521 7.05001 19.0981 7.13201 18.9391C7.17201 18.8591 7.20901 18.7791 7.24101 18.6961C7.28001 18.6131 7.31801 18.5361 7.35001 18.4601C7.38801 18.3771 7.42001 18.3001 7.45801 18.2251C7.50201 18.1451 7.53801 18.0671 7.59801 17.9921Z" fill="#CFB66C"/>
<path fill-rule="evenodd" clip-rule="evenodd" d="M8.52 20.114C8.52 20.114 8.264 20.454 8.29 20.884C8.36 20.658 8.448 20.314 8.52 20.114ZM8.764 20.454C8.764 20.454 8.673 21.376 8.598 21.829C8.704 21.305 8.725 21.349 8.764 20.454ZM10.459 21.884C10.459 21.884 10.076 23.01 10.069 23.323C10.151 23.001 10.312 22.344 10.459 21.884Z" fill="#DEC270"/>
<path fill-rule="evenodd" clip-rule="evenodd" d="M11.355 20.045C11.355 20.045 11.977 21.07 12.443 21.945C12.317 21.505 12.026 20.697 11.355 20.045Z" fill="#CBAF59"/>
<path fill-rule="evenodd" clip-rule="evenodd" d="M13.025 21.554C13.366 22.157 13.674 22.779 13.947 23.415C13.895 22.975 13.755 22.222 13.025 21.554Z" fill="#E3C677"/>
<path fill-rule="evenodd" clip-rule="evenodd" d="M17.934 23.066C18.037 23.001 18.242 22.649 18.421 22.561C18.599 22.471 18.734 22.452 18.894 22.273C19.054 22.087 19.099 21.973 19.451 21.826C19.943 21.613 19.605 21.339 19.605 21.339C19.659 21.285 19.717 21.236 19.778 21.191C19.905 21.095 20.052 20.979 20.04 20.774C20.021 20.43 19.957 19.93 19.674 19.64C19.949 19.583 20.474 19.545 20.801 19.462C21.179 19.366 21.352 19.232 21.352 19.232C21.352 19.232 21.135 18.862 21.487 18.488C21.839 18.116 22.127 17.893 22.339 17.476C22.095 17.445 21.724 17.316 20.778 17.676C20.828 17.699 20.878 17.727 20.925 17.758C20.925 17.758 20.343 17.918 20.13 18.098C19.76 18.41 19.713 18.667 19.312 18.858C18.911 19.05 18.507 18.998 18.173 19.154C17.839 19.309 17.79 19.441 17.668 19.498C17.694 19.529 17.663 19.581 17.712 19.625C17.682 19.669 17.5 19.964 17.316 19.964C17.334 20.034 17.489 20.086 17.489 20.086C17.489 20.086 17.376 20.169 17.086 20.189C17.233 20.343 17.373 20.51 17.759 20.754C17.728 20.818 17.599 20.914 17.65 21.036C17.707 21.158 17.855 21.323 18.445 21.458C18.145 21.471 17.793 21.541 17.318 21.476C16.845 21.419 16.767 21.386 16.474 21.458C16.506 21.489 16.588 21.489 16.661 21.572C16.583 21.577 16.096 21.515 15.931 21.732C15.757 21.957 15.682 22.328 15.695 22.576C15.605 22.62 15.517 22.698 15.561 22.859C15.605 23.019 15.835 23.071 15.983 23.172C16.13 23.28 16.143 23.319 16.283 23.293C16.43 23.263 16.648 23.115 16.775 23.115C16.902 23.115 16.992 23.211 16.992 23.211C16.992 23.211 17.337 23.045 17.37 23.076C17.401 23.107 17.375 23.306 17.41 23.337C17.443 23.361 17.83 23.13 17.934 23.066Z" fill="#ECD592"/>
<path fill-rule="evenodd" clip-rule="evenodd" d="M25.46 12.7051C23.842 8.52607 19.842 7.75208 19.842 7.75208H8.429L8.474 12.0081H10.746V21.5131H8.43V25.7611H19.527C22.201 25.7611 24.345 23.0741 24.345 23.0741C27.778 18.2011 25.461 12.7041 25.461 12.7041L25.46 12.7051ZM19.586 20.2101C19.586 20.2101 18.716 21.4661 17.768 21.4661H15.874L15.829 12.0191H18.26C18.26 12.0191 19.386 12.2541 20.173 14.4831C20.173 14.4831 21.217 17.6751 19.586 20.2101Z" fill="white" fill-opacity="0.8"/>
</g>
</g>
</g>
<defs>
<clipPath id="clip0_13_625">
<rect width="33" height="32" fill="white" transform="translate(0 0.640015)"/>
</clipPath>
<clipPath id="clip1_13_625">
<rect width="33" height="32" fill="white" transform="translate(0 0.640015)"/>
</clipPath>
<clipPath id="clip2_13_625">
<rect width="33" height="32" fill="white" transform="translate(0 0.640015)"/>
</clipPath>
</defs>
</svg>
