<svg width="93" height="105" viewBox="0 0 93 105" fill="none" xmlns="http://www.w3.org/2000/svg">
<path d="M34.1778 102.742C34.2208 102.123 34.223 101.495 34.3192 100.884C34.4647 99.9584 34.6756 99.0445 34.8981 97.9237C33.4544 98.3523 32.2682 98.7465 31.0597 99.0539C29.942 99.337 28.8068 99.5868 27.664 99.7379C26.9659 99.8286 26.5977 99.5545 26.9138 98.6946C27.9686 95.8162 28.932 92.9047 29.9726 90.0198C30.3069 89.0927 30.6945 88.1691 31.191 87.3201C32.5169 85.052 32.4724 82.7752 31.351 80.483C30.7825 79.3213 30.2187 78.1351 29.4685 77.0938C29.0488 76.5126 28.3102 76.04 27.6169 75.7965C24.2583 74.61 21.4685 72.5518 19.0307 70.0635C16.567 67.55 15.752 64.2191 15.2273 60.8548C14.2251 54.435 15.3557 48.376 18.5079 42.6933C18.6069 42.5153 18.702 42.3351 18.7849 42.1485C18.8067 42.0998 18.7676 42.027 18.7284 41.8002C17.4102 42.2998 16.1287 42.8023 14.8338 43.2737C11.3758 44.5306 7.92928 45.8166 4.44644 47.0031C2.64086 47.6173 2.29831 47.3786 1.8203 45.5093C1.64546 44.8256 1.671 44.0916 1.56858 43.3852C1.47129 42.7178 1.78528 42.4058 2.37982 42.1934C5.30066 41.1524 8.21185 40.0886 11.1251 39.0228C13.0667 38.3116 15.0025 37.5838 17.0686 36.8163C16.1756 35.1989 15.4382 33.7497 14.5986 32.3635C11.423 27.1209 8.21819 21.8961 5.01129 16.6733C4.15349 15.2763 4.10682 15.1787 5.34501 14.1374C8.46361 11.5134 11.8067 9.24594 15.6011 7.68578C22.1463 4.99204 28.99 3.27452 35.7904 1.41225C35.9227 1.37667 36.0585 1.35966 36.1908 1.32613C38.7095 0.668777 38.6949 0.67866 40.1739 2.79748C42.9657 6.79896 44.7218 11.3216 46.7379 15.7155C48.0728 18.6268 49.4056 21.5401 50.8133 24.4163C51.5278 25.8752 51.862 25.9659 53.4131 25.5093C57.0736 24.432 60.7081 23.2535 64.3928 22.2712C66.1907 21.7902 68.077 21.6172 69.9321 21.3798C70.5498 21.3013 71.1961 21.4616 71.9762 21.5248C71.401 23.6482 70.4763 25.4054 68.6021 26.2887C66.8941 27.0942 65.0377 27.6126 63.2082 28.1216C60.8805 28.7674 58.5118 29.2604 56.1712 29.8546C55.5597 30.0092 54.9817 30.2918 54.0822 30.6318C54.9599 31.1982 55.5889 31.6207 56.2351 32.019C59.3767 33.9612 62.2887 36.2113 63.8269 39.6593C64.6871 41.5877 65.0529 43.7456 65.5541 45.8228C65.6835 46.3637 65.878 46.6129 66.3732 46.8186C67.5647 47.3151 68.7057 47.9334 69.895 48.4319C71.4131 49.0682 72.7758 48.4405 74.0572 47.7082C74.3405 47.5472 74.5791 46.9049 74.4869 46.5886C74.3663 46.1813 73.9027 45.8656 73.5498 45.5528C73.5036 45.5127 73.2376 45.7192 73.073 45.8135C73.3232 46.1277 73.5755 46.442 74.0065 46.9846C73.6753 47.0171 73.279 47.1833 73.0628 47.0526C72.3338 46.609 72.1299 45.705 72.5236 45.0934C72.943 44.4414 73.8812 44.2686 74.6086 44.7758C75.6161 45.4768 75.9402 46.5707 76.0374 47.7079C76.172 49.2935 75.8531 49.7141 74.389 50.372C71.6395 51.6082 68.8899 51.9169 66.0874 50.3406C66.2061 51.4394 66.4178 52.4359 66.4019 53.4287C66.2861 60.4536 63.7476 66.5215 58.9908 71.658C58.3741 72.3234 58.3584 72.7621 58.8819 73.4528C60.4207 75.4808 62.4929 76.7387 64.793 77.6783C66.6526 78.4383 68.545 79.1232 70.3914 79.9156C71.1502 80.2409 71.8261 80.2132 72.3718 79.6753C73.5073 78.5596 74.7057 77.4701 75.6301 76.1889C77.1657 74.0637 78.4697 71.7745 79.9429 69.6025C80.5109 68.7635 81.2087 67.9853 81.9593 67.3029C84.1437 65.3196 88.3601 65.5699 90.3732 67.7435L90.3624 68.1536C89.0821 68.4585 88.3502 69.2119 88.1666 70.4137C86.7332 69.677 85.3728 68.975 83.9273 68.2298C81.7263 69.8311 80.1776 72.2186 78.7207 74.705C77.5517 76.6981 76.4021 78.7368 74.9715 80.5364C73.1377 82.8407 70.8837 83.2648 68.1875 82.0913C67.0393 81.5918 66.0022 80.8428 64.8783 80.2783C63.8413 79.7591 62.7568 79.333 61.4301 78.7509C61.591 79.344 61.6364 79.5668 61.7107 79.7821C63.2452 84.1513 64.8294 88.5033 66.3038 92.8935C67.4718 96.375 67.654 99.9666 67.1149 103.597L65.6835 103.56C65.5965 101.182 65.7362 98.768 65.3751 96.4339C64.6385 91.6892 62.8928 87.2407 60.8277 82.9153C60.5048 82.2421 60.4238 81.4274 60.3474 80.6662C60.2449 79.652 60.2885 78.623 60.2005 77.605C60.1783 77.3582 59.9317 77.0584 59.7052 76.9336C59.5939 76.8733 59.2489 77.1188 59.0862 77.2952C58.5561 77.8663 58.062 78.4712 57.5497 79.0654C58.6351 80.934 59.6892 82.7443 60.7531 84.5754C59.8998 85.1854 59.1384 85.7301 58.3039 86.3262C59.5216 87.7714 59.5233 89.4171 59.4798 91.0658C59.407 93.8217 59.5567 96.6245 58.0767 99.1287C57.8383 99.5329 57.4319 99.9226 57.0102 100.117C56.2749 100.455 55.8741 100.869 55.8923 101.734C55.9 102.14 55.5895 102.555 55.4226 102.967C55.09 102.663 54.5958 102.419 54.4621 102.044C54.1849 101.273 53.6889 100.936 52.9496 100.728C50.6092 100.069 48.9344 98.6057 47.6136 96.5566C46.1411 94.2718 44.4515 92.125 42.8474 89.927C42.186 89.0194 41.4702 88.1494 40.8318 87.2259C40.2962 86.4488 39.976 85.5992 40.3259 84.6254C40.6736 83.6597 40.3839 83.1269 39.2876 83.1499C38.3841 83.1697 38.0104 82.7128 37.8784 81.8065C37.7115 80.6654 37.3779 79.5467 37.0439 78.4382C36.9495 78.128 36.6424 77.7138 36.367 77.6534C34.8144 77.3117 33.2388 77.0638 31.6723 76.7833C31.5718 76.8608 31.4712 76.9382 31.3707 77.0157C35.1659 82.4937 38.0382 88.2681 37.2226 95.2956C37.9048 95.1839 38.3256 95.1004 38.7517 95.0498C39.8489 94.9201 41.1266 94.715 41.794 95.7069C42.5463 96.8241 43.4794 96.8461 44.5637 96.8145C45.075 96.801 45.5924 96.7897 46.0953 96.8602C46.4019 96.905 46.6859 97.1093 46.9799 97.2441C46.959 97.3359 46.936 97.4277 46.9151 97.5195C46.5913 97.5829 46.269 97.6649 45.9417 97.7057C44.1835 97.9231 42.4275 98.2122 40.6623 98.3104C39.6142 98.3675 39.5387 98.817 39.6148 99.6664C39.6796 100.399 39.6021 101.158 39.466 101.883C39.423 102.114 38.9965 102.41 38.7378 102.418C38.5591 102.424 38.2033 101.986 38.2076 101.748C38.2205 100.87 38.3503 99.9949 38.4309 99.1167C38.5433 97.8925 39.0253 97.0452 40.4312 97.1122C40.4558 97.1129 40.4833 97.0069 40.5506 96.865C39.3896 96.5395 38.2714 96.7672 37.3453 97.3322C36.9574 97.5705 36.9543 98.4631 36.8091 99.0667C36.7468 99.3277 36.7681 99.6094 36.7506 99.8819C36.6659 101.148 36.1975 102.18 34.9979 102.769L34.1797 102.748L34.1778 102.742ZM55.1166 50.8313C56.8943 47.1549 60.2372 46.6029 63.9745 46.4263C63.6812 44.8695 63.4874 43.4261 63.1345 42.0258C62.0828 37.8681 59.4987 34.9369 55.4176 33.7585C52.151 32.8166 48.6835 32.955 45.4014 33.923C38.8889 35.844 32.5694 38.3014 26.4247 41.2127C22.6219 43.0148 20.0197 45.8205 18.911 49.8856C18.1339 52.7383 18.0214 55.6758 18.2577 58.6183C18.5104 61.793 19.6396 64.6456 21.5153 67.2056C21.6579 67.4001 21.8611 67.5531 22.1232 67.8081C21.9758 65.3851 21.8712 63.1314 21.6883 60.8859C21.6168 60.0202 21.3169 59.1753 21.2125 58.3107C21.058 57.014 21.0558 55.6987 20.86 54.4091C20.6221 52.8496 20.6142 51.4397 21.8211 50.1822C22.6884 49.2771 23.3896 48.2117 24.1327 47.1926C26.9306 43.3475 30.5914 41.3263 35.4416 41.7448C35.892 41.7831 36.3573 41.6473 36.8699 41.5867C36.6667 40.654 36.491 39.8492 36.3152 39.0444C36.4437 38.9964 36.5701 38.9504 36.6986 38.9024C36.9598 39.2703 37.2832 39.6111 37.4675 40.0139C37.9643 41.0958 38.4815 42.1802 38.8477 43.31C39.8266 46.3352 40.6901 49.3841 40.0441 52.6322C39.1779 56.9928 34.8397 59.489 30.778 57.6504C28.6407 56.6842 26.7782 55.1034 24.7999 53.7863C23.9973 53.2526 23.2203 52.6827 22.2351 51.9904C22.1759 52.6783 22.0834 53.074 22.1162 53.4606C22.2199 54.6637 22.375 55.864 22.5053 57.0657C22.7167 59.0102 22.9259 60.9568 23.1392 62.9034C23.169 63.171 23.2379 63.4375 23.2411 63.7063C23.2638 65.5681 23.2618 67.4312 23.3049 69.2934C23.3112 69.5214 23.4838 69.8233 23.6753 69.9555C26.1293 71.6726 28.5351 73.5055 31.4872 74.3121C35.9266 75.5244 40.4954 75.6422 44.9912 75.1035C58.9256 73.4313 66.1155 61.5532 64.4811 50.9435C64.3674 50.1977 64.1303 50.0069 63.4022 49.9923C61.2058 49.9459 60.0262 51.3313 58.9535 52.9432C58.6992 53.3265 58.3976 53.8687 58.0281 53.9515C55.8046 54.4605 53.5541 54.9832 51.2684 54.3517C48.777 53.6637 48.2541 53.8021 46.6023 55.8217C46.4305 56.0327 46.2687 56.2543 46.0949 56.4632C44.6852 58.171 43.3416 59.9401 41.8418 61.5655C40.2827 63.2572 38.1258 63.1113 36.6984 61.3714C35.9071 60.4071 36.3502 58.781 37.5549 58.4633C37.9 58.3737 38.5238 58.5293 38.6914 58.786C38.9025 59.1095 38.806 59.6549 38.7717 60.0993C38.7651 60.1935 38.4325 60.3532 38.2857 60.3207C38.1592 60.2928 38.0303 60.0453 37.9999 59.8762C37.9695 59.7031 38.0567 59.5104 38.1159 59.2123C37.3448 59.4284 37.1136 59.9437 37.4758 60.3716C37.8221 60.7786 38.4561 61.0945 38.9864 61.1369C39.3222 61.1641 39.8827 60.6881 40.0384 60.3104C41.2989 57.2588 42.8259 54.3721 45.1901 52.0302C46.9832 50.2543 49.1567 49.387 51.714 49.9105C52.8386 50.1406 53.937 50.5075 55.1145 50.8312L55.1166 50.8313ZM17.0712 33.999C17.2447 34.3421 17.3282 34.5248 17.4283 34.6977C18.425 36.4286 17.9397 36.2314 19.7955 35.6595C28.0254 33.1262 36.244 30.5515 44.4664 27.9893C46.4031 27.3846 48.3378 26.7738 50.2829 26.1632C49.5837 24.4318 49.4377 24.3644 47.9092 24.8216C39.5904 27.3034 31.2698 29.7769 22.9512 32.2526C21.0339 32.8228 19.1146 33.393 17.0732 33.9991L17.0712 33.999ZM51.813 84.2444C50.7196 84.3085 50.3502 84.7771 50.2684 85.6204C50.0761 87.6182 49.8019 89.6077 49.6158 91.6056C49.5816 91.9699 49.7049 92.4266 49.9187 92.7235C50.4729 93.495 51.094 94.2209 51.732 94.9248C52.4619 95.7275 53.4328 95.7956 54.2785 95.1608C55.0008 94.6192 55.8083 92.3234 55.4233 91.5173C54.2568 89.0659 53.0135 86.6495 51.813 84.2444ZM36.0633 43.2218C34.9307 43.1413 34.0923 43.1074 33.2617 43.0121C32.5559 42.9303 32.1615 43.1787 31.8342 43.8392C30.3557 46.8318 28.8387 49.807 27.2833 52.7608C26.944 53.4066 27.0387 53.8646 27.5219 54.2915C27.9431 54.6615 28.415 54.9753 28.9844 55.4024C31.7386 51.5788 33.892 47.5858 36.0633 43.2218ZM46.693 81.295C45.3012 82.87 44.5608 84.4883 44.9198 86.5126C45.4415 89.4481 46.7829 92.0353 48.1903 94.6119C48.7403 95.6213 49.5442 95.6399 50.657 95.6173C50.1626 95.0649 49.8154 94.6168 49.4048 94.2349C48.4214 93.319 48.1447 92.2202 48.3229 90.9095C48.601 88.8503 48.8116 86.7812 49.0221 84.7142C49.055 84.401 49.0433 83.9883 48.8686 83.7683C48.2152 82.9451 47.4863 82.1835 46.691 81.295L46.693 81.295ZM44.5054 89.073C44.2494 87.6547 43.9914 86.3902 43.8013 85.1192C43.6094 83.84 43.5535 82.5356 43.3058 81.2693C43.058 80.0071 42.6804 78.7662 42.2839 77.5391C42.1947 77.266 41.7972 76.9336 41.5187 76.91C40.3044 76.813 39.0833 76.8185 37.8796 76.7874C37.8294 77.057 37.7732 77.1643 37.7997 77.2491C38.2245 78.6451 38.6349 80.0449 39.1219 81.42C39.1963 81.6332 39.633 81.8025 39.9194 81.8365C40.5659 81.9107 41.2251 81.8887 41.8137 81.9039C41.9496 83.4381 40.7907 84.664 41.7594 85.9797C42.5538 87.059 43.0564 88.3852 44.5054 89.073ZM34.049 87.2583C33.9136 87.2589 33.7781 87.2595 33.6427 87.2602C31.6084 90.3164 30.7647 93.8282 29.7039 97.4759C31.3816 97.0431 32.8271 96.6966 34.252 96.2778C34.4609 96.2155 34.7051 95.8278 34.7115 95.5858C34.765 93.7158 34.8412 91.8403 34.7447 89.9746C34.6971 89.0602 34.2939 88.1634 34.0511 87.2584L34.049 87.2583ZM56.1531 94.1093C57.335 93.7232 57.7602 93.0878 57.958 92.2003C59.0144 87.4731 56.0663 84.1078 54.0265 80.3822C53.5373 81.1104 53.2586 81.8727 52.8508 82.5537C52.5159 83.1114 52.6311 83.4919 52.9228 84.0227C53.986 85.9543 55.0283 87.9039 55.9709 89.896C56.5714 91.1673 57.2442 92.4999 56.1531 94.1093ZM31.6403 56.6261C32.9351 56.6267 33.8183 56.8259 34.4445 55.8038C35.7206 53.717 37.0975 51.6944 38.422 49.6376C39.1517 48.5032 38.9629 47.0291 37.8366 46.1649C35.8091 49.5887 33.7945 52.9881 31.6403 56.6261ZM48.8771 76.3733C46.5331 79.1158 46.5881 79.9832 49.1488 82.093C49.4119 82.309 49.6729 82.5271 49.9488 82.7251C50.6537 83.2296 51.2547 83.0829 51.5426 82.2839C51.8081 81.5521 52.0537 80.7992 52.1807 80.033C52.2393 79.6754 52.118 79.1429 51.8697 78.9087C50.9346 78.0289 49.9152 77.2373 48.8771 76.3713L48.8771 76.3733ZM58.5251 76.2424C57.841 75.5723 57.212 74.9138 56.5363 74.3116C56.3098 74.1087 55.8116 73.8579 55.6963 73.9513C55.4195 74.1761 55.1812 74.5741 55.1328 74.9299C54.9584 76.173 54.8617 77.4284 54.7608 78.6816C54.7427 78.9027 54.8097 79.163 54.9216 79.3547C56.0069 81.2274 57.1089 83.0923 58.2087 84.9592C59.4754 84.1588 59.4785 84.0439 58.7201 82.9225C57.9776 81.8219 57.3228 80.6621 56.5845 79.5576C56.2332 79.0315 56.3007 78.6495 56.7225 78.2192C57.3151 77.6148 57.8655 76.9723 58.527 76.2445L58.5251 76.2424ZM25.6796 51.8658C27.2958 49.0983 28.8132 46.4986 30.4208 43.7453C26.9595 44.1937 24.0572 49.4293 25.6796 51.8658ZM30.1593 55.9826C30.2114 56.1071 30.2636 56.2295 30.3157 56.3539C30.6268 56.2286 31.0997 56.1915 31.2248 55.9629C33.2522 52.3093 35.2432 48.6363 37.2059 44.9483C37.3355 44.7033 37.1655 44.3008 37.1352 43.9718C36.9062 44.1731 36.5943 44.3313 36.4624 44.5844C35.3197 46.7484 34.2479 48.9492 33.0729 51.0961C32.163 52.7593 31.1359 54.356 30.1593 55.9826ZM54.366 96.4332C54.3865 97.2114 54.3702 98.0626 54.4382 98.9077C54.5016 99.6911 54.8696 99.9776 55.6835 99.6149C57.2846 98.8969 58.3601 96.2468 57.7474 94.5033C56.6452 95.1336 55.5327 95.7677 54.3659 96.4352L54.366 96.4332ZM44.8506 81.5943C44.9504 81.6236 45.0522 81.6529 45.152 81.6821C45.8008 80.0368 46.4475 78.3914 47.2174 76.4372C45.8837 76.6634 44.8758 76.8344 43.9028 77.0002C43.8596 77.2391 43.8054 77.3465 43.8277 77.4353C44.1625 78.8229 44.5076 80.2086 44.8486 81.5943L44.8506 81.5943ZM49.2033 96.5053C50.4182 98.4429 52.2117 99.8414 53.5007 99.6735C53.4065 98.8113 53.3392 97.9395 53.1977 97.0823C53.1677 96.8968 52.8813 96.6288 52.699 96.6159C51.5313 96.5448 50.3578 96.535 49.2033 96.5053ZM54.3754 74.3954C52.7634 74.9817 51.514 75.4379 50.0367 75.9743C51.2358 76.8035 52.2757 77.5218 53.5856 78.4276C53.8584 77.0332 54.0884 75.8613 54.3754 74.3954ZM38.8922 50.4048C37.7344 52.2874 36.6795 54.0044 35.481 55.9515C38.3813 54.6761 39.6511 52.5933 38.8922 50.4048Z" fill="black"/>
<path d="M41.8038 37.195C42.3936 36.6192 42.819 36.2054 43.3141 35.7195C45.5571 38.2787 48.4954 38.3627 51.4612 38.2627C53.3671 38.199 55.2682 38.0079 57.1716 37.8866C57.6999 37.8531 58.2334 37.8545 58.7631 37.8415C58.8134 37.9577 58.8636 38.076 58.9139 38.1922C58.4301 38.4854 57.9464 38.7766 57.375 39.1231C59.2002 40.0976 58.4794 41.7493 58.3157 43.2841C58.1439 44.8945 57.8399 46.4626 56.729 47.7329C55.2732 49.3984 51.9982 49.8639 49.9054 48.6896C49.1936 48.2896 48.5014 47.849 47.8495 47.3582C45.928 45.9113 45.1895 42.8718 46.3005 40.7418C46.6896 39.9967 46.5225 39.6394 45.8482 39.2999C44.5521 38.6468 43.2692 37.9612 41.8037 37.197L41.8038 37.195ZM53.722 41.7005C52.1236 42.6279 50.5934 43.3825 49.2135 44.3503C47.821 45.3281 47.973 46.4914 49.5132 47.2226C51.3533 48.097 53.1878 47.7893 54.8995 46.8444C56.7008 45.8484 57.4776 43.9396 56.976 41.9547C56.9184 41.7255 56.5675 41.5708 56.3529 41.3805C56.283 41.6209 56.1844 41.8584 56.1532 42.1059C56.1275 42.3022 56.2744 42.5687 56.1888 42.7019C55.9129 43.1236 55.6276 43.6724 55.2173 43.8239C54.981 43.9122 54.4307 43.3829 54.1445 43.0288C53.9299 42.7647 53.9124 42.3395 53.7221 41.6985L53.722 41.7005ZM48.2286 43.6478C50.5795 41.4985 53.5624 41.5282 56.2911 40.6915C56.1472 40.5483 56.1078 40.4837 56.051 40.4596C53.4567 39.3934 51.1005 40.2663 48.8245 41.4409C48.0569 41.8377 47.9573 42.6538 48.2286 43.6478Z" fill="black"/>
<path d="M50.601 56.1806C50.6251 57.2113 50.568 58.1291 50.6901 59.0228C50.809 59.8836 51.1173 60.7185 51.345 61.5779C50.3479 61.6466 49.2666 60.8657 48.9664 59.7232C48.7725 58.9857 48.7264 58.1657 48.8183 57.4068C48.9316 56.4576 49.7349 56.2629 50.601 56.1826L50.601 56.1806Z" fill="black"/>
<path d="M59.2921 57.193C56.8524 57.7292 54.4315 57.3221 52.4964 58.9569C52.3972 58.8291 52.2959 58.7013 52.1967 58.5736C52.461 58.1208 52.6298 57.5568 53.0056 57.234C54.3179 56.1064 57.5926 56.0431 59.2941 57.193L59.2921 57.193Z" fill="black"/>
<path d="M60.919 58.7042C60.9586 58.2948 60.9453 58.0195 61.0155 57.7689C61.2831 56.8073 61.0389 56.0315 60.238 55.4302C60.1032 55.3302 59.944 55.2194 59.8801 55.0762C59.7232 54.7213 59.6141 54.3471 59.4863 53.9785C59.9157 54.0388 60.4472 53.9581 60.7532 54.1835C62.0577 55.1385 62.2124 57.8285 60.919 58.7042Z" fill="black"/>
<path d="M53.9734 60.0091C54.1461 59.6073 54.1944 59.1756 54.4355 58.9828C55.3998 58.2115 56.8827 58.3154 57.8764 59.1515C56.6628 59.4177 55.4553 59.6841 53.9733 60.0112L53.9734 60.0091Z" fill="black"/>
</svg>
