<svg width="75" height="97" viewBox="0 0 75 97" fill="none" xmlns="http://www.w3.org/2000/svg">
<path d="M48.5583 2.49408C45.5793 1.8229 42.6275 1.12352 42.0143 0.939646C41.2892 0.702172 39.5677 0.592395 37.0995 0.606123C34.9921 0.641526 31.9999 0.830495 30.4222 1.02344C28.8718 1.18818 26.9651 1.60857 26.2215 1.9262C25.4498 2.21656 24.2913 2.59664 23.6004 2.74694C22.9091 2.86951 21.501 3.25378 20.4243 3.54927C19.3476 3.84475 17.8046 4.45321 16.9802 4.91089C16.1559 5.36857 14.5344 6.25574 13.4078 6.88494C12.2535 7.5146 10.8016 8.5931 10.1205 9.32577C9.43942 10.0584 8.49085 11.3781 8.00665 12.2739C7.54972 13.1415 7.03594 13.9269 6.87097 14.0129C6.706 14.0989 6.40985 14.6309 6.17008 15.2174C5.92985 15.7763 5.53024 16.7539 5.23548 17.3691C4.96845 17.9839 4.72962 18.6259 4.73195 18.7645C4.73428 18.9032 4.35913 19.6862 3.87261 20.4433C3.38655 21.2282 2.90702 22.4013 2.80776 23.0965C2.73622 23.7912 2.56076 24.9037 2.4615 25.5989C2.36224 26.294 2.17979 26.9906 2.07121 27.1311C1.9349 27.2721 1.70957 28.7183 1.57023 30.3296C1.45861 31.9403 1.16455 34.2477 0.963228 35.4716C0.737902 36.9178 0.644457 39.6101 0.704558 43.1875C0.766056 46.8481 0.910509 48.843 1.13932 49.2552C1.3686 49.6952 1.47648 51.1636 1.46482 53.7713C1.45363 56.4067 1.56383 58.0138 1.82596 58.7583C2.0303 59.3652 2.82857 60.6555 3.56627 61.6418C4.33169 62.6275 4.93076 63.6161 4.93448 63.8379C4.93821 64.0598 5.11389 64.6116 5.37136 65.0789C5.6011 65.5466 5.80498 66.1257 5.80964 66.403C5.81383 66.6526 5.9294 66.9281 6.09717 67.0085C6.26494 67.0889 6.44015 67.613 6.53312 68.1939C6.62562 68.7472 6.88729 69.464 7.11423 69.7653C7.34118 70.0667 7.515 70.5076 7.54646 70.729C7.55018 70.9508 7.81651 71.945 8.13828 72.9382C8.46007 73.9314 8.92421 75.1441 9.15442 75.6396C9.38416 76.1073 9.58711 76.6309 9.5899 76.7973C9.5927 76.9637 9.9958 77.8446 10.5107 78.7791C10.9984 79.7418 11.8258 81.1149 12.3102 81.8834C12.8219 82.6238 13.4459 83.4455 13.7269 83.6627C14.0079 83.8799 14.4919 84.6208 14.8085 85.3089C15.1534 86.0244 16.4549 87.5559 17.836 88.8642C19.1611 90.1457 20.9909 91.7516 21.918 92.4573C22.8447 93.1352 24.6651 94.1864 25.9786 94.7746C27.3762 95.4169 29.1055 95.9981 30.162 96.1468C31.1625 96.2687 32.579 96.3836 33.3553 96.3706C34.104 96.358 35.6244 96.055 36.6724 95.7045C37.7205 95.3541 39.4007 94.6601 40.391 94.1719C41.3808 93.6559 43.4122 92.4013 44.92 91.3496C46.4278 90.2979 49.1351 88.0055 50.9367 86.2831C52.7378 84.533 54.7571 82.5573 55.4382 81.8246C56.2015 81.0351 57.2545 79.3253 58.2196 77.3396C59.1052 75.5771 60.1563 73.7564 60.5925 73.3052C61.0287 72.8541 61.3808 72.3488 61.378 72.1824C61.4029 72.0156 61.9426 71.1188 62.5922 70.1648C63.2691 69.1825 63.8092 68.3135 63.8074 68.2026C63.805 68.0639 64.1026 67.6151 64.4551 67.1376C64.7799 66.6606 65.3468 65.7357 65.6957 65.0363C66.0722 64.3365 66.5033 63.5803 66.7214 63.3547C66.9117 63.1296 67.0946 62.4608 67.1126 61.8779C67.1536 61.0173 67.2885 60.7931 67.8125 60.6179C68.1711 60.5009 69.1281 59.6804 69.9455 58.8067C70.7347 57.9058 71.4656 56.8394 71.5418 56.422C71.6453 55.9765 71.8573 55.3904 72.0463 55.0821C72.2353 54.7738 72.7134 53.5174 73.1088 52.2903C73.5842 50.8675 73.8899 49.2535 73.9493 47.8378C74.012 46.6162 73.9022 45.0369 73.696 44.3191C73.4866 43.4072 73.45 42.8808 73.6403 42.6557C73.8302 42.4028 73.8193 40.1006 73.638 35.915C73.468 32.3949 73.2513 29.4027 73.138 29.2659C73.0248 29.1291 72.7543 27.8854 72.5369 26.5021C72.3472 25.1183 71.9926 23.8205 71.7948 23.6019C71.5692 23.3837 71.3663 22.8601 71.3593 22.4441C71.3518 22.0004 71.2621 21.6136 71.1226 21.5604C71.0107 21.5068 70.8369 21.0659 70.6903 20.5968C70.5715 20.1272 70.1698 19.3295 69.8014 18.8642C69.4326 18.371 68.919 17.5197 68.6606 16.997C68.4022 16.4743 68.0301 15.7871 67.8309 15.4853C67.6317 15.1835 67.0058 14.2509 66.4373 13.4282C65.8688 12.6056 64.6522 11.1836 63.7491 10.2556C62.8464 9.35537 61.1585 7.94127 60.0077 7.12841C58.8569 6.31556 57.6506 5.50364 57.3424 5.31464C57.0346 5.15337 56.6704 4.93758 56.5026 4.85717C56.3353 4.80451 55.9161 4.61737 55.5252 4.4575C55.1346 4.32537 54.6313 4.08417 54.4072 3.94923C54.183 3.8143 51.5373 3.16526 48.5583 2.49408Z" fill="black"/>
<path d="M29.7237 12.2412C29.4168 12.1354 27.8608 11.9673 26.2507 11.8834C24.6402 11.7718 22.1992 11.7573 20.841 11.8079C19.2887 11.8617 17.9887 12.0777 17.3834 12.3653C16.8603 12.596 15.6754 13.0597 14.7651 13.3524C13.3584 13.8199 13.0299 14.075 12.5189 15.0268C12.1687 15.6429 11.6591 16.6778 11.3648 17.3208C11.071 17.9915 10.8331 18.689 10.8359 18.8554C10.8391 19.0495 10.4931 19.9152 10.0634 20.7546C9.47346 21.9573 9.26608 22.8207 9.1328 24.7925C9.04471 26.1532 8.82265 27.7936 8.61108 28.4074C8.3995 29.0212 8.25504 30.3274 8.27181 31.3258C8.28858 32.3241 8.11731 33.6862 7.90714 34.3832C7.64291 35.1644 7.52849 36.6088 7.55645 38.2727C7.58595 40.029 7.43597 41.5572 7.10649 42.8573C6.81919 43.9162 6.51162 45.4193 6.38555 46.1704C6.28676 46.8933 6.10385 47.5621 5.96614 47.6199C5.85616 47.6772 5.79208 48.8156 5.81444 50.1467C5.83727 51.5056 5.75245 53.0604 5.65132 53.6447C5.54973 54.2012 5.39129 54.6754 5.25264 54.6777C5.14173 54.6796 4.46648 54.1084 2.49106 52.0889L2.62782 55.2766C2.79091 58.3807 2.8205 58.4912 3.78607 59.8342C4.32549 60.5741 5.20555 61.7798 5.74449 62.492C6.33982 63.2587 7.15557 63.9385 7.79797 64.2051C8.57947 64.4971 8.80502 64.7152 8.67244 65.0781C8.56619 65.3573 8.44385 66.3302 8.40378 67.2463C8.33783 68.2738 8.49883 69.6026 8.79475 70.7072C9.06107 71.7013 9.38704 72.9441 9.50681 73.4692C9.65429 73.9937 10.1767 75.3719 10.6949 76.5006C11.2131 77.6292 11.8441 78.8669 12.0724 79.2514C12.3285 79.6354 13.467 81.3639 14.6331 83.0919C15.9408 84.984 17.6121 87.0641 18.9086 88.2906C20.0927 89.4358 21.7529 90.8503 22.595 91.4464C23.4375 92.0703 24.7824 92.8799 25.5376 93.2556C26.3205 93.6308 27.4944 94.1658 28.1927 94.4592C28.9469 94.7794 30.3939 95.0603 31.8099 95.1474C33.7809 95.253 34.4732 95.1859 35.9621 94.6616C36.9552 94.3398 38.1677 93.8756 38.6631 93.6453C39.1307 93.4155 40.0111 92.9847 40.5891 92.7253C41.139 92.4387 41.9911 91.9805 42.4292 91.6403C42.8955 91.3273 43.7993 90.6464 44.4286 90.1365C45.0585 89.6543 45.6615 89.2281 45.8001 89.2258C45.911 89.2239 46.7322 88.5721 47.6059 87.753C48.5074 86.9334 50.1446 85.3247 51.235 84.1968C52.326 83.0967 53.4197 82.1629 53.6415 82.1591C53.8634 82.1554 54.0556 82.0412 54.0528 81.8748C54.05 81.7084 54.2662 81.3719 54.5388 81.09C54.7842 80.8362 55.2999 80.1618 55.6792 79.6284C56.0308 79.0954 56.7834 77.668 57.3457 76.4658C57.9084 75.2913 58.7714 73.8343 59.2612 73.2713C59.8051 72.6241 60.3142 71.5615 60.6001 70.4194C60.8883 69.4159 61.1903 67.58 61.3085 66.3575C61.4266 65.135 61.62 63.4396 61.7169 62.6058C61.8863 61.1327 61.9131 61.0768 62.8531 60.8946C63.3785 60.8025 64.1784 60.5394 64.6456 60.2819C65.1132 60.0522 65.9682 59.7604 66.5763 59.6392C67.4063 59.5143 68.0098 59.1158 68.9639 58.1289C69.7 57.3676 70.3496 56.4135 70.4249 55.9407C70.5279 55.4674 70.9261 54.4066 71.328 53.5676C71.73 52.7287 72.2594 51.2219 72.5199 50.2189C72.8316 48.9654 72.9235 47.8265 72.7897 46.4695C72.7166 45.4166 72.4155 44.007 72.1548 43.3456C71.778 42.381 71.5525 42.1629 70.8015 42.0368C70.2178 41.9634 69.6646 42.0559 69.3361 42.3111C69.0348 42.5381 68.3791 43.1316 67.9166 43.6665C67.4264 44.2017 66.53 45.3264 65.934 46.1686C65.3379 47.0108 64.5031 48.495 64.0475 49.4458C63.6202 50.4239 63.1351 51.2642 62.9701 51.3502C62.8051 51.4362 62.4013 52.1642 62.0539 52.9467C61.7347 53.7566 61.3614 54.6505 61.2547 54.9019C61.1762 55.1807 60.9026 55.4072 60.6808 55.4109C60.459 55.4146 59.8678 54.8975 59.413 54.2394C58.9309 53.6095 58.5005 52.7568 58.4099 52.3145C58.3197 51.8999 58.1468 51.5144 57.9791 51.434C57.8113 51.3536 57.6962 51.1059 57.6925 50.8841C57.6888 50.6622 57.5121 50.0549 57.3097 49.559C57.0799 49.0913 56.6102 47.5458 56.2269 46.193C55.7539 44.4533 55.4407 42.3226 55.2208 39.1363C55.0398 36.615 54.8583 34.066 54.8198 33.4287C54.7462 32.3481 54.6893 32.2658 53.2368 31.6522C52.0915 31.1721 51.2199 30.4655 49.5809 28.6623C48.3944 27.3784 47.1789 26.0119 46.8955 25.656C46.5845 25.3006 45.9859 24.3398 45.5287 23.543C45.0997 22.7735 44.7253 21.9476 44.722 21.7535C44.7192 21.5871 44.2875 20.6512 43.7725 19.7167C43.0283 18.3423 42.6327 17.9051 41.5984 17.4231C40.8996 17.102 40.1444 16.7263 39.9203 16.5914C39.6966 16.4842 39.3051 16.2966 39.0819 16.2171C38.8587 16.1377 38.0481 15.7629 37.2661 15.4432C36.5114 15.0953 35.0583 14.4539 34.0527 14.027L34.0524 14.0269C33.0468 13.5999 31.7899 13.0663 31.2589 12.8256C30.7284 12.6126 30.0305 12.347 29.7237 12.2412Z" fill="white"/>
<path d="M23.4061 35.5934C22.4461 34.5832 21.6045 34.0148 20.5166 33.6447C19.3446 33.2206 18.4554 33.1245 16.6263 33.2108C15.3241 33.2881 14.0236 33.4764 13.7214 33.6479C13.4192 33.8194 12.6475 34.1098 11.9848 34.2874C11.2394 34.4941 10.3619 35.0913 9.46135 35.9664C8.72482 36.7 8.10059 37.5149 8.10525 37.7922C8.10944 38.0418 8.28093 38.3441 8.4487 38.4245C8.64419 38.5044 9.30593 38.2714 9.91082 37.9561C10.5152 37.6131 11.9482 37.0619 13.0804 36.7655C14.2121 36.4414 15.7612 36.1934 16.5375 36.1804C17.3694 36.1664 18.5941 36.4232 19.5988 36.7947C20.5199 37.1398 22.0227 37.4475 22.911 37.488C23.8546 37.5277 24.6024 37.4596 24.655 37.2923C24.7077 37.125 24.1405 36.3855 23.4061 35.5934Z" fill="black"/>
<path d="M53.9123 35.4138C53.7699 35.1943 52.7324 34.5182 51.5857 33.9549L49.488 32.9083L45.8274 32.9421C42.8046 32.9651 41.9188 33.0632 40.9557 33.5232C40.3226 33.8113 39.5791 34.1289 39.3037 34.2445C39.0556 34.3319 38.5385 34.9231 38.1606 35.5397C37.7826 36.1563 37.4893 36.8548 37.493 37.0766C37.4967 37.2985 37.6118 37.5462 37.7796 37.6266C37.9474 37.707 38.5832 37.5853 39.2173 37.3528C39.879 37.1197 41.0098 36.7401 41.782 36.4775C42.6646 36.1853 44.1596 36.0215 45.9341 35.9916C47.4592 35.966 49.2633 36.0467 49.9593 36.2014C50.6549 36.3284 51.7954 36.5312 52.5182 36.63C53.6301 36.7778 53.851 36.7186 53.9554 36.3285C54.0617 36.0493 54.0269 35.6338 53.9123 35.4138Z" fill="black"/>
<path d="M49.1676 38.6003C48.161 38.1179 46.9626 37.7774 45.6853 37.6879C44.6298 37.5947 43.1038 37.5649 42.3561 37.6329C41.5806 37.7014 40.3366 37.9442 39.5912 38.1509C38.8186 38.3858 37.8001 38.8468 37.3061 39.1602C36.8121 39.4736 36.3506 40.0639 36.2744 40.4813C36.1709 40.9269 36.2093 41.5642 36.3545 41.9502C36.5283 42.3911 37.1749 42.9073 38.1538 43.3901C39.1604 43.8725 40.386 44.1848 41.7747 44.3002C42.9139 44.4197 44.7439 44.389 45.7952 44.2326C47.0129 44.0735 48.3101 43.6911 49.2449 43.2038C50.2897 42.6592 50.8359 42.1507 51.0211 41.6205C51.1976 41.1183 51.1892 40.6191 50.996 40.123C50.8027 39.627 50.1933 39.1194 49.1676 38.6003Z" fill="black"/>
<path d="M23.1621 39.2314C22.6034 38.9911 21.3787 38.7343 20.4618 38.6388C19.5449 38.5432 18.2413 38.5374 17.549 38.6045C16.8567 38.6716 15.6132 38.9421 14.7851 39.178C13.8743 39.4429 12.9676 39.9575 12.5042 40.4368C11.9867 41.0003 11.7737 41.5309 11.7853 42.2242C11.7979 42.973 11.9985 43.358 12.6451 43.8742C13.0953 44.255 14.2128 44.7355 15.0765 44.9706C15.968 45.2053 17.635 45.3715 18.7718 45.3524C19.9086 45.3333 21.5413 45.1117 22.3694 44.8759C23.2525 44.6114 24.2419 44.0677 24.7603 43.5597C25.3878 42.9389 25.6567 42.435 25.6469 41.8527C25.6381 41.3258 25.3787 40.7476 24.9281 40.3391C24.5334 39.9573 23.7486 39.4712 23.1621 39.2314Z" fill="black"/>
<path d="M48.2248 45.2182C49.0247 44.9551 49.5459 44.6135 49.5418 44.3639C49.538 44.142 49.4793 43.9488 49.3961 43.9502C49.3129 43.9516 48.7894 44.1546 48.2113 44.414C47.6605 44.6451 46.141 45.0035 44.8401 45.1641C42.7925 45.4481 42.1815 45.4029 40.2604 44.9636C39.0352 44.6791 37.8096 44.3668 37.531 44.2883C37.2245 44.2102 37.0596 44.2962 37.0642 44.5735C37.0694 44.8785 37.8227 45.1433 39.632 45.529C41.6922 45.9937 42.6918 46.0601 44.575 45.8898C45.8763 45.757 47.5081 45.4799 48.2248 45.2182Z" fill="black"/>
<path d="M23.6899 45.88C24.1852 45.6498 24.5411 45.3664 24.4555 45.2292C24.3973 45.0637 23.8437 45.1285 23.1542 45.362C22.4925 45.595 20.723 45.9299 19.1998 46.0664C17.0681 46.2964 16.1526 46.2841 15.177 45.9953C14.4801 45.7851 13.8099 45.519 13.6412 45.3831C13.4998 45.219 13.1652 45.1137 12.8879 45.1184C12.6106 45.123 12.3902 45.2099 12.3921 45.3209C12.3944 45.4595 12.7313 45.7035 13.151 45.9184C13.5702 46.1055 14.4358 46.4516 15.049 46.6355C15.9697 46.9529 16.7465 46.9676 19.4874 46.6719C21.3141 46.447 23.2222 46.1098 23.6899 45.88Z" fill="black"/>
<path d="M25.216 54.1763C25.5676 53.6433 25.7801 53.0849 25.6946 52.9477C25.5809 52.7832 25.385 52.6755 25.1904 52.651C24.9963 52.6543 24.4774 53.1346 24.0435 53.7244C23.6097 54.3142 23.0682 55.1 22.8806 55.4915C22.693 55.883 22.5665 56.6064 22.5744 57.0778C22.5828 57.577 22.7007 57.9911 22.8671 57.9883C23.0334 57.9855 23.1378 57.5954 23.1304 57.1517C23.1206 56.5693 23.3354 56.1496 23.8553 55.7248C24.2933 55.3846 24.8922 54.7088 25.216 54.1763Z" fill="black"/>
<path d="M40.9051 55.2719C40.9517 54.7441 40.666 54.2496 39.9898 53.6229C39.4546 53.1326 38.8653 52.7264 38.6713 52.7297C38.4772 52.7329 38.3136 52.9021 38.3164 53.0685C38.3196 53.2626 38.6326 53.7289 39.0273 54.1107C39.422 54.4924 39.7359 55.0142 39.74 55.2638C39.7447 55.5411 39.309 56.02 38.7873 56.3339C38.1829 56.6769 37.8298 57.1267 37.8354 57.4594C37.8406 57.7645 37.9566 58.0677 38.1244 58.1481C38.2921 58.2285 38.6493 58.0283 38.9492 57.7181C39.2491 57.408 39.6885 57.1509 39.9104 57.1472C40.1322 57.1435 40.433 56.8888 40.5942 56.5809C40.7555 56.2731 40.8843 55.6884 40.9051 55.2719Z" fill="black"/>
<path d="M36.583 57.2031C36.687 56.7852 36.5977 56.4261 36.374 56.3189C36.1781 56.2113 35.5385 56.1111 34.9562 56.1208C34.1243 56.1348 33.7667 56.3073 33.1147 57.1227C32.4618 57.8826 32.3306 58.3286 32.3719 59.1324C32.4718 60.1293 32.5282 60.1839 33.4996 60.223C34.4438 60.2904 34.6633 60.148 35.5051 59.0797C36.0212 58.4331 36.5064 57.5927 36.583 57.2031Z" fill="black"/>
<path d="M27.0633 58.4726C27.0887 58.3335 26.6099 57.8977 26.0211 57.5192C25.4045 57.1412 24.7062 56.8478 24.4289 56.8525C24.1794 56.8567 23.9054 57.0555 23.8259 57.2787C23.7464 57.502 24.0354 58.1906 24.4615 58.7937C25.0009 59.5336 25.4506 59.8867 25.8666 59.8797C26.227 59.8736 26.611 59.6175 26.7723 59.3097C26.9335 59.0018 27.0661 58.639 27.0633 58.4726Z" fill="black"/>
<path d="M35.6444 64.0705C35.5135 62.8799 35.2768 61.9962 34.9662 61.6686C34.7115 61.3677 34.3191 61.1247 34.125 61.1279C33.9032 61.1317 33.7396 61.3008 33.7424 61.4672C33.7734 61.6609 33.9477 62.1295 34.176 62.514C34.4044 62.8986 34.5838 63.6723 34.6208 64.2264C34.6306 64.8088 34.4764 65.5326 34.2874 65.8409C34.0448 66.2611 34.0481 66.4552 34.3023 66.7283C34.5843 67.001 34.7779 66.97 35.2418 66.5184C35.7602 66.0104 35.811 65.7321 35.6444 64.0705Z" fill="black"/>
<path d="M19.2492 62.21C19.3883 62.2354 19.3018 62.0427 19.0758 61.7968C18.878 61.5783 18.4865 61.3907 18.237 61.3948C17.9874 61.399 17.2416 61.578 16.5521 61.8115C15.5872 62.1606 15.2042 62.4722 14.8286 63.2274C14.5883 63.7863 14.3791 64.5388 14.3856 64.927C14.3921 65.3152 14.456 65.8135 14.5429 66.0339C14.6298 66.2544 14.7994 66.4457 14.9658 66.4429C15.1322 66.4401 15.2361 66.0223 15.2277 65.5231C15.2193 65.0239 15.5113 64.2423 15.8906 63.7089C16.3517 63.0909 16.9007 62.7488 17.5916 62.5985C18.172 62.4778 18.7242 62.3298 18.8346 62.3002C18.9724 62.2424 19.1383 62.2119 19.2492 62.21Z" fill="black"/>
<path d="M48.4617 64.2713C48.3161 63.8576 47.7489 63.1182 47.2692 62.627C46.5357 61.8903 46.2006 61.7572 45.3974 61.8262C44.7514 61.8925 44.4307 62.0644 44.4353 62.3417C44.4391 62.5635 44.7478 62.7803 45.1369 62.8292C45.526 62.8782 46.1134 63.1734 46.4795 63.5001C46.8178 63.8273 47.2459 64.5414 47.4211 65.0655C47.5963 65.5896 47.6662 66.4483 47.5909 66.9212C47.5166 67.4495 47.5518 67.8927 47.7195 67.9731C47.8873 68.0535 48.1905 67.9375 48.409 67.7396C48.683 67.5408 48.8396 66.9557 48.7993 66.2074C48.7886 65.5696 48.6355 64.7122 48.4617 64.2713Z" fill="black"/>
<path d="M31.6193 63.8608C31.6386 63.3611 31.4906 62.8088 31.2656 62.6184C31.0405 62.428 30.7609 62.294 30.65 62.2959C30.539 62.2978 30.4356 62.7433 30.4444 63.2702C30.4542 63.8526 30.1373 64.8011 29.6522 65.6414C29.2211 66.3976 28.901 67.152 28.987 67.317C29.0725 67.4542 29.3244 67.5887 29.5462 67.585C29.768 67.5812 30.3396 66.9336 30.7706 66.1774C31.229 65.393 31.5999 64.3604 31.6193 63.8608Z" fill="black"/>
<path d="M44.6122 67.9144C44.618 66.6105 44.5702 65.4185 44.5111 65.1976C44.4246 65.0049 44.1723 64.8427 43.9227 64.8469C43.7009 64.8506 43.0969 65.2213 42.6053 65.6734C42.1409 66.0973 41.4279 66.5809 41.0416 66.6983C40.6552 66.8158 40.1054 67.1024 39.8036 67.3017C39.5023 67.5286 39.0892 67.702 38.8951 67.7053C38.7287 67.7081 38.1493 67.8843 37.6539 68.1145C37.1862 68.3443 36.4141 68.6069 35.9445 68.7257C35.4746 68.8169 34.3137 69.0583 33.3179 69.2137C32.3224 69.3969 30.0779 69.5178 28.3301 69.4917C26.1105 69.4457 24.8322 69.3008 24.1612 68.9792C23.6301 68.7384 22.9868 68.4164 22.7631 68.3092C22.539 68.1742 22.0352 67.9053 21.6438 67.7177C21.2518 67.5024 20.4407 67.0999 19.7979 66.8056C19.1823 66.483 18.4544 66.0792 18.2011 65.8615C17.8355 65.5625 17.6969 65.5649 17.397 65.875C17.2066 66.1001 16.9095 66.5767 16.7497 66.9678C16.5621 67.3593 16.3557 68.2781 16.2578 69.0565C16.1119 70.2795 16.1415 70.3899 16.4682 70.0238C16.6863 69.7983 17.0614 69.0152 17.7479 66.951L19.2018 67.6478C20.0129 68.0502 20.7408 68.4541 20.8259 68.5636C20.9105 68.6454 21.7784 69.1302 24.6041 70.5806L29.7337 70.4945C34.3084 70.3899 35.0561 70.3218 36.655 69.7402C37.6476 69.3906 39.1356 68.8108 39.9618 68.4641C40.7876 68.0896 41.9151 67.5158 43.3961 66.5201L43.566 68.3758C43.7006 69.7882 43.8472 70.2574 44.1522 70.2522C44.4849 70.2466 44.5879 69.7733 44.6122 67.9144Z" fill="black"/>
<path d="M29.0151 90.4513C27.6776 90.0854 26.0314 89.5028 25.3322 89.1539C24.6329 88.8051 23.8246 88.569 23.5473 88.5736C23.2428 88.6065 22.9678 88.7498 22.9152 88.9171C22.8898 89.0563 23.2572 89.4662 23.7619 89.7906C24.2384 90.0877 26.1088 90.8052 27.8649 91.3305C30.6531 92.1991 31.3204 92.2988 33.01 92.1595C34.5059 92.0512 35.6648 91.6988 38.1154 90.6313C39.8496 89.8532 41.3908 89.1338 41.5548 88.9923C41.7188 88.8509 41.7433 88.6563 41.6028 88.5477C41.4896 88.4109 40.4951 88.6495 39.392 89.0287C38.3167 89.4074 36.6351 90.0181 35.6707 90.395C34.734 90.7713 33.4082 91.0987 32.715 91.1104C32.0218 91.122 30.3802 90.8167 29.0151 90.4513Z" fill="black"/>
<path d="M49.8551 39.9757C49.5454 39.7035 48.623 39.2752 47.786 38.9841C46.7258 38.6136 45.5035 38.4954 43.7562 38.497C42.3975 38.5199 41.0125 38.6264 40.7089 38.7147C40.2117 38.834 40.1599 39.0568 40.2687 40.5806C40.347 41.9386 40.2718 42.4114 39.8896 42.7784C39.4257 43.23 39.4544 43.285 40.7881 43.4291C41.5386 43.5274 43.3691 43.5244 44.8096 43.417C46.7768 43.3007 47.7722 43.1176 48.7348 42.6298C49.7255 42.1693 50.1077 41.8023 50.2088 41.2181C50.3109 40.6893 50.2216 40.3302 49.8551 39.9757Z" fill="white"/>
<path d="M24.1852 40.7676C23.8192 40.4409 22.9803 40.0389 22.2834 39.8287C21.5869 39.6462 19.9755 39.4791 18.6723 39.501C17.3686 39.4952 15.9286 39.6303 14.6606 40.0954L14.8691 44.2529L16.1751 44.3974C16.9256 44.4957 18.562 44.496 19.8638 44.3909C21.6925 44.2769 22.4938 44.097 23.4549 43.5261C24.3893 43.0111 24.716 42.645 24.7339 42.0622C24.781 41.5621 24.5795 41.1216 24.1852 40.7676Z" fill="white"/>
</svg>
