<svg width="9" height="10" viewBox="0 0 9 10" fill="none" xmlns="http://www.w3.org/2000/svg">
<g clip-path="url(#clip0_417_2788)">
<path d="M5.22504 5.40165L8.70182 1.80608C9.102 1.39223 9.102 0.722284 8.70182 0.308434C8.30164 -0.103367 7.65384 -0.103367 7.25366 0.308434L4.50195 3.15416L1.75025 0.308434C1.35007 -0.105416 0.702261 -0.105416 0.302085 0.308434C0.101997 0.515359 0.00294396 0.785795 0.00294395 1.05623C0.00294393 1.32667 0.103978 1.59915 0.302085 1.80403L3.77688 5.39755C4.17706 5.8114 4.82487 5.8114 5.22504 5.39755L5.22504 5.40165Z" fill="#da0b0b"/>
<path d="M5.22504 9.69062L8.70182 6.09709C9.102 5.68324 9.102 5.0133 8.70182 4.59945C8.30164 4.1856 7.65384 4.1856 7.25366 4.59945L4.50195 7.44518L1.75025 4.59945C1.35007 4.1856 0.702261 4.1856 0.302085 4.59945C0.101997 4.80637 0.00294396 5.07681 0.00294395 5.34725C0.00294393 5.61768 0.103978 5.89017 0.302085 6.09709L3.77688 9.69062C4.17706 10.1045 4.82487 10.1045 5.22504 9.69062Z" fill="#da0b0b"/>
</g>
<defs>
<clipPath id="clip0_417_2788">
<rect width="10" height="9" fill="white" transform="translate(9) rotate(90)"/>
</clipPath>
</defs>
</svg>
