<svg width="16" height="17" viewBox="0 0 16 17" fill="none" xmlns="http://www.w3.org/2000/svg">
<path fill-rule="evenodd" clip-rule="evenodd" d="M2.2206 3.06907C1.52779 3.75528 0.977388 4.5716 0.601005 5.47115C0.224622 6.37071 0.029676 7.33576 0.0273645 8.31087C0.0250531 9.28599 0.215422 10.252 0.587536 11.1533C0.95965 12.0546 1.50618 12.8735 2.19572 13.563C2.88526 14.2525 3.70424 14.7989 4.6056 15.171C5.50696 15.543 6.47294 15.7333 7.44805 15.7309C8.42317 15.7285 9.3882 15.5335 10.2877 15.157C11.1872 14.7805 12.0035 14.2301 12.6897 13.5372C14.0778 12.1488 14.8576 10.2658 14.8574 8.30247C14.8572 6.33914 14.0771 4.4563 12.6887 3.06814C12.0013 2.38079 11.1851 1.83558 10.287 1.46364C9.38878 1.0917 8.42614 0.900304 7.454 0.900391C5.49066 0.900566 3.60876 1.68067 2.2206 3.06907ZM7.75185 4.00657C8.37622 4.00657 8.87685 4.5222 8.87685 5.14657C8.87615 5.44621 8.7579 5.7336 8.54752 5.94696C8.33714 6.16032 8.05144 6.2826 7.75185 6.28751C7.12653 6.28751 6.61091 5.77189 6.61091 5.13064C6.61091 4.50626 7.12653 4.00564 7.75091 4.00564L7.75185 4.00657ZM9.36059 11.6472C9.32758 11.7456 9.27424 11.836 9.20403 11.9125C8.7981 12.3344 8.29841 12.5838 7.70403 12.5838C7.42278 12.5838 7.15747 12.5838 6.87622 12.5369C6.42341 12.475 5.84497 11.9125 5.92278 11.3181L6.11028 10.0994C6.23591 9.39626 6.3606 8.67814 6.48528 7.97501C6.48528 7.92814 6.50122 7.88126 6.50122 7.83439C6.50122 7.5372 6.40747 7.42845 6.11122 7.39657C5.9856 7.38064 5.86091 7.36564 5.73622 7.3347C5.5956 7.28782 5.51685 7.1622 5.53278 7.05345C5.54778 6.92782 5.62653 6.85001 5.7831 6.81907C5.86091 6.80314 5.95466 6.80314 6.04841 6.80314H8.20466C8.46997 6.80314 8.62653 6.92782 8.62653 7.19407C8.62653 7.41251 8.59466 7.63095 8.54778 7.85032C8.40716 8.6622 8.25153 9.45907 8.11091 10.2719C8.06403 10.5372 8.00122 10.8025 7.97028 11.0688C7.95435 11.1934 7.97028 11.3341 8.00122 11.4588C8.0481 11.6313 8.17372 11.725 8.34528 11.7091C8.48591 11.6931 8.62653 11.6472 8.76716 11.5844C8.87684 11.5375 8.96966 11.4588 9.07934 11.4278C9.26684 11.3659 9.40747 11.4747 9.36059 11.6472Z" fill="black"/>
</svg>
