<svg width="14" height="17" viewBox="0 0 14 17" fill="none" xmlns="http://www.w3.org/2000/svg">
<path d="M11.8435 2.42992C11.8432 2.42992 11.8428 2.42992 11.8425 2.42992H11.6471V2.23282C11.6471 1.47028 11.0263 0.85 10.2635 0.85H4.78981C4.77581 0.85 4.76421 0.851762 4.75618 0.853365C4.75541 0.853519 4.75466 0.853674 4.75395 0.853827C4.71949 0.856497 4.68779 0.863761 4.66054 0.872047L4.66053 0.871997L4.65681 0.873236L4.65681 0.873237C4.65676 0.873251 4.65637 0.873378 4.6554 0.873663L4.65 0.875209L4.64973 0.875287C4.64541 0.876517 4.63621 0.879145 4.62626 0.882873L4.62619 0.882696L4.61929 0.885686C4.58187 0.901892 4.5371 0.925415 4.49584 0.963295C4.49577 0.963353 4.49571 0.96341 4.49565 0.963468L1.06891 4.09821C1.02145 4.14082 0.993002 4.19015 0.974132 4.22786L0.973994 4.2278L0.971222 4.23403C0.967796 4.24173 0.964968 4.249 0.963397 4.25305L0.963139 4.25371L0.96052 4.26028L0.960243 4.26016L0.956925 4.26911C0.944012 4.30395 0.935639 4.33994 0.93179 4.37676C0.929188 4.38657 0.926172 4.40134 0.926172 4.41943V13.1834C0.926172 13.9483 1.54648 14.5711 2.30983 14.5711H2.50522V14.7672C2.50522 15.5297 3.12607 16.15 3.88888 16.15H11.8425C12.6053 16.15 13.2262 15.5297 13.2262 14.7672V3.81274C13.2262 3.05052 12.6059 2.43045 11.8435 2.42992ZM0.93716 4.35987L0.936783 4.36097L0.93716 4.35987ZM1.07812 4.41117C1.07909 4.40849 1.08006 4.40582 1.08006 4.4029L2.50522 14.4211H2.30983C1.62976 14.4211 1.07617 13.8659 1.07617 13.1834V4.41943C1.07617 4.41652 1.07714 4.41384 1.07812 4.41117ZM4.35474 2.27479V3.47731C4.35474 3.75922 4.12502 3.98937 3.84326 3.98942C3.84323 3.98942 3.84319 3.98942 3.84316 3.98942L2.48235 3.98715L4.35474 2.27479ZM3.84192 4.86014H3.84218C4.605 4.86014 5.22585 4.23986 5.22585 3.47731V1.72072H10.2635C10.5457 1.72072 10.776 1.95034 10.776 2.23282V13.1882C10.776 13.47 10.5464 13.7003 10.2635 13.7003H2.31081C2.02942 13.7003 1.79825 13.4696 1.79825 13.1843V4.85651L3.84192 4.86014ZM12.356 14.6172H12.3551V14.7672C12.3551 15.049 12.1254 15.2793 11.8425 15.2793H3.88986C3.60762 15.2793 3.3773 15.0497 3.3773 14.7672V14.5711H10.2635C11.0263 14.5711 11.6471 13.9508 11.6471 13.1882V3.30064H11.8435C12.1257 3.30064 12.356 3.53026 12.356 3.81274V14.6172ZM3.0765 10.9533H9.56685C9.80688 10.9533 10.0029 10.7592 10.0029 10.5174C10.0029 10.276 9.80818 10.0816 9.56685 10.0816H3.0765C2.83647 10.0816 2.64046 10.2757 2.64046 10.5174C2.64046 10.7589 2.83516 10.9533 3.0765 10.9533ZM3.0765 8.70056H9.56685C9.80688 8.70056 10.0029 8.50646 10.0029 8.26471C10.0029 8.0233 9.80818 7.82887 9.56685 7.82887H3.0765C2.83647 7.82887 2.64046 8.02296 2.64046 8.26471C2.64046 8.50613 2.83516 8.70056 3.0765 8.70056ZM3.0765 6.44881H9.56685C9.80688 6.44881 10.0029 6.25471 10.0029 6.01296C10.0029 5.77155 9.80818 5.57712 9.56685 5.57712H3.0765C2.83647 5.57712 2.64046 5.77121 2.64046 6.01296C2.64046 6.25438 2.83516 6.44881 3.0765 6.44881ZM6.28713 4.19608H9.56685C9.80688 4.19608 10.0029 4.00199 10.0029 3.76024C10.0029 3.51882 9.80818 3.3244 9.56685 3.3244H6.28713C6.04711 3.3244 5.85109 3.51849 5.85109 3.76024C5.85109 4.00166 6.0458 4.19608 6.28713 4.19608Z" fill="#010101" stroke="black" stroke-width="0.3"/>
</svg>
