<svg width="24" height="24" viewBox="0 0 24 24" fill="none" xmlns="http://www.w3.org/2000/svg">
<g clip-path="url(#clip0_1_293)">
<path d="M16.875 10.5C15.6141 10.5 14.3816 10.8739 13.3332 11.5744C12.2849 12.2749 11.4678 13.2705 10.9853 14.4354C10.5028 15.6003 10.3765 16.8821 10.6225 18.1187C10.8685 19.3553 11.4756 20.4912 12.3672 21.3828C13.2588 22.2744 14.3947 22.8815 15.6313 23.1275C16.8679 23.3735 18.1497 23.2472 19.3146 22.7647C20.4795 22.2822 21.4751 21.4651 22.1756 20.4168C22.8761 19.3684 23.25 18.1359 23.25 16.875C23.2476 15.185 22.5752 13.5649 21.3802 12.3698C20.1851 11.1748 18.565 10.5024 16.875 10.5ZM16.875 22.5C15.7625 22.5 14.6749 22.1701 13.7499 21.552C12.8249 20.9339 12.1039 20.0554 11.6782 19.0276C11.2524 17.9998 11.141 16.8688 11.3581 15.7776C11.5751 14.6865 12.1109 13.6842 12.8975 12.8975C13.6842 12.1109 14.6865 11.5751 15.7776 11.3581C16.8688 11.141 17.9998 11.2524 19.0276 11.6782C20.0554 12.1039 20.9339 12.8249 21.552 13.7499C22.1701 14.6749 22.5 15.7625 22.5 16.875C22.4982 18.3663 21.905 19.796 20.8505 20.8505C19.796 21.905 18.3663 22.4982 16.875 22.5Z" fill="black"/>
<path d="M6.75 0.75C5.56332 0.75 4.40328 1.10189 3.41658 1.76118C2.42989 2.42047 1.66085 3.35754 1.20673 4.4539C0.7526 5.55026 0.63378 6.75666 0.865291 7.92054C1.0968 9.08443 1.66825 10.1535 2.50736 10.9926C3.34648 11.8318 4.41558 12.4032 5.57946 12.6347C6.74335 12.8662 7.94975 12.7474 9.0461 12.2933C10.1425 11.8392 11.0795 11.0701 11.7388 10.0834C12.3981 9.09673 12.75 7.93669 12.75 6.75C12.7479 5.15934 12.1151 3.63443 10.9903 2.50966C9.86558 1.38489 8.34066 0.752084 6.75 0.75ZM6.75 12C5.71165 12 4.69662 11.6921 3.83326 11.1152C2.9699 10.5383 2.297 9.7184 1.89964 8.75909C1.50228 7.79978 1.39831 6.74418 1.60088 5.72578C1.80345 4.70738 2.30347 3.77191 3.03769 3.03769C3.77192 2.30346 4.70738 1.80345 5.72578 1.60088C6.74418 1.3983 7.79978 1.50227 8.75909 1.89963C9.7184 2.29699 10.5383 2.9699 11.1152 3.83326C11.6921 4.69661 12 5.71165 12 6.75C11.9985 8.14193 11.4449 9.47642 10.4607 10.4607C9.47643 11.4449 8.14193 11.9985 6.75 12Z" fill="black"/>
<path d="M8.625 6C8.62484 5.76726 8.55217 5.54035 8.41708 5.35082C8.282 5.1613 8.09121 5.01857 7.87125 4.9425L7.875 4.125H7.125L7.12125 4.875H6.37125L6.375 4.125H5.625L5.62125 4.875H4.875V5.625H5.625V7.875H4.875V8.625H5.62125L5.6175 9.36L6.3675 9.36375L6.37125 8.625H7.12125L7.1175 9.36L7.8675 9.36375L7.875 8.5575C8.09353 8.47966 8.28277 8.33639 8.41697 8.14717C8.55117 7.95795 8.62381 7.73197 8.625 7.5C8.62428 7.2223 8.51997 6.95486 8.3325 6.75C8.51997 6.54514 8.62428 6.2777 8.625 6ZM7.5 7.875H6.375V7.125H7.5C7.59946 7.125 7.69484 7.16451 7.76517 7.23483C7.83549 7.30516 7.875 7.40054 7.875 7.5C7.875 7.59946 7.83549 7.69484 7.76517 7.76517C7.69484 7.83549 7.59946 7.875 7.5 7.875ZM7.5 6.375H6.375V5.625H7.5C7.59946 5.625 7.69484 5.66451 7.76517 5.73483C7.83549 5.80516 7.875 5.90054 7.875 6C7.875 6.09946 7.83549 6.19484 7.76517 6.26517C7.69484 6.33549 7.59946 6.375 7.5 6.375Z" fill="black"/>
<path d="M2.67925 14.085L3.48438 14.8901L4.01462 14.3599L2.51462 12.8599C2.4443 12.7896 2.34894 12.7501 2.2495 12.7501C2.15006 12.7501 2.0547 12.7896 1.98438 12.8599L0.484375 14.3599L1.01463 14.8901L1.91462 13.9901C2.1328 16.3158 3.21026 18.4765 4.93648 20.0502C6.6627 21.6238 8.91364 22.4973 11.2495 22.5V21.75C9.12913 21.7473 7.08388 20.9646 5.50341 19.551C3.92293 18.1375 2.91771 16.1919 2.67925 14.085Z" fill="black"/>
<path d="M21.3203 9.915L20.5151 9.10987L19.9849 9.64013L21.4849 11.1401C21.5552 11.2104 21.6506 11.2499 21.75 11.2499C21.8494 11.2499 21.9448 11.2104 22.0151 11.1401L23.5151 9.64013L22.9849 9.10987L22.0849 10.0099C21.8667 7.68423 20.7892 5.52348 19.063 3.94982C17.3368 2.37617 15.0859 1.50267 12.75 1.5V2.25C14.8704 2.25275 16.9156 3.03546 18.4961 4.44899C20.0766 5.86252 21.0818 7.80808 21.3203 9.915Z" fill="black"/>
<path d="M18.375 18C18.3739 18.3317 18.2629 18.6537 18.0594 18.9156C17.8558 19.1775 17.5712 19.3646 17.25 19.4475V20.25H16.5V19.4475C16.1788 19.3646 15.8942 19.1775 15.6906 18.9156C15.4871 18.6537 15.3761 18.3317 15.375 18H16.125C16.125 18.1483 16.169 18.2933 16.2514 18.4167C16.3338 18.54 16.4509 18.6361 16.588 18.6929C16.725 18.7497 16.8758 18.7645 17.0213 18.7356C17.1668 18.7067 17.3004 18.6352 17.4053 18.5303C17.5102 18.4254 17.5817 18.2918 17.6106 18.1463C17.6395 18.0008 17.6247 17.85 17.5679 17.713C17.5111 17.5759 17.415 17.4588 17.2917 17.3764C17.1683 17.294 17.0233 17.25 16.875 17.25C16.5103 17.2504 16.158 17.1178 15.8841 16.8769C15.6103 16.636 15.4338 16.3034 15.3878 15.9416C15.3418 15.5798 15.4293 15.2137 15.6341 14.9119C15.8389 14.6101 16.1468 14.3934 16.5 14.3025V13.5H17.25V14.3025C17.5712 14.3854 17.8558 14.5725 18.0594 14.8344C18.2629 15.0963 18.3739 15.4183 18.375 15.75H17.625C17.625 15.6017 17.581 15.4567 17.4986 15.3333C17.4162 15.21 17.2991 15.1139 17.162 15.0571C17.025 15.0003 16.8742 14.9855 16.7287 15.0144C16.5832 15.0433 16.4496 15.1148 16.3447 15.2197C16.2398 15.3246 16.1683 15.4582 16.1394 15.6037C16.1105 15.7492 16.1253 15.9 16.1821 16.037C16.2389 16.1741 16.335 16.2912 16.4583 16.3736C16.5817 16.456 16.7267 16.5 16.875 16.5C17.2728 16.5 17.6544 16.658 17.9357 16.9393C18.217 17.2206 18.375 17.6022 18.375 18Z" fill="black"/>
</g>
<defs>
<clipPath id="clip0_1_293">
<rect width="24" height="24" fill="white"/>
</clipPath>
</defs>
</svg>
