<svg width="24" height="24" viewBox="0 0 24 24" fill="none" xmlns="http://www.w3.org/2000/svg">
<g clip-path="url(#clip0_1_326)">
<g clip-path="url(#clip1_1_326)">
<path d="M7.59375 16.5938C7.5 16.5938 7.45312 16.5469 7.35938 16.5C6.09375 15.2344 5.01562 14.0625 5.01562 12.8438C5.01562 12.0469 5.67188 11.3906 6.46875 11.3906C7.03125 11.3906 7.35938 11.625 7.59375 11.9531C7.875 11.5781 8.20312 11.3906 8.76562 11.3906C9.5625 11.3906 10.2188 12.0469 10.2188 12.8438C10.2188 14.1094 9.09375 15.2812 7.82812 16.5C7.78125 16.5469 7.6875 16.5938 7.59375 16.5938ZM6.46875 12.0469C6.04688 12.0469 5.67188 12.4219 5.67188 12.8438C5.67188 13.7344 6.51562 14.7188 7.59375 15.7969C8.625 14.8125 9.5625 13.7812 9.5625 12.8438C9.5625 12.4219 9.1875 12.0469 8.76562 12.0469C8.34375 12.0469 8.15625 12.1875 7.875 12.7031C7.82812 12.7969 7.73438 12.8906 7.59375 12.8906C7.45312 12.8906 7.35938 12.7969 7.3125 12.7031C7.03125 12.1875 6.84375 12.0469 6.46875 12.0469Z" fill="black"/>
<path d="M13.1719 23.8125H2.0625C0.890625 23.8125 0 22.9219 0 21.7969V6.1875C0 5.0625 0.9375 4.125 2.0625 4.125H13.1719C14.2969 4.125 15.2344 5.0625 15.2344 6.1875V21.7969C15.2344 22.9219 14.2969 23.8125 13.1719 23.8125ZM2.0625 4.78125C1.3125 4.78125 0.65625 5.39062 0.65625 6.1875V21.7969C0.65625 22.5469 1.26562 23.1562 2.0625 23.1562H13.1719C13.9688 23.1562 14.5781 22.5469 14.5781 21.7969V6.1875C14.5781 5.4375 13.9219 4.78125 13.1719 4.78125H2.0625Z" fill="black"/>
<path d="M5.06217 9.84375C4.92154 9.84375 4.82779 9.75 4.78092 9.65625L3.84342 7.35938L3.37467 8.57812L2.95279 9.65625C2.85904 9.79688 2.67154 9.89062 2.53092 9.79688C2.34342 9.75 2.24967 9.5625 2.34342 9.375L2.76529 8.34375L3.56217 6.32812C3.60904 6.23438 3.70279 6.14062 3.84342 6.14062C3.98404 6.14062 4.12467 6.23438 4.17154 6.32812L5.39029 9.375C5.43717 9.5625 5.34342 9.75 5.20279 9.79688C5.15592 9.84375 5.10904 9.84375 5.06217 9.84375Z" fill="black"/>
<path d="M4.6875 8.95312H3C2.8125 8.95312 2.67188 8.8125 2.67188 8.625C2.67188 8.4375 2.8125 8.29688 3 8.29688H4.6875C4.875 8.29688 5.01562 8.4375 5.01562 8.625C5.01562 8.8125 4.875 8.95312 4.6875 8.95312Z" fill="black"/>
<path d="M12.61 21.8438C12.4694 21.8438 12.3756 21.75 12.3288 21.6562L11.3444 19.3125L10.8756 20.5781V20.625L10.4538 21.6562C10.36 21.7969 10.1725 21.8906 9.985 21.7969C9.84438 21.75 9.75063 21.5625 9.84438 21.375L10.2663 20.3438L11.0631 18.2812C11.11 18.1875 11.2038 18.0938 11.3444 18.0938C11.485 18.0938 11.6256 18.1875 11.6725 18.2812L12.9381 21.375C12.985 21.5625 12.8913 21.75 12.7506 21.7969C12.7038 21.8438 12.6569 21.8438 12.61 21.8438Z" fill="black"/>
<path d="M12.2344 20.9062H10.5C10.3125 20.9062 10.1719 20.7656 10.1719 20.5781C10.1719 20.3906 10.3125 20.25 10.5 20.25H12.2344C12.4219 20.25 12.5625 20.3906 12.5625 20.5781C12.5625 20.7656 12.4219 20.9062 12.2344 20.9062Z" fill="black"/>
<path d="M14.3438 23.3444C14.25 23.3444 14.1094 23.2976 14.0625 23.2038C13.9688 23.0632 14.0156 22.8757 14.1562 22.7819C14.3906 22.5476 14.5781 22.1726 14.5781 21.7976V6.18819C14.5781 5.43819 13.9219 4.78194 13.1719 4.78194H4.875C4.78125 4.78194 4.6875 4.73506 4.64062 4.64131C4.54688 4.54756 4.54688 4.45381 4.54688 4.36006L4.92188 3.00069C5.25 1.92256 6.375 1.26631 7.45312 1.54756L18.1875 4.40694C18.7031 4.54756 19.125 4.87569 19.4062 5.34444C19.6875 5.81319 19.7812 6.37569 19.6406 6.93819L15.6094 21.9851C15.4219 22.5944 15 23.1101 14.4844 23.2976C14.4375 23.3444 14.3906 23.3444 14.3438 23.3444ZM5.29688 4.12569H13.1719C14.2969 4.12569 15.2344 5.06319 15.2344 6.18819V20.8132L18.9844 6.75069C19.0781 6.37569 19.0312 6.00069 18.8438 5.67256C18.6562 5.34444 18.375 5.15694 18 5.06319L7.26562 2.20381C6.5625 2.01631 5.8125 2.43819 5.57812 3.18819L5.29688 4.12569Z" fill="black"/>
<path d="M14.3906 23.2975C14.25 23.2975 14.1094 23.1569 14.0625 23.0163C14.0625 22.8288 14.2031 22.6413 14.3438 22.6413C14.8125 22.5944 15.1406 22.36 15.375 21.985V21.9382L23.1562 8.43815C23.3438 8.1569 23.3906 7.7819 23.2969 7.4069C23.2031 7.0319 22.9688 6.75065 22.6875 6.56315L13.0312 1.0319C12.375 0.656901 11.4844 0.891276 11.1094 1.50065L10.4062 2.76628C10.3125 2.95378 10.125 3.00065 9.98438 2.9069C9.79688 2.81315 9.75 2.62565 9.84375 2.43815L10.5469 1.17253C11.1094 0.235026 12.375 -0.093099 13.3594 0.469401L23.0156 6.00065C23.4375 6.2819 23.8125 6.70378 23.9062 7.26628C24.0469 7.7819 24 8.3444 23.7188 8.81315L15.9375 22.2663C15.6094 22.8757 15.0938 23.2507 14.4375 23.2975H14.3906Z" fill="black"/>
</g>
</g>
<defs>
<clipPath id="clip0_1_326">
<rect width="24" height="24" fill="white"/>
</clipPath>
<clipPath id="clip1_1_326">
<rect width="24" height="24" fill="white"/>
</clipPath>
</defs>
</svg>
