<svg width="24" height="24" viewBox="0 0 24 24" fill="none" xmlns="http://www.w3.org/2000/svg">
<g clip-path="url(#clip0_1_391)">
<g clip-path="url(#clip1_1_391)">
<path d="M23.9997 0.484798C24.0042 0.354954 23.9546 0.229142 23.8628 0.137267C23.7709 0.0453916 23.6455 -0.00415523 23.5152 0.000204141C19.172 0.148657 15.4691 1.14775 12.1949 3.05467C11.5756 3.41538 10.9685 3.81264 10.3749 4.24328C9.10756 3.86045 7.71143 3.769 6.41562 3.98744C4.86063 4.24961 3.56998 4.93314 2.68334 5.96411L0.113416 8.95103C0.0257131 9.05294 -0.0139431 9.18761 0.00438501 9.32078C0.02276 9.45395 0.0974319 9.57283 0.209416 9.64722L3.44426 11.7955C3.09532 12.3355 2.75403 12.8931 2.42154 13.4688C2.31542 13.6525 2.34598 13.8846 2.49598 14.0347L9.96387 21.5039C10.0542 21.5943 10.1742 21.6413 10.2955 21.6413C10.3758 21.6413 10.4566 21.6207 10.5298 21.5785C11.1057 21.2459 11.6635 20.9045 12.2037 20.5555L14.3513 23.7905C14.4257 23.9026 14.5446 23.9772 14.6778 23.9956C14.6991 23.9986 14.7206 24 14.7419 24C14.8534 24 14.962 23.9602 15.0476 23.8866L18.0344 21.3168C19.0662 20.4294 19.75 19.1386 20.0121 17.5838C20.2305 16.2886 20.1389 14.8928 19.7558 13.6254C20.1865 13.0317 20.5838 12.4246 20.9445 11.8052C22.8512 8.53145 23.8506 4.82856 23.9997 0.484798ZM23.0412 0.958751C22.9513 2.71103 22.7098 4.36684 22.3124 5.93397L18.0655 1.687C19.6327 1.28964 21.2887 1.04828 23.0412 0.958751ZM1.1704 9.16L3.39406 6.5755C4.80317 4.93703 7.33198 4.5512 9.42429 4.97144C8.60342 5.63467 7.81203 6.36452 7.05598 7.1582C5.97528 8.29277 4.94074 9.58422 3.96331 11.0148L1.1704 9.16ZM10.3714 20.5855L3.41445 13.6274C3.93992 12.7356 4.48231 11.8931 5.0427 11.0991L12.9005 18.9569C12.1062 19.5174 11.2635 20.0599 10.3714 20.5855ZM17.4231 20.606L14.8387 22.8295L12.9845 20.0365C14.4151 19.0592 15.7065 18.0247 16.841 16.944C17.6347 16.188 18.3646 15.3967 19.0278 14.5758C19.448 16.6678 19.0622 19.1962 17.4231 20.606ZM13.6676 18.398L5.60154 10.332C8.78028 6.09864 12.5258 3.35388 17.029 1.97641L22.023 6.97042C20.6452 11.474 17.9005 15.2196 13.6676 18.398Z" fill="black"/>
<path d="M17.3915 6.60969C15.9535 5.17175 13.6138 5.17179 12.1758 6.60969C10.7382 8.04729 10.7382 10.3864 12.176 11.8242C12.8949 12.5424 13.8392 12.9014 14.7836 12.9014C15.7279 12.9014 16.6724 12.5423 17.3914 11.824C18.8291 10.3864 18.8291 8.04729 17.3915 6.60969ZM16.7288 11.1609C15.6562 12.2323 13.9111 12.2323 12.8388 11.1611C12.3197 10.642 12.0338 9.9515 12.0338 9.21683C12.0338 8.48215 12.3197 7.79169 12.8388 7.27259C13.375 6.73639 14.0794 6.46826 14.7837 6.46826C15.488 6.46826 16.1924 6.73634 16.7286 7.27259C17.2477 7.79169 17.5336 8.48215 17.5336 9.21683C17.5336 9.9515 17.2477 10.642 16.7288 11.1609Z" fill="black"/>
<path d="M6.99115 20.8989L5.15304 22.7356C4.9699 22.9186 4.96981 23.2154 5.15281 23.3986C5.24436 23.4902 5.36436 23.536 5.4844 23.536C5.60431 23.536 5.72422 23.4902 5.81572 23.3988L7.65383 21.5621C7.83697 21.3791 7.83706 21.0823 7.65406 20.8992C7.47106 20.716 7.17429 20.7159 6.99115 20.8989Z" fill="black"/>
<path d="M5.37905 18.6217C5.19601 18.4386 4.89924 18.4386 4.71615 18.6216L0.928365 22.4081C0.745272 22.5911 0.745225 22.8879 0.928271 23.071C1.01982 23.1626 1.13977 23.2083 1.25977 23.2083C1.37972 23.2083 1.49963 23.1626 1.59118 23.0711L5.37896 19.2846C5.56201 19.1016 5.5621 18.8048 5.37905 18.6217Z" fill="black"/>
<path d="M1.26313 18.8474L3.10124 17.0092C3.28429 16.8262 3.28429 16.5294 3.10124 16.3463C2.91819 16.1632 2.62138 16.1632 2.43829 16.3463L0.600176 18.1844C0.417129 18.3674 0.417129 18.6643 0.600176 18.8474C0.691723 18.9389 0.811676 18.9846 0.931629 18.9846C1.05158 18.9846 1.17163 18.9389 1.26313 18.8474Z" fill="black"/>
</g>
</g>
<defs>
<clipPath id="clip0_1_391">
<rect width="24" height="24" fill="white"/>
</clipPath>
<clipPath id="clip1_1_391">
<rect width="24" height="24" fill="white"/>
</clipPath>
</defs>
</svg>
