<svg width="23" height="20" viewBox="0 0 23 20" fill="none" xmlns="http://www.w3.org/2000/svg">
<path d="M9.5 1.24999C9.5 0.917275 9.85849 0.5 10.5 0.5H13.5C14.1415 0.5 14.5 0.917275 14.5 1.24999V18.7499C14.5 19.0827 14.1415 19.5 13.5 19.5H10.5C9.85852 19.5 9.5 19.0827 9.5 18.7499V1.24999Z" stroke="black"/>
<path d="M0.5 7.27273C0.5 6.91983 0.867543 6.5 1.50001 6.5H4.49999C5.13245 6.5 5.5 6.91984 5.5 7.27273V18.7272C5.5 19.0802 5.13243 19.5 4.49999 19.5H1.50001C0.867569 19.5 0.5 19.0802 0.5 18.7272V7.27273Z" stroke="black"/>
<path d="M17.5 15.2C17.5 14.9118 17.8378 14.5 18.5 14.5H21.5C22.1622 14.5 22.5 14.9118 22.5 15.2V18.7999C22.5 19.0883 22.1621 19.5 21.5 19.5H18.5C17.8379 19.5 17.5 19.0883 17.5 18.7999V15.2Z" stroke="black"/>
</svg>
