<svg width="24" height="24" viewBox="0 0 24 24" fill="none" xmlns="http://www.w3.org/2000/svg">
<g clip-path="url(#clip0_2_469)">
<path d="M23.9077 9.15873C23.6171 8.27748 22.7191 7.97434 22.3299 7.96544L16.0436 7.82087C15.9845 7.8212 15.9267 7.80289 15.8786 7.76855C15.8305 7.73421 15.7944 7.68559 15.7755 7.62958L13.6352 1.61462C13.505 1.249 12.9368 0.496094 12.0094 0.496094H12.0014C11.0692 0.5005 10.5053 1.26194 10.3783 1.63L8.33985 7.53405C8.32147 7.59021 8.28587 7.63915 8.2381 7.67394C8.19034 7.70872 8.13283 7.72758 8.07374 7.72783L1.65008 7.93459C1.26102 7.94716 0.36608 8.25897 0.0835647 9.1427C-0.19431 10.0117 0.278002 10.753 0.663315 11.039L5.69033 14.7722C5.73725 14.8066 5.77214 14.8549 5.79005 14.9103C5.80796 14.9657 5.80799 15.0253 5.79013 15.0807L3.95994 21.2838C3.824 21.744 3.88897 22.6204 4.62416 23.1494C4.91006 23.3604 5.25457 23.4771 5.60985 23.4834C5.96512 23.4896 6.31352 23.385 6.60664 23.1842L11.8175 19.4844C11.845 19.4638 11.8784 19.4526 11.9127 19.4525C11.947 19.4523 11.9804 19.4632 12.0081 19.4835L17.3662 23.2124C17.6519 23.4021 17.9871 23.5034 18.3301 23.5037C18.6979 23.5022 19.0552 23.3813 19.3483 23.159C20.0783 22.6233 20.135 21.7463 19.9952 21.2875L18.1485 15.2339C18.1301 15.1787 18.1295 15.119 18.1469 15.0634C18.1643 15.0079 18.1987 14.9592 18.2453 14.9242L23.3459 11.0605C23.675 10.8111 24.2161 10.0928 23.9077 9.15873ZM22.7798 10.3131L17.6793 14.1769C17.4791 14.3272 17.3306 14.5359 17.254 14.7742C17.1774 15.0125 17.1766 15.2687 17.2518 15.5074L19.0983 21.5613C19.0998 21.5663 19.2255 22.0863 18.7936 22.4033C18.6672 22.5013 18.5136 22.5577 18.3539 22.5648C18.1942 22.572 18.0362 22.5294 17.9016 22.4431L12.5438 18.7138C12.358 18.5826 12.1359 18.5126 11.9084 18.5136C11.6809 18.5147 11.4595 18.5868 11.2749 18.7198L6.06392 22.4196C5.92952 22.5054 5.77223 22.5483 5.61288 22.5427C5.45353 22.5371 5.29965 22.4832 5.17161 22.3882C4.72939 22.0702 4.85755 21.5543 4.8591 21.5492L6.68914 15.346C6.76206 15.1065 6.75889 14.8503 6.68008 14.6127C6.60126 14.3751 6.45067 14.1678 6.24908 14.0194L1.22225 10.2864C1.21808 10.2833 0.809424 9.95078 0.976487 9.42822C1.12752 8.956 1.67727 8.87191 1.68027 8.87162L8.10388 8.66486C8.35281 8.65846 8.5938 8.57595 8.79443 8.42846C8.99506 8.28096 9.1457 8.07555 9.22606 7.83986L11.2643 1.93609C11.2922 1.85842 11.5471 1.4357 12.0058 1.43355H12.0094C12.4687 1.43355 12.7241 1.85177 12.752 1.92897L14.8923 7.94387C14.9749 8.1787 15.1275 8.3826 15.3294 8.52816C15.5314 8.67372 15.773 8.75396 16.022 8.75809L22.3051 8.90256C22.3105 8.90294 22.8629 8.98483 23.0173 9.45264C23.1894 9.97356 22.784 10.3099 22.7798 10.3131Z" fill="black"/>
</g>
<defs>
<clipPath id="clip0_2_469">
<rect width="24" height="24" fill="white"/>
</clipPath>
</defs>
</svg>
