<svg width="22" height="22" viewBox="0 0 22 22" fill="none" xmlns="http://www.w3.org/2000/svg">
<path d="M21.6317 6.98295C21.9324 7.06764 22.0594 7.36832 21.9747 7.66899C21.89 7.96967 21.5893 8.09671 21.2887 8.01201C20.988 7.92732 20.8609 7.62664 20.9456 7.32597C21.0303 7.06764 21.331 6.89825 21.6317 6.98295Z" fill="#060606"/>
<path d="M20.0047 15.5494C20.3054 15.634 20.4325 15.9347 20.3478 16.2354C20.2631 16.5361 19.9624 16.6631 19.6617 16.5784C19.361 16.4937 19.234 16.193 19.3187 15.8924C19.4457 15.634 19.7464 15.4647 20.0047 15.5494Z" fill="#060606"/>
<path d="M12.5067 3.25747C12.8074 3.34217 12.9344 3.64284 12.8497 3.94352C12.765 4.24419 12.4643 4.37124 12.1637 4.28654C11.863 4.20184 11.7359 3.90117 11.8206 3.60049C11.9477 3.29982 12.2484 3.13043 12.5067 3.25747Z" fill="#060606"/>
<path d="M10.3661 20.3942C10.6667 20.4789 10.7938 20.7796 10.7091 21.0802C10.6244 21.3809 10.3237 21.508 10.023 21.4233C9.72237 21.3386 9.59532 21.0379 9.68002 20.7372C9.80706 20.4365 10.1077 20.2671 10.3661 20.3942Z" fill="#060606"/>
<path d="M2.86802 13.9665C3.16869 14.0512 3.29574 14.3518 3.21104 14.6525C3.12634 14.9532 2.82567 15.0802 2.525 14.9955C2.22432 14.9108 2.09728 14.6102 2.18197 14.3095C2.30902 14.0088 2.60969 13.8394 2.86802 13.9665Z" fill="#060606"/>
<path d="M3.31118 19.5427L3.31178 19.5416L7.46617 11.2329L7.47511 11.2373L7.46617 11.2194L3.31209 2.91128C3.2297 2.70049 3.27111 2.45215 3.39511 2.28262C3.45568 2.20191 3.55852 2.14944 3.67363 2.13344C3.78862 2.11746 3.91423 2.13815 4.01897 2.20181L4.01895 2.20183L4.0197 2.20223L20.0825 10.7693L20.0828 10.7695C20.2479 10.8521 20.3752 11.0209 20.3752 11.2262C20.3752 11.4315 20.252 11.6003 20.083 11.6827L20.0825 11.683L4.0197 20.2501L4.01938 20.2495L4.01615 20.2527C3.93617 20.3327 3.85307 20.333 3.76843 20.333C3.64528 20.333 3.51784 20.2922 3.39367 20.168C3.22871 20.0031 3.18382 19.7523 3.31118 19.5427ZM4.99424 3.94222H4.99249L4.99581 3.94889L8.5065 11.0169L8.50652 11.0169C8.58948 11.1828 8.58841 11.3505 8.50745 11.4719L8.50735 11.4719L8.5065 11.4736L4.99581 18.5415L4.97494 18.5835L5.01631 18.5614L18.7245 11.2351L18.7493 11.2219L18.7245 11.2087L5.01628 3.92474L4.99424 3.91303V3.93798V3.94222Z" fill="#060606" stroke="#F5F5F5" stroke-width="0.03"/>
<path d="M15.8474 21.4044C14.8266 21.4044 13.9779 20.5557 13.9779 19.5349C13.9779 18.5141 14.8266 17.6654 15.8474 17.6654C16.8682 17.6654 17.7169 18.5141 17.7169 19.5349C17.7169 20.5557 16.8682 21.4044 15.8474 21.4044ZM15.8474 18.7492C15.4119 18.7492 15.0193 19.0984 15.0193 19.5772C15.0193 20.0556 15.369 20.4053 15.8474 20.4053C16.3258 20.4053 16.6755 20.0556 16.6755 19.5772C16.6755 19.0984 16.2829 18.7492 15.8474 18.7492Z" fill="#060606" stroke="#F5F5F5" stroke-width="0.03"/>
<path d="M18.762 4.27067C17.5718 4.27067 16.6341 3.33301 16.6341 2.14283C16.6341 0.952655 17.5718 0.015 18.762 0.015C19.9522 0.015 20.8898 0.952655 20.8898 2.14283C20.8898 3.33301 19.9522 4.27067 18.762 4.27067ZM18.762 1.05642C18.1523 1.05642 17.6756 1.5332 17.6756 2.14283C17.6756 2.75247 18.1523 3.22925 18.762 3.22925C19.3716 3.22925 19.8484 2.75247 19.8484 2.14283C19.8484 1.5332 19.3716 1.05642 18.762 1.05642Z" fill="#060606" stroke="#F5F5F5" stroke-width="0.03"/>
<path d="M1.62618 12.3253C0.736678 12.3253 0.015 11.6036 0.015 10.7141C0.015 9.82457 0.736678 9.10289 1.62618 9.10289C2.51569 9.10289 3.23736 9.82457 3.23736 10.7141C3.23736 11.6036 2.51569 12.3253 1.62618 12.3253ZM1.62618 10.1824C1.3173 10.1824 1.05218 10.4474 1.05218 10.7522C1.05218 11.057 1.3173 11.322 1.62618 11.322C1.93521 11.322 2.19595 11.0568 2.19595 10.7522C2.19595 10.4001 1.93006 10.1824 1.62618 10.1824Z" fill="#060606" stroke="#F5F5F5" stroke-width="0.03"/>
</svg>
