<svg width="20" height="24" viewBox="0 0 20 24" fill="none" xmlns="http://www.w3.org/2000/svg">
<path d="M15.9996 21.8438H15.8218L14.7343 18.8535C16.346 17.8988 17.6307 16.4782 18.4191 14.779C19.2076 13.0798 19.4628 11.1816 19.1512 9.33446C18.8396 7.48732 17.9759 5.77789 16.6736 4.43132C15.3714 3.08476 13.6919 2.16424 11.8562 1.791L11.9586 1.58663C12.0373 1.42937 12.0745 1.25461 12.0666 1.07893C12.0588 0.90325 12.0061 0.732499 11.9137 0.582902C11.8212 0.433306 11.6921 0.309834 11.5385 0.224219C11.3849 0.138604 11.2119 0.0936921 11.0361 0.0937501H8.96307C8.78727 0.0937241 8.61437 0.138642 8.46082 0.224236C8.30726 0.309831 8.17813 0.433262 8.0857 0.582804C7.99327 0.732346 7.94061 0.903036 7.93271 1.07866C7.92481 1.25428 7.96194 1.42901 8.04057 1.58625L8.14294 1.79063C6.30727 2.16386 4.62771 3.08439 3.32549 4.43095C2.02327 5.77751 1.15949 7.48694 0.84791 9.33408C0.536332 11.1812 0.791579 13.0794 1.58003 14.7786C2.36848 16.4779 3.65315 17.8984 5.26482 18.8531L4.17732 21.8434H3.99957C3.52727 21.844 3.07449 22.0319 2.74056 22.3659C2.40663 22.6999 2.21881 23.1527 2.21832 23.625C2.21832 23.6996 2.24795 23.7711 2.30069 23.8239C2.35344 23.8766 2.42497 23.9062 2.49957 23.9062H17.4996C17.5742 23.9062 17.6457 23.8766 17.6984 23.8239C17.7512 23.7711 17.7808 23.6996 17.7808 23.625C17.7802 23.1528 17.5924 22.7 17.2584 22.3661C16.9245 22.0322 16.4718 21.8443 15.9996 21.8438ZM8.96307 0.65625H11.0361C11.116 0.656253 11.1945 0.676679 11.2643 0.715589C11.3341 0.754498 11.3928 0.8106 11.4348 0.878567C11.4768 0.946534 11.5007 1.02411 11.5043 1.10393C11.5079 1.18375 11.491 1.26316 11.4553 1.33463L9.99957 4.24612L8.54382 1.33463C8.50809 1.26316 8.49122 1.18375 8.49481 1.10393C8.4984 1.02411 8.52233 0.946534 8.56434 0.878567C8.60634 0.8106 8.66502 0.754498 8.73481 0.715589C8.80459 0.676679 8.88317 0.656253 8.96307 0.65625ZM7.78444 9.65287L3.44232 7.85287C4.1584 6.28776 5.41412 5.03283 6.97969 4.31775L8.77744 8.65838C8.35982 8.89032 8.01576 9.23491 7.78444 9.65287ZM9.99957 8.90625C10.3889 8.90625 10.7696 9.02172 11.0933 9.23804C11.4171 9.45437 11.6694 9.76185 11.8185 10.1216C11.9675 10.4813 12.0065 10.8772 11.9305 11.2591C11.8545 11.641 11.667 11.9918 11.3917 12.2671C11.1163 12.5425 10.7656 12.73 10.3837 12.8059C10.0018 12.8819 9.6059 12.8429 9.24616 12.6939C8.88642 12.5449 8.57894 12.2925 8.36261 11.9688C8.14628 11.645 8.03082 11.2644 8.03082 10.875C8.03141 10.353 8.23903 9.85262 8.60811 9.48354C8.97719 9.11446 9.47761 8.90685 9.99957 8.90625ZM7.56957 10.173C7.43458 10.6313 7.43458 11.1187 7.56957 11.577L3.23532 13.3725C2.93649 12.5737 2.78258 11.7279 2.78082 10.875C2.78123 10.0216 2.93217 9.17505 3.22669 8.37412L7.56957 10.173ZM7.78444 12.0971C8.01598 12.5145 8.36003 12.8586 8.77744 13.0901L6.98232 17.424C5.42408 16.702 4.17258 15.4505 3.45057 13.8923L7.78444 12.0971ZM9.29757 13.305C9.75583 13.44 10.2433 13.44 10.7016 13.305L12.4967 17.6392C10.8871 18.2452 9.11205 18.2452 7.50244 17.6392L9.29757 13.305ZM11.2217 13.0901C11.6391 12.8586 11.9832 12.5145 12.2147 12.0971L16.5486 13.8923C15.8266 15.4505 14.5751 16.702 13.0168 17.424L11.2217 13.0901ZM12.4296 11.577C12.5646 11.1187 12.5646 10.6313 12.4296 10.173L16.7724 8.373C17.0671 9.17428 17.218 10.0213 17.2183 10.875C17.2166 11.7279 17.0626 12.5737 16.7638 13.3725L12.4296 11.577ZM12.2147 9.65287C11.9832 9.23546 11.6391 8.89141 11.2217 8.65988L13.0194 4.31925C14.585 5.03433 15.8407 6.28926 16.5568 7.85437L12.2147 9.65287ZM10.7016 8.445C10.2433 8.31001 9.75583 8.31001 9.29757 8.445L7.49982 4.10475C8.01914 3.91547 8.55839 3.78613 9.10707 3.71925L9.74794 5.001C9.77139 5.04764 9.80733 5.08684 9.85176 5.11424C9.8962 5.14164 9.94737 5.15614 9.99957 5.15614C10.0518 5.15614 10.1029 5.14164 10.1474 5.11424C10.1918 5.08684 10.2277 5.04764 10.2512 5.001L10.8921 3.71925C11.4407 3.78613 11.98 3.91547 12.4993 4.10475L10.7016 8.445ZM1.28082 10.875C1.27307 8.83831 1.9825 6.86388 3.28473 5.29787C4.58695 3.73187 6.39887 2.67422 8.40282 2.31037L8.84232 3.18938C6.90088 3.48136 5.14157 4.49643 3.91712 6.03109C2.69266 7.56574 2.09358 9.50652 2.23998 11.4643C2.38638 13.4221 3.26744 15.2522 4.70651 16.5877C6.14558 17.9232 8.03629 18.6653 9.99957 18.6653C11.9628 18.6653 13.8535 17.9232 15.2926 16.5877C16.7317 15.2522 17.6128 13.4221 17.7592 11.4643C17.9056 9.50652 17.3065 7.56574 16.082 6.03109C14.8576 4.49643 13.0983 3.48136 11.1568 3.18938L11.5963 2.31037C13.2237 2.61424 14.7308 3.37528 15.9415 4.50447C17.1521 5.63366 18.0161 7.08427 18.4323 8.68658C18.8486 10.2889 18.7999 11.9766 18.2919 13.5522C17.784 15.1279 16.8378 16.5263 15.5641 17.5838C14.2904 18.6413 12.7419 19.3142 11.0997 19.5237C9.45752 19.7332 7.78964 19.4707 6.2912 18.7669C4.79277 18.0631 3.52577 16.9471 2.63846 15.5495C1.75115 14.1519 1.28024 12.5305 1.28082 10.875ZM5.76207 19.1287C7.07213 19.804 8.52461 20.1562 9.99844 20.1562C11.4723 20.1562 12.9248 19.804 14.2348 19.1287L15.2218 21.8438H4.77619L5.76207 19.1287ZM2.81344 23.3438C2.87712 23.077 3.02877 22.8394 3.24395 22.6693C3.45912 22.4993 3.72529 22.4066 3.99957 22.4062H15.9996C16.2738 22.4066 16.54 22.4993 16.7552 22.6693C16.9704 22.8394 17.122 23.077 17.1857 23.3438H2.81344Z" fill="black"/>
</svg>
