<svg width="24" height="24" viewBox="0 0 24 24" fill="none" xmlns="http://www.w3.org/2000/svg">
<g clip-path="url(#clip0_1_306)">
<g clip-path="url(#clip1_1_306)">
<path d="M11.9999 0C5.38305 0 0 5.38305 0 11.9999C0 18.6168 5.38305 23.9999 11.9999 23.9999C18.6168 23.9999 23.9999 18.6168 23.9999 11.9999C23.9999 5.38305 18.6168 0 11.9999 0ZM11.9999 23.1585C5.84707 23.1585 0.841544 18.1527 0.841544 12.0001C0.841544 5.84743 5.84731 0.841665 11.9999 0.841665C18.1526 0.841665 23.1583 5.84743 23.1583 12.0001C23.1583 18.1527 18.1529 23.1585 11.9999 23.1585Z" fill="black"/>
<path d="M11.7556 15.3498C11.5391 15.3455 11.3501 15.421 11.1892 15.576C11.0281 15.7308 10.9457 15.916 10.9415 16.1325C10.9371 16.3583 11.0123 16.5518 11.1671 16.713C11.3219 16.874 11.508 16.9565 11.7245 16.9608C11.9501 16.9647 12.1434 16.8901 12.3045 16.7347C12.4656 16.5799 12.5485 16.3897 12.5528 16.164C12.5567 15.9475 12.4812 15.759 12.3266 15.5979C12.1717 15.4372 11.9812 15.354 11.7556 15.3498Z" fill="black"/>
<path d="M14.2195 8.05536C13.6736 7.58419 12.94 7.33933 12.0192 7.32153C11.5592 7.31268 11.1384 7.35484 10.7571 7.44595C10.3764 7.53839 9.99844 7.69783 9.62383 7.92524C9.39533 8.05609 9.2795 8.22571 9.27538 8.43325C9.27248 8.57803 9.32421 8.7056 9.43046 8.81573C9.53647 8.92635 9.66187 8.98281 9.80617 8.98571C9.92344 8.98814 10.0371 8.95433 10.1467 8.88358C10.3843 8.74437 10.655 8.63897 10.959 8.56785C11.2629 8.49709 11.5726 8.4645 11.8886 8.47092C13.1795 8.49588 13.8154 9.00061 13.7963 9.98403C13.7916 10.2369 13.7057 10.461 13.5394 10.6564C13.3732 10.8519 13.116 11.0818 12.7678 11.3455C12.4378 11.6012 12.1735 11.828 11.9757 12.0276C11.7774 12.2271 11.6035 12.4791 11.4531 12.7831C11.3028 13.0871 11.2238 13.442 11.2158 13.8479C11.2131 13.9925 11.2671 14.1175 11.3779 14.2234C11.4888 14.3296 11.6299 14.3844 11.8012 14.388C11.9636 14.3912 12.1046 14.3415 12.2241 14.2402C12.3432 14.1389 12.4046 14.0161 12.4075 13.8715C12.4143 13.5107 12.5171 13.208 12.7162 12.9636C12.9146 12.719 13.2114 12.4466 13.6055 12.147C13.908 11.9183 14.1509 11.7128 14.3354 11.5314C14.5197 11.3505 14.677 11.1276 14.8089 10.8635C14.9404 10.5996 15.0094 10.2915 15.0163 9.93945C15.0312 9.1546 14.7659 8.52666 14.2195 8.05536Z" fill="black"/>
<path d="M11.9993 2.07422C6.52667 2.07422 2.07422 6.52643 2.07422 11.9993C2.07422 12.2275 2.25947 12.4128 2.48772 12.4128C2.71598 12.4128 2.90122 12.2275 2.90122 11.9993C2.90122 6.98258 6.98246 2.90135 11.9991 2.90135C12.2274 2.90135 12.4126 2.7161 12.4126 2.48784C12.4126 2.25959 12.2276 2.07422 11.9993 2.07422Z" fill="black"/>
<path d="M18.6172 23.166H12.8276C12.5993 23.166 12.4141 23.3513 12.4141 23.5795C12.4141 23.8078 12.5993 23.993 12.8276 23.993H18.6172C18.8455 23.993 19.0307 23.8078 19.0307 23.5795C19.0307 23.3514 18.8455 23.166 18.6172 23.166Z" fill="black"/>
</g>
</g>
<defs>
<clipPath id="clip0_1_306">
<rect width="24" height="24" fill="white"/>
</clipPath>
<clipPath id="clip1_1_306">
<rect width="24" height="24" fill="white"/>
</clipPath>
</defs>
</svg>
