<svg width="24" height="24" viewBox="0 0 24 24" fill="none" xmlns="http://www.w3.org/2000/svg">
<path d="M1.82227 6.99414H5.52998C5.72414 6.99414 5.88155 6.83678 5.88155 6.64258C5.88155 6.44837 5.72414 6.29102 5.52998 6.29102H1.82227C1.62811 6.29102 1.4707 6.44837 1.4707 6.64258C1.4707 6.83678 1.62806 6.99414 1.82227 6.99414Z" fill="black"/>
<path d="M5.40216 8.6875H3.9375C3.74334 8.6875 3.58594 8.84486 3.58594 9.03906C3.58594 9.23327 3.74334 9.39062 3.9375 9.39062H5.40216C5.59631 9.39062 5.75372 9.23327 5.75372 9.03906C5.75372 8.84486 5.59631 8.6875 5.40216 8.6875Z" fill="black"/>
<path d="M0.351562 11.125H3.93806C4.13222 11.125 4.28963 10.9676 4.28963 10.7734C4.28963 10.5792 4.13222 10.4219 3.93806 10.4219H0.351562C0.157406 10.4219 0 10.5792 0 10.7734C0 10.9676 0.157406 11.125 0.351562 11.125Z" fill="black"/>
<path d="M5.88155 17.3574C5.88155 17.1632 5.72414 17.0059 5.52998 17.0059H1.82227C1.62811 17.0059 1.4707 17.1632 1.4707 17.3574C1.4707 17.5516 1.62811 17.709 1.82227 17.709H5.52998C5.72414 17.709 5.88155 17.5516 5.88155 17.3574Z" fill="black"/>
<path d="M5.40216 14.6113H3.9375C3.74334 14.6113 3.58594 14.7687 3.58594 14.9629C3.58594 15.1571 3.74334 15.3145 3.9375 15.3145H5.40216C5.59631 15.3145 5.75372 15.1571 5.75372 14.9629C5.75372 14.7687 5.59631 14.6113 5.40216 14.6113Z" fill="black"/>
<path d="M4.28963 13.2266C4.28963 13.0324 4.13222 12.875 3.93806 12.875H0.351562C0.157406 12.875 0 13.0324 0 13.2266C0 13.4208 0.157406 13.5781 0.351562 13.5781H3.93806C4.13222 13.5781 4.28963 13.4208 4.28963 13.2266Z" fill="black"/>
<path d="M14.9785 7.77295C15.1727 7.77295 15.3301 7.61559 15.3301 7.42139V6.88477C15.3301 6.69056 15.1727 6.5332 14.9785 6.5332C14.7843 6.5332 14.627 6.69056 14.627 6.88477V7.42139C14.627 7.61559 14.7843 7.77295 14.9785 7.77295Z" fill="black"/>
<path d="M18.8429 8.13614C18.7056 7.99889 18.483 7.99889 18.3457 8.13614L17.9663 8.51559C17.829 8.65294 17.829 8.8755 17.9663 9.0128C18.1036 9.15009 18.3262 9.15005 18.4635 9.0128L18.8429 8.63334C18.9802 8.49605 18.9802 8.27348 18.8429 8.13614Z" fill="black"/>
<path d="M19.5566 11.6484C19.3624 11.6484 19.2051 11.8058 19.2051 12C19.2051 12.1942 19.3624 12.3516 19.5566 12.3516H20.0932C20.2874 12.3516 20.4448 12.1942 20.4448 12C20.4448 11.8058 20.2874 11.6484 20.0932 11.6484H19.5566Z" fill="black"/>
<path d="M18.4635 14.9897C18.3261 14.8524 18.1036 14.8524 17.9663 14.9897C17.829 15.127 17.829 15.3496 17.9663 15.4869L18.3457 15.8663C18.4831 16.0036 18.7056 16.0036 18.8429 15.8663C18.9802 15.729 18.9802 15.5064 18.8429 15.3691L18.4635 14.9897Z" fill="black"/>
<path d="M14.627 16.5781V17.1147C14.627 17.3089 14.7843 17.4663 14.9785 17.4663C15.1727 17.4663 15.3301 17.3089 15.3301 17.1147V16.5781C15.3301 16.3839 15.1727 16.2266 14.9785 16.2266C14.7843 16.2266 14.627 16.384 14.627 16.5781Z" fill="black"/>
<path d="M11.4922 14.9897L11.1127 15.3691C10.9754 15.5065 10.9754 15.729 11.1127 15.8663C11.2501 16.0036 11.4726 16.0036 11.6099 15.8663L11.9893 15.4869C12.1266 15.3495 12.1266 15.127 11.9893 14.9897C11.8521 14.8524 11.6295 14.8524 11.4922 14.9897Z" fill="black"/>
<path d="M9.86328 11.6484C9.66912 11.6484 9.51172 11.8058 9.51172 12C9.51172 12.1942 9.66912 12.3516 9.86328 12.3516H10.3999C10.5941 12.3516 10.7515 12.1942 10.7515 12C10.7515 11.8058 10.5941 11.6484 10.3999 11.6484H9.86328Z" fill="black"/>
<path d="M11.9893 8.51559L11.6099 8.13614C11.4726 7.99889 11.25 7.99889 11.1127 8.13614C10.9754 8.27348 10.9754 8.49605 11.1127 8.63334L11.4922 9.0128C11.6295 9.15009 11.8521 9.15005 11.9893 9.0128C12.1266 8.8755 12.1266 8.65294 11.9893 8.51559Z" fill="black"/>
<path d="M16.869 12.0008C16.869 11.8066 16.7116 11.6493 16.5174 11.6493H15.3301V9.03906C15.3301 8.84486 15.1727 8.6875 14.9785 8.6875C14.7843 8.6875 14.627 8.84486 14.627 9.03906V12.0008C14.627 12.195 14.7843 12.3524 14.9785 12.3524H16.5174C16.7116 12.3524 16.869 12.195 16.869 12.0008Z" fill="black"/>
<path d="M21.6443 11.9435C21.8381 11.9317 21.9857 11.7651 21.9739 11.5713C21.7503 7.88208 18.6773 4.99219 14.9781 4.99219C11.1131 4.99219 7.96875 8.13656 7.96875 12.0015C7.96875 15.8665 11.1131 19.0109 14.9781 19.0109C18.4407 19.0109 21.3953 16.4739 21.9092 13.0504C21.9381 12.8584 21.8058 12.6794 21.6137 12.6505C21.4222 12.6218 21.2427 12.7539 21.2139 12.946C20.7522 16.0217 18.0964 18.3078 14.9781 18.3078C11.5008 18.3078 8.67188 15.4788 8.67188 12.0016C8.67188 8.52436 11.5008 5.69536 14.9781 5.69536C18.3062 5.69536 21.0709 8.29509 21.2721 11.6139C21.2838 11.8076 21.4503 11.9547 21.6443 11.9435Z" fill="black"/>
<path d="M14.9772 2.97852C13.7406 2.97852 12.529 3.23506 11.4139 3.71483H5.21094C5.01678 3.71483 4.85938 3.87219 4.85938 4.06639C4.85938 4.26059 5.01678 4.41795 5.21094 4.41795H10.0912C9.43138 4.84264 8.82392 5.35489 8.28833 5.94627C8.15802 6.09013 8.16898 6.31245 8.31289 6.44281C8.45684 6.57317 8.67908 6.56216 8.80948 6.41825C10.3846 4.67909 12.6327 3.68164 14.9772 3.68164C19.5643 3.68164 23.2962 7.4135 23.2962 12.0006C23.2962 16.5876 19.5643 20.3195 14.9772 20.3195C10.3901 20.3195 6.65825 16.5877 6.65825 12.0006C6.65825 10.3943 7.11711 8.83522 7.98514 7.49187C8.09052 7.3288 8.04373 7.1112 7.88066 7.00583C7.71758 6.9005 7.49998 6.94719 7.39456 7.11031C6.45284 8.56756 5.95512 10.2586 5.95512 12.0006C5.95512 15.1771 7.60541 17.9752 10.0935 19.5832H5.21098C5.01683 19.5832 4.85942 19.7406 4.85942 19.9348C4.85942 20.129 5.01683 20.2864 5.21098 20.2864H11.409C12.504 20.7598 13.7105 21.0227 14.9772 21.0227C19.952 21.0227 23.9993 16.9754 23.9993 12.0006C23.9993 7.0258 19.952 2.97852 14.9772 2.97852Z" fill="black"/>
</svg>
