<svg width="24" height="24" viewBox="0 0 24 24" fill="none" xmlns="http://www.w3.org/2000/svg">
<g clip-path="url(#clip0_1_370)">
<g clip-path="url(#clip1_1_370)">
<path d="M12 0C5.3833 0 0 5.3833 0 12C0 18.6167 5.3833 24 12 24C18.6167 24 24 18.6167 24 12C24 5.3833 18.6167 0 12 0ZM23.1632 9.68449L20.7548 10.1089C20.5748 9.27451 20.2794 8.48256 19.884 7.75189L21.9991 6.53068C22.534 7.50475 22.9312 8.56465 23.1632 9.68449ZM21.6957 6.01289L19.5793 7.23486C19.1303 6.5233 18.5849 5.87889 17.96 5.32078L19.5292 3.45076C20.3705 4.19256 21.1022 5.05523 21.6957 6.01289ZM19.0689 3.06627L17.4991 4.93705C16.8425 4.42471 16.1134 4.00207 15.3293 3.68689L16.1649 1.39131C17.2184 1.80639 18.1952 2.3734 19.0689 3.06627ZM12.3 0.607617C13.4507 0.637617 14.5589 0.838242 15.6012 1.18629L14.7657 3.48176C13.9849 3.22764 13.1576 3.07887 12.3 3.05045V0.607617ZM11.7 0.607617V3.05039C10.8424 3.07881 10.0151 3.22758 9.23432 3.4817L8.39883 1.18629C9.44109 0.838242 10.5493 0.637617 11.7 0.607617ZM7.83516 1.39131L8.67076 3.68689C7.88666 4.00207 7.15752 4.42471 6.50098 4.93705L4.93107 3.06627C5.80482 2.3734 6.78164 1.80639 7.83516 1.39131ZM4.47082 3.4507L6.03996 5.32078C5.41518 5.87889 4.86978 6.5233 4.4209 7.2348L2.30437 6.01277C2.89793 5.05518 3.62959 4.1925 4.47082 3.4507ZM2.00098 6.53057L4.11621 7.75189C3.72088 8.48262 3.42557 9.27457 3.24545 10.109L0.836895 9.68449C1.06887 8.56459 1.46602 7.50463 2.00098 6.53057ZM0.6 12C0.6 11.4136 0.644707 10.8375 0.730488 10.2747L3.13828 10.6991C3.07617 11.124 3.04271 11.5581 3.04271 12C3.04271 12.413 3.07324 12.8188 3.12762 13.2172L0.719824 13.6416C0.642129 13.1053 0.6 12.5575 0.6 12ZM0.820957 14.2328L3.22641 13.8088C3.39932 14.6488 3.69164 15.4454 4.08234 16.1822L1.96518 17.4046C1.4352 16.4244 1.04537 15.3581 0.820957 14.2328ZM2.2643 17.9248L4.38088 16.7028C4.82742 17.4236 5.37246 18.0771 5.99848 18.6432L4.42928 20.5133C3.58693 19.7633 2.85504 18.8919 2.2643 17.9248ZM4.88783 20.8997L6.45768 19.0289C7.11791 19.5506 7.85244 19.9813 8.64352 20.3023L7.80791 22.5979C6.74748 22.177 5.76498 21.6022 4.88783 20.8997ZM11.7 23.3924C10.5391 23.3621 9.42141 23.1581 8.37111 22.8043L9.2066 20.5089C9.99551 20.7685 10.8322 20.9208 11.7 20.9496V23.3924ZM3.64277 12C3.64277 7.39189 7.39189 3.64277 12 3.64277C16.6084 3.64277 20.3575 7.39189 20.3575 12C20.3575 16.6081 16.6084 20.3572 12 20.3572C7.39189 20.3572 3.64277 16.6081 3.64277 12ZM12.3 23.3924V20.9496C13.1678 20.9208 14.0045 20.7686 14.7934 20.5089L15.6289 22.8043C14.5786 23.1581 13.4609 23.3621 12.3 23.3924ZM16.1921 22.5979L15.3565 20.3023C16.1475 19.9813 16.8821 19.5506 17.5424 19.0289L19.1122 20.8997C18.235 21.6022 17.2525 22.177 16.1921 22.5979ZM19.5707 20.5133L18.0016 18.6432C18.6277 18.0772 19.1728 17.4236 19.6194 16.7027L21.7358 17.9247C21.145 18.8919 20.4131 19.7633 19.5707 20.5133ZM22.0349 17.4045L19.9179 16.1821C20.3086 15.4454 20.6009 14.6488 20.7738 13.8089L23.179 14.2328C22.9546 15.3581 22.5649 16.4243 22.0349 17.4045ZM20.8726 13.2173C20.927 12.819 20.9575 12.4131 20.9575 12C20.9575 11.5581 20.9241 11.124 20.862 10.699L23.2695 10.2747C23.3553 10.8375 23.4 11.4136 23.4 11.9999C23.4 12.5575 23.3579 13.1052 23.2802 13.6415L20.8726 13.2173Z" fill="black"/>
<path d="M18.7933 11.6569H13.7053C13.5796 10.9416 13.0151 10.3771 12.2996 10.2515V5.16328C12.2996 4.99746 12.1654 4.86328 11.9996 4.86328C11.8338 4.86328 11.6996 4.99746 11.6996 5.16328V10.2516C10.9844 10.3772 10.4198 10.9417 10.2942 11.6569H5.20625C5.04043 11.6569 4.90625 11.7911 4.90625 11.9569C4.90625 12.1228 5.04043 12.2569 5.20625 12.2569H10.2942C10.4199 12.9722 10.9844 13.5367 11.6996 13.6623V18.7506C11.6996 18.9164 11.8338 19.0506 11.9996 19.0506C12.1654 19.0506 12.2996 18.9164 12.2996 18.7506V13.6624C13.0151 13.5368 13.5797 12.9722 13.7053 12.2569H18.7933C18.9591 12.2569 19.0933 12.1228 19.0933 11.9569C19.0933 11.7911 18.9591 11.6569 18.7933 11.6569ZM11.9996 13.0901C11.3747 13.0901 10.8664 12.5818 10.8664 11.9569C10.8664 11.332 11.3747 10.8237 11.9996 10.8237C12.6245 10.8237 13.1331 11.332 13.1331 11.9569C13.1331 12.5818 12.6245 13.0901 11.9996 13.0901Z" fill="black"/>
</g>
</g>
<defs>
<clipPath id="clip0_1_370">
<rect width="24" height="24" fill="white"/>
</clipPath>
<clipPath id="clip1_1_370">
<rect width="24" height="24" fill="white"/>
</clipPath>
</defs>
</svg>
