<?xml version="1.0" encoding="utf-8"?>
<!-- Generator: Adobe Illustrator 18.0.0, SVG Export Plug-In . SVG Version: 6.00 Build 0)  -->
<!DOCTYPE svg PUBLIC "-//W3C//DTD SVG 1.1//EN" "http://www.w3.org/Graphics/SVG/1.1/DTD/svg11.dtd">
<svg version="1.1" id="Layer_1" xmlns="http://www.w3.org/2000/svg" xmlns:xlink="http://www.w3.org/1999/xlink" x="0px" y="0px"
	 viewBox="0 0 24.5 24.3" enable-background="new 0 0 24.5 24.3" xml:space="preserve">
<path d="M0.8,7v13c0,0.3,0.2,0.5,0.4,0.5l22,0c0.2,0,0.4-0.2,0.4-0.5V7l-1.2-3.1c-0.1-0.2-0.2-0.3-0.4-0.3l-19.7,0
	C2.2,3.5,2.1,3.6,2,3.8L0.8,7z M23.3,21.2h-22c-0.6,0-1-0.5-1-1.2V6.9c0,0,0-0.1,0-0.1l1.2-3.2C1.7,3.1,2,2.8,2.4,2.8l19.7,0
	c0.4,0,0.7,0.3,0.9,0.7l1.2,3.2c0,0,0,0.1,0,0.2l0,13.1C24.3,20.6,23.8,21.2,23.3,21.2z"/>
<path d="M24,7.2H0.5c-0.2,0-0.3-0.1-0.3-0.3c0-0.2,0.1-0.3,0.3-0.3H24c0.2,0,0.3,0.1,0.3,0.3C24.3,7.1,24.1,7.2,24,7.2z"/>
<path d="M2.4,18.5h19.7V9.2H2.4V18.5z M22.4,19.2H2.2c-0.2,0-0.3-0.1-0.3-0.3v-10c0-0.2,0.1-0.3,0.3-0.3h20.2c0.2,0,0.3,0.1,0.3,0.3
	v10C22.7,19.1,22.5,19.2,22.4,19.2z"/>
<path d="M12.3,15.9c-1.3,0-2.4-1.3-2.4-2.9V8.8c0-0.2,0.1-0.3,0.3-0.3c0.2,0,0.3,0.1,0.3,0.3V13c0,1.2,0.8,2.3,1.9,2.3
	s1.9-1,1.9-2.3V8.8c0-0.2,0.1-0.3,0.3-0.3c0.2,0,0.3,0.1,0.3,0.3V13C14.7,14.6,13.6,15.9,12.3,15.9z"/>
<path d="M11.7,13.1h1.2l-0.4-1.2c0-0.1,0-0.3,0.1-0.4c0.1-0.1,0.1-0.2,0.1-0.4c0-0.1-0.1-0.3-0.1-0.4c-0.1-0.1-0.2-0.1-0.3-0.1
	c-0.2,0-0.3,0.2-0.4,0.4c0,0.2,0,0.4,0.1,0.5c0.1,0.1,0.1,0.2,0.1,0.4L11.7,13.1z M13,13.8h-1.4c-0.2,0-0.3-0.1-0.4-0.3
	c-0.1-0.2-0.1-0.4,0-0.5l0.4-1.1c-0.2-0.3-0.2-0.6-0.2-0.9c0.1-0.5,0.4-0.9,0.8-1c0.3,0,0.6,0.1,0.8,0.3c0.2,0.2,0.3,0.5,0.3,0.9
	c0,0.3-0.1,0.5-0.2,0.7l0.4,1.1c0.1,0.2,0,0.4,0,0.5C13.3,13.7,13.1,13.8,13,13.8z"/>
</svg>
