<svg width="24" height="24" viewBox="0 0 24 24" fill="none" xmlns="http://www.w3.org/2000/svg">
<g clip-path="url(#clip0_2_449)">
<path d="M12 23.3513C9.75489 23.3513 7.56022 22.6856 5.6935 21.4383C3.82678 20.191 2.37185 18.4181 1.5127 16.344C0.653539 14.2698 0.428744 11.9874 0.866739 9.78544C1.30473 7.58349 2.38584 5.56087 3.97336 3.97336C5.56087 2.38584 7.58349 1.30473 9.78544 0.866739C11.9874 0.428744 14.2698 0.653539 16.344 1.5127C18.4181 2.37185 20.191 3.82678 21.4383 5.6935C22.6856 7.56022 23.3513 9.75489 23.3513 12C23.3513 15.0105 22.1554 17.8978 20.0266 20.0266C17.8978 22.1554 15.0105 23.3513 12 23.3513ZM12 1.29727C9.88318 1.29727 7.81392 1.92498 6.05387 3.101C4.29382 4.27703 2.92203 5.94857 2.11197 7.90423C1.30191 9.85989 1.08996 12.0118 1.50292 14.088C1.91589 16.1641 2.93522 18.0711 4.43202 19.5679C5.92882 21.0647 7.83586 22.0841 9.91198 22.497C11.9881 22.91 14.1401 22.698 16.0957 21.888C18.0514 21.0779 19.7229 19.7061 20.8989 17.9461C22.075 16.186 22.7027 14.1168 22.7027 12C22.7027 9.16144 21.5751 6.43917 19.5679 4.43202C17.5608 2.42488 14.8385 1.29727 12 1.29727Z" fill="black"/>
<path d="M12.0008 20.4332C10.333 20.4332 8.70269 19.9387 7.31599 19.0121C5.92928 18.0855 4.84847 16.7686 4.21024 15.2277C3.57201 13.6869 3.40502 11.9914 3.73039 10.3557C4.05576 8.71998 4.85887 7.21746 6.03817 6.03817C7.21746 4.85887 8.71998 4.05576 10.3557 3.73039C11.9914 3.40502 13.6869 3.57201 15.2277 4.21024C16.7686 4.84847 18.0855 5.92928 19.0121 7.31599C19.9387 8.70269 20.4332 10.333 20.4332 12.0008C20.4332 13.1082 20.2151 14.2047 19.7913 15.2277C19.3676 16.2508 18.7464 17.1804 17.9634 17.9634C17.1804 18.7464 16.2508 19.3676 15.2277 19.7913C14.2047 20.2151 13.1082 20.4332 12.0008 20.4332ZM12.0008 4.21701C10.4613 4.21701 8.95639 4.67352 7.67636 5.52882C6.39632 6.38411 5.39865 7.59977 4.80952 9.02207C4.22038 10.4444 4.06624 12.0094 4.36658 13.5193C4.66691 15.0292 5.40825 16.4162 6.49683 17.5048C7.58541 18.5933 8.97235 19.3347 10.4823 19.635C11.9922 19.9354 13.5572 19.7812 14.9795 19.1921C16.4018 18.6029 17.6175 17.6053 18.4728 16.3252C19.3281 15.0452 19.7846 13.5403 19.7846 12.0008C19.7846 9.93641 18.9645 7.95657 17.5048 6.49683C16.045 5.03709 14.0652 4.21701 12.0008 4.21701Z" fill="black"/>
<path d="M12 4.21619C11.914 4.21619 11.8315 4.18202 11.7707 4.1212C11.7098 4.06037 11.6757 3.97788 11.6757 3.89186V0.972945C11.6757 0.886929 11.7098 0.804436 11.7707 0.743613C11.8315 0.68279 11.914 0.648621 12 0.648621C12.086 0.648621 12.1685 0.68279 12.2293 0.743613C12.2901 0.804436 12.3243 0.886929 12.3243 0.972945V3.89186C12.3243 3.97788 12.2901 4.06037 12.2293 4.1212C12.1685 4.18202 12.086 4.21619 12 4.21619Z" fill="black"/>
<path d="M7.94506 5.30321C7.88791 5.30343 7.83171 5.28855 7.78216 5.26008C7.73262 5.2316 7.69147 5.19054 7.6629 5.14104L6.20344 2.61456C6.16043 2.53972 6.14891 2.45087 6.17141 2.36754C6.19392 2.28422 6.2486 2.21324 6.32344 2.17023C6.39827 2.12723 6.48712 2.11571 6.57045 2.13821C6.65378 2.16071 6.72475 2.2154 6.76776 2.29023L8.22722 4.81672C8.25574 4.86612 8.27073 4.92216 8.27067 4.9792C8.27062 5.03624 8.25552 5.09226 8.2269 5.1416C8.19828 5.19095 8.15716 5.23187 8.10767 5.26024C8.05819 5.28861 8.0021 5.30343 7.94506 5.30321Z" fill="black"/>
<path d="M4.97822 8.26938C4.9214 8.26977 4.86548 8.25524 4.81606 8.22722L2.28633 6.76776C2.21149 6.72475 2.15681 6.65378 2.1343 6.57045C2.1118 6.48712 2.12332 6.39827 2.16633 6.32344C2.20933 6.2486 2.28031 6.19392 2.36364 6.17141C2.44696 6.14891 2.53582 6.16043 2.61065 6.20344L5.14038 7.6629C5.20286 7.6983 5.25182 7.75344 5.27959 7.81967C5.30735 7.88589 5.31235 7.95946 5.2938 8.02884C5.27525 8.09822 5.2342 8.15947 5.17709 8.20301C5.11998 8.24654 5.05003 8.26988 4.97822 8.26938Z" fill="black"/>
<path d="M3.89186 12.3243H0.972945C0.886929 12.3243 0.804436 12.2901 0.743613 12.2293C0.68279 12.1685 0.648621 12.086 0.648621 12C0.648621 11.914 0.68279 11.8315 0.743613 11.7707C0.804436 11.7098 0.886929 11.6757 0.972945 11.6757H3.89186C3.97788 11.6757 4.06037 11.7098 4.1212 11.7707C4.18202 11.8315 4.21619 11.914 4.21619 12C4.21619 12.086 4.18202 12.1685 4.1212 12.2293C4.06037 12.2901 3.97788 12.3243 3.89186 12.3243Z" fill="black"/>
<path d="M2.45191 17.8379C2.39476 17.8381 2.33857 17.8232 2.28902 17.7947C2.23947 17.7663 2.19832 17.7252 2.16975 17.6757C2.14817 17.6389 2.13407 17.5982 2.12826 17.5559C2.12245 17.5136 2.12505 17.4706 2.13589 17.4293C2.14674 17.388 2.16563 17.3493 2.19147 17.3153C2.21732 17.2814 2.24961 17.2528 2.28651 17.2314L4.81624 15.7719C4.89107 15.7289 4.97992 15.7174 5.06325 15.7399C5.14658 15.7624 5.21755 15.8171 5.26056 15.8919C5.30357 15.9668 5.31509 16.0556 5.29258 16.1389C5.27008 16.2223 5.21539 16.2932 5.14056 16.3362L2.61083 17.7957C2.56236 17.8232 2.50763 17.8377 2.45191 17.8379Z" fill="black"/>
<path d="M6.48577 21.8716C6.42873 21.8718 6.37264 21.857 6.32316 21.8286C6.27367 21.8002 6.23255 21.7593 6.20393 21.71C6.17531 21.6606 6.16021 21.6046 6.16016 21.5476C6.1601 21.4905 6.17509 21.4345 6.20361 21.3851L7.66307 18.8586C7.68436 18.8215 7.71275 18.789 7.7466 18.763C7.78046 18.7369 7.81912 18.7177 7.86038 18.7066C7.90164 18.6954 7.94469 18.6925 7.98707 18.698C8.02945 18.7035 8.07034 18.7173 8.10739 18.7386C8.14445 18.7599 8.17694 18.7883 8.20303 18.8221C8.22911 18.856 8.24827 18.8946 8.25942 18.9359C8.27056 18.9772 8.27347 19.0202 8.26797 19.0626C8.26248 19.105 8.24869 19.1459 8.22739 19.1829L6.76793 21.7094C6.73936 21.7589 6.69821 21.8 6.64866 21.8284C6.59911 21.8569 6.54292 21.8718 6.48577 21.8716Z" fill="black"/>
<path d="M12.0001 23.3508C11.9141 23.3508 11.8316 23.3166 11.7708 23.2558C11.71 23.195 11.6758 23.1125 11.6758 23.0264V20.1075C11.6758 20.0215 11.71 19.939 11.7708 19.8782C11.8316 19.8174 11.9141 19.7832 12.0001 19.7832C12.0861 19.7832 12.1686 19.8174 12.2294 19.8782C12.2903 19.939 12.3244 20.0215 12.3244 20.1075V23.0264C12.3244 23.1125 12.2903 23.195 12.2294 23.2558C12.1686 23.3166 12.0861 23.3508 12.0001 23.3508Z" fill="black"/>
<path d="M17.5134 21.8716C17.4563 21.8718 17.4001 21.8569 17.3505 21.8284C17.301 21.8 17.2598 21.7589 17.2313 21.7094L15.7718 19.1829C15.7288 19.1081 15.7173 19.0192 15.7398 18.9359C15.7623 18.8526 15.817 18.7816 15.8918 18.7386C15.9666 18.6956 16.0555 18.6841 16.1388 18.7066C16.2221 18.7291 16.2931 18.7838 16.3361 18.8586L17.7956 21.3851C17.8241 21.4345 17.8391 21.4905 17.839 21.5476C17.839 21.6046 17.8239 21.6606 17.7953 21.71C17.7666 21.7593 17.7255 21.8002 17.676 21.8286C17.6265 21.857 17.5705 21.8718 17.5134 21.8716Z" fill="black"/>
<path d="M21.5472 17.8377C21.4915 17.8376 21.4368 17.823 21.3883 17.7956L18.8586 16.3361C18.8215 16.3148 18.789 16.2864 18.763 16.2526C18.7369 16.2187 18.7177 16.1801 18.7066 16.1388C18.6954 16.0976 18.6925 16.0545 18.698 16.0121C18.7035 15.9697 18.7173 15.9288 18.7386 15.8918C18.7599 15.8547 18.7883 15.8222 18.8221 15.7962C18.856 15.7701 18.8946 15.7509 18.9359 15.7398C18.9772 15.7286 19.0202 15.7257 19.0626 15.7312C19.105 15.7367 19.1459 15.7505 19.1829 15.7718L21.7126 17.2313C21.7495 17.2527 21.7818 17.2812 21.8077 17.3152C21.8335 17.3492 21.8524 17.3879 21.8633 17.4292C21.8741 17.4705 21.8767 17.5135 21.8709 17.5558C21.8651 17.598 21.851 17.6388 21.8294 17.6756C21.8008 17.7251 21.7597 17.7661 21.7101 17.7946C21.6606 17.8231 21.6044 17.838 21.5472 17.8377Z" fill="black"/>
<path d="M23.0264 12.3244H20.1075C20.0215 12.3244 19.939 12.2903 19.8782 12.2294C19.8174 12.1686 19.7832 12.0861 19.7832 12.0001C19.7832 11.9141 19.8174 11.8316 19.8782 11.7708C19.939 11.71 20.0215 11.6758 20.1075 11.6758H23.0264C23.1125 11.6758 23.195 11.71 23.2558 11.7708C23.3166 11.8316 23.3508 11.9141 23.3508 12.0001C23.3508 12.0861 23.3166 12.1686 23.2558 12.2294C23.195 12.2903 23.1125 12.3244 23.0264 12.3244Z" fill="black"/>
<path d="M19.0219 8.26938C18.9501 8.26988 18.8801 8.24654 18.823 8.20301C18.7659 8.15947 18.7249 8.09822 18.7063 8.02884C18.6878 7.95946 18.6928 7.88589 18.7205 7.81967C18.7483 7.75344 18.7973 7.6983 18.8597 7.6629L21.3895 6.20344C21.4643 6.16043 21.5532 6.14891 21.6365 6.17141C21.7198 6.19392 21.7908 6.2486 21.8338 6.32344C21.8768 6.39827 21.8883 6.48712 21.8658 6.57045C21.8433 6.65378 21.7886 6.72475 21.7138 6.76776L19.1841 8.22722C19.1346 8.25524 19.0787 8.26977 19.0219 8.26938Z" fill="black"/>
<path d="M16.0541 5.30321C15.9971 5.30343 15.941 5.28861 15.8915 5.26024C15.842 5.23187 15.8009 5.19094 15.7723 5.1416C15.7437 5.09226 15.7286 5.03624 15.7285 4.9792C15.7285 4.92216 15.7434 4.86612 15.772 4.81672L17.2314 2.29023C17.2527 2.25318 17.2811 2.22068 17.315 2.1946C17.3488 2.16851 17.3875 2.14935 17.4287 2.13821C17.47 2.12707 17.513 2.12416 17.5554 2.12965C17.5978 2.13515 17.6387 2.14894 17.6758 2.17023C17.7128 2.19153 17.7453 2.21991 17.7714 2.25377C17.7975 2.28762 17.8166 2.32628 17.8278 2.36754C17.8389 2.4088 17.8418 2.45185 17.8363 2.49423C17.8308 2.53662 17.817 2.5775 17.7958 2.61456L16.3363 5.14104C16.3077 5.19054 16.2666 5.2316 16.217 5.26008C16.1675 5.28855 16.1113 5.30343 16.0541 5.30321Z" fill="black"/>
<path d="M12.0003 12.3248C11.4305 12.3378 10.8786 12.1248 10.4653 11.7322C10.0521 11.3396 9.81106 10.7994 9.79492 10.2296C9.82553 9.6654 10.0712 9.13436 10.4815 8.74578C10.8917 8.3572 11.4353 8.14063 12.0003 8.14062C12.5654 8.14063 13.109 8.3572 13.5192 8.74578C13.9294 9.13436 14.1751 9.6654 14.2057 10.2296C14.2057 10.3156 14.1716 10.3981 14.1107 10.459C14.0499 10.5198 13.9674 10.5539 13.8814 10.5539C13.7954 10.5539 13.7129 10.5198 13.6521 10.459C13.5913 10.3981 13.5571 10.3156 13.5571 10.2296C13.5315 9.83412 13.3564 9.46316 13.0673 9.19209C12.7781 8.92102 12.3967 8.77017 12.0003 8.77017C11.604 8.77017 11.2225 8.92102 10.9334 9.19209C10.6442 9.46316 10.4691 9.83412 10.4436 10.2296C10.4588 10.6277 10.6312 11.0035 10.923 11.2746C11.2148 11.5458 11.6022 11.6901 12.0003 11.6761C12.0863 11.6761 12.1688 11.7103 12.2297 11.7711C12.2905 11.8319 12.3247 11.9144 12.3247 12.0004C12.3247 12.0865 12.2905 12.1689 12.2297 12.2298C12.1688 12.2906 12.0863 12.3248 12.0003 12.3248Z" fill="black"/>
<path d="M12.0003 15.8654C11.4305 15.8785 10.8786 15.6654 10.4653 15.2728C10.0521 14.8803 9.81106 14.34 9.79492 13.7703C9.79492 13.6842 9.82909 13.6017 9.88991 13.5409C9.95074 13.4801 10.0332 13.4459 10.1192 13.4459C10.2053 13.4459 10.2878 13.4801 10.3486 13.5409C10.4094 13.6017 10.4436 13.6842 10.4436 13.7703C10.4208 14.0828 10.4926 14.3949 10.6497 14.666C10.8068 14.9371 11.042 15.1546 11.3245 15.2902C11.6069 15.4258 11.9237 15.4731 12.2335 15.4261C12.5433 15.3791 12.8318 15.2399 13.0613 15.0266C13.2909 14.8133 13.4508 14.5358 13.5205 14.2303C13.5901 13.9248 13.5661 13.6054 13.4516 13.3137C13.3371 13.0221 13.1374 12.7716 12.8785 12.5951C12.6197 12.4185 12.3137 12.3239 12.0003 12.3238C11.9143 12.3238 11.8318 12.2896 11.771 12.2288C11.7102 12.168 11.676 12.0855 11.676 11.9994C11.676 11.9134 11.7102 11.8309 11.771 11.7701C11.8318 11.7093 11.9143 11.6751 12.0003 11.6751C12.2853 11.6593 12.5705 11.7017 12.8384 11.7998C13.1064 11.8979 13.3516 12.0497 13.5589 12.2458C13.7662 12.4419 13.9314 12.6783 14.0442 12.9404C14.1571 13.2025 14.2153 13.4849 14.2153 13.7703C14.2153 14.0556 14.1571 14.338 14.0442 14.6001C13.9314 14.8623 13.7662 15.0986 13.5589 15.2947C13.3516 15.4908 13.1064 15.6426 12.8384 15.7407C12.5705 15.8388 12.2853 15.8812 12.0003 15.8654Z" fill="black"/>
<path d="M12.0001 16.5413C11.9141 16.5413 11.8316 16.5072 11.7708 16.4463C11.71 16.3855 11.6758 16.303 11.6758 16.217V15.5392C11.6758 15.4532 11.71 15.3707 11.7708 15.3098C11.8316 15.249 11.9141 15.2148 12.0001 15.2148C12.0861 15.2148 12.1686 15.249 12.2294 15.3098C12.2903 15.3707 12.3244 15.4532 12.3244 15.5392V16.217C12.3244 16.303 12.2903 16.3855 12.2294 16.4463C12.1686 16.5072 12.0861 16.5413 12.0001 16.5413Z" fill="black"/>
<path d="M12.0001 8.78547C11.9141 8.78547 11.8316 8.7513 11.7708 8.69048C11.71 8.62966 11.6758 8.54716 11.6758 8.46115V7.78331C11.6758 7.69729 11.71 7.6148 11.7708 7.55398C11.8316 7.49315 11.9141 7.45898 12.0001 7.45898C12.0861 7.45898 12.1686 7.49315 12.2294 7.55398C12.2903 7.6148 12.3244 7.69729 12.3244 7.78331V8.46115C12.3244 8.54716 12.2903 8.62966 12.2294 8.69048C12.1686 8.7513 12.0861 8.78547 12.0001 8.78547Z" fill="black"/>
</g>
<defs>
<clipPath id="clip0_2_449">
<rect width="24" height="24" fill="white"/>
</clipPath>
</defs>
</svg>
