<svg width="24" height="24" viewBox="0 0 24 24" fill="none" xmlns="http://www.w3.org/2000/svg">
<g clip-path="url(#clip0_1_282)">
<path d="M21.5755 5.7386H16.5741C16.6443 5.71521 16.7144 5.69182 16.7799 5.66842C18.4408 5.0836 19.4655 3.93735 19.5216 2.60863C19.5637 1.58402 19.007 0.657662 18.0993 0.245947C17.5238 -0.0160539 15.9659 -0.409055 13.9634 1.51384C12.9716 2.46827 12.1575 3.68003 11.6382 4.94792C11.1189 3.68003 10.3048 2.46827 9.31293 1.51384C7.31518 -0.413733 5.75721 -0.0160539 5.18175 0.245947C4.2741 0.657662 3.71267 1.58402 3.75946 2.60863C3.8156 3.93735 4.84021 5.0836 6.50111 5.66842C6.57128 5.69182 6.63678 5.71521 6.70696 5.7386H2.42138C1.60263 5.7386 0.933594 6.40764 0.933594 7.22639V10.726C0.933594 11.4184 1.40613 11.9985 2.0471 12.167V22.0107C2.0471 23.0915 2.92667 23.9757 4.0121 23.9757H19.9895C21.0702 23.9757 21.9545 23.0961 21.9545 22.0107V12.1623C22.5954 11.9939 23.068 11.4137 23.068 10.7213V7.22171C23.0633 6.40296 22.3942 5.7386 21.5755 5.7386ZM14.4828 2.05188C15.3577 1.20973 16.2513 0.765269 17.0326 0.765269C17.2993 0.765269 17.5566 0.816733 17.7952 0.924341C18.4221 1.20973 18.8105 1.85538 18.7777 2.5712C18.7356 3.58645 17.8981 4.47538 16.532 4.95728C15.3811 5.36431 13.8745 5.62164 12.1482 5.71053C12.6067 4.37713 13.4582 3.03906 14.4828 2.05188ZM4.50335 2.5712C4.47528 1.85538 4.85892 1.20973 5.48585 0.924341C5.72446 0.816733 5.9771 0.765269 6.24846 0.765269C7.02978 0.765269 7.91872 1.20973 8.79829 2.05188C9.82758 3.03906 10.6744 4.37713 11.1282 5.71521C9.40183 5.62632 7.89532 5.36431 6.74439 4.96196C5.38292 4.48006 4.54546 3.58645 4.50335 2.5712ZM1.68217 10.7213V7.22171C1.68217 6.81467 2.01435 6.4825 2.42138 6.4825H9.64979C9.12111 6.92696 8.686 7.51178 8.26025 8.08725C7.82514 8.67675 7.41811 9.2335 6.9175 9.63118C6.75375 9.7575 6.73036 9.99611 6.85668 10.1552C6.93153 10.2488 7.03914 10.2955 7.15143 10.2955C7.23096 10.2955 7.31518 10.2675 7.38536 10.216C7.96082 9.7575 8.424 9.13525 8.86847 8.53171C9.56558 7.58664 10.2299 6.68835 11.2733 6.51057V11.4558H2.42138C2.01435 11.4605 1.68217 11.1283 1.68217 10.7213ZM2.79567 22.0107V12.2091H11.2686V23.2271H4.0121C3.33838 23.2271 2.79567 22.6797 2.79567 22.0107ZM19.9848 23.2271H12.0172V12.2091H21.2059V22.0107C21.2012 22.6797 20.6585 23.2271 19.9848 23.2271ZM22.3147 10.7213C22.3147 11.1283 21.9825 11.4605 21.5755 11.4605H12.0172V6.51525C13.0605 6.68835 13.7202 7.58664 14.4219 8.53639C14.8664 9.13993 15.3249 9.76218 15.9051 10.2207C15.9752 10.2768 16.0548 10.3002 16.139 10.3002C16.2513 10.3002 16.3589 10.2534 16.4337 10.1599C16.5601 9.99611 16.5367 9.76218 16.3729 9.63586C15.8723 9.23818 15.4653 8.68143 15.0302 8.09193C14.6044 7.51646 14.174 6.92696 13.6406 6.48717H21.5849C21.9919 6.48717 22.3241 6.81935 22.3241 7.22639V10.7213H22.3147Z" fill="black"/>
</g>
<defs>
<clipPath id="clip0_1_282">
<rect width="24" height="24" fill="white"/>
</clipPath>
</defs>
</svg>
