<svg width="24" height="24" viewBox="0 0 24 24" fill="none" xmlns="http://www.w3.org/2000/svg">
<g clip-path="url(#clip0_1_355)">
<path d="M22 7.5992C20.8973 7.5992 20 8.49648 20 9.59922C20 10.565 20.6882 11.3729 21.6 11.5588V17.1992C21.6 17.4197 21.4207 17.5992 21.2 17.5992H20.4V16.7992C20.4 16.5783 20.2211 16.3992 20 16.3992H18.8V5.40428C18.8 4.33966 18.1906 3.35448 17.2477 2.89469C14.9719 1.78553 12.2582 1.19922 9.39998 1.19922C6.54178 1.19922 3.82809 1.78553 1.55231 2.89473C0.609375 3.35448 0 4.33966 0 5.40428V20.7992C0 21.9019 0.897281 22.7992 2.00002 22.7992H16.8C17.9027 22.7992 18.8 21.9019 18.8 20.7992V19.5992H20C20.2211 19.5992 20.4 19.4201 20.4 19.1992V18.3992H21.2C21.8617 18.3992 22.4 17.8609 22.4 17.1992V11.5588C23.3117 11.3729 24 10.565 24 9.59922C24 8.49648 23.1027 7.5992 22 7.5992ZM0.800016 9.9992H6V17.5992H0.800016V9.9992ZM18 20.7992C18 21.4609 17.4617 21.9992 16.8 21.9992H2.00002C1.33828 21.9992 0.800016 21.4609 0.800016 20.7992V18.3992H18V20.7992ZM6.80002 17.5992V9.9992H12V17.5992H6.80002V17.5992ZM18 17.5992H12.8V9.9992H18V17.5992ZM18 9.19923H0.800016V5.40433C0.800016 4.64341 1.23281 3.94066 1.90312 3.61389C4.03945 2.57266 6.70195 1.99923 9.39998 1.99923C12.098 1.99923 14.7606 2.57266 16.8969 3.61384C17.5672 3.94061 18 4.64336 18 5.40428V9.19923ZM19.6 18.7992H18.8V17.1992H19.6V18.7992ZM22 10.7992C21.3383 10.7992 20.8 10.261 20.8 9.59922C20.8 8.93748 21.3383 8.39922 22 8.39922C22.6617 8.39922 23.2 8.93748 23.2 9.59922C23.2 10.261 22.6617 10.7992 22 10.7992Z" fill="black"/>
<path d="M4.79958 11.1992H1.99959C1.77848 11.1992 1.59961 11.3783 1.59961 11.5992C1.59961 11.8201 1.77848 11.9992 1.99959 11.9992H4.17848L2.43553 15.8338C2.34413 16.0348 2.43281 16.2719 2.63395 16.3633C2.68786 16.3877 2.74411 16.3992 2.79919 16.3992C2.95153 16.3992 3.09684 16.3122 3.16364 16.1647L5.16366 11.7647C5.21991 11.6411 5.20936 11.4971 5.13591 11.3826C5.06208 11.2684 4.93552 11.1992 4.79958 11.1992Z" fill="black"/>
<path d="M10.7996 11.1992H7.99959C7.77848 11.1992 7.59961 11.3783 7.59961 11.5992C7.59961 11.8201 7.77848 11.9992 7.99959 11.9992H10.1785L8.43553 15.8338C8.34412 16.0348 8.43281 16.2719 8.63395 16.3633C8.68786 16.3877 8.74411 16.3992 8.79919 16.3992C8.95153 16.3992 9.09684 16.3122 9.16364 16.1647L11.1637 11.7647C11.2199 11.6411 11.2094 11.4971 11.1359 11.3826C11.0621 11.2684 10.9355 11.1992 10.7996 11.1992Z" fill="black"/>
<path d="M13.9996 11.9992H16.1785L14.4355 15.8338C14.3441 16.0348 14.4328 16.2719 14.634 16.3633C14.6879 16.3877 14.7441 16.3992 14.7992 16.3992C14.9515 16.3992 15.0968 16.3122 15.1636 16.1647L17.1637 11.7647C17.2199 11.6411 17.2094 11.4971 17.1359 11.3826C17.0621 11.2684 16.9355 11.1992 16.7996 11.1992H13.9996C13.7785 11.1992 13.5996 11.3783 13.5996 11.5992C13.5996 11.8201 13.7785 11.9992 13.9996 11.9992Z" fill="black"/>
<path d="M12.3996 4H6.39963C5.95863 4 5.59961 4.35878 5.59961 4.80002V6.00002C5.59961 6.44125 5.95858 6.80003 6.39963 6.80003H12.3996C12.8406 6.80003 13.1996 6.44125 13.1996 6.00002V4.80002C13.1996 4.35878 12.8407 4 12.3996 4ZM6.39963 6.00002V4.80002H12.3996L12.4 6.00002H6.39963Z" fill="black"/>
</g>
<defs>
<clipPath id="clip0_1_355">
<rect width="24" height="24" fill="white"/>
</clipPath>
</defs>
</svg>
