<svg width="24" height="24" viewBox="0 0 24 24" fill="none" xmlns="http://www.w3.org/2000/svg">
<g clip-path="url(#clip0_2_401)">
<path d="M22.8786 10.6027C20.7312 8.45585 16.061 9.49945 12.6792 12.8813C11.1947 14.3658 10.101 16.4176 9.67869 18.5104C9.27403 20.5157 9.54371 22.2243 10.4004 23.0807C10.9931 23.6734 11.9962 23.9841 13.2252 23.9841C13.7675 23.9841 14.354 23.9238 14.9683 23.8002C17.0635 23.3785 19.1162 22.2857 20.5998 20.8021C22.1614 19.2408 23.3199 17.2589 23.7789 15.3655C24.2648 13.3603 23.945 11.6691 22.8786 10.6027ZM22.4542 11.0266C22.9791 11.5515 23.2815 12.272 23.3676 13.1269L20.361 10.1204C21.1985 10.2047 21.9253 10.4977 22.4542 11.0266ZM10.8245 22.6565C10.3683 22.1999 10.1196 21.3891 10.098 20.3909L13.0767 23.3698C12.0781 23.3455 11.2676 23.0996 10.8245 22.6565ZM13.8983 23.3428L10.1278 19.5719C10.1556 19.2678 10.2016 18.9522 10.267 18.6289C10.2799 18.5647 10.2991 18.5011 10.3135 18.4372L15.0421 23.1658C14.6488 23.2516 14.2652 23.3107 13.8983 23.3428ZM20.1754 20.3777C18.8573 21.6957 17.2462 22.5468 15.7173 22.9931L10.4865 17.7623C10.9814 16.0918 11.9059 14.5025 13.1031 13.3054C14.4865 11.9223 16.1228 10.9464 17.6787 10.4557L23.0286 15.8056C22.5166 17.4143 21.5012 19.0521 20.1754 20.3777ZM23.2125 15.1406L18.3462 10.2743C18.74 10.1843 19.1255 10.1258 19.4962 10.1039L23.3861 13.9935C23.3631 14.3583 23.3046 14.7419 23.2125 15.1406Z" fill="black"/>
<path d="M19.0098 14.8954L19.7192 14.186C19.8362 14.069 19.8362 13.8791 19.7192 13.7618C19.6019 13.6445 19.4123 13.6445 19.2951 13.7618L18.5856 14.4712L17.9287 13.8143C17.8114 13.697 17.6218 13.697 17.5045 13.8143C17.3872 13.9316 17.3872 14.1212 17.5045 14.2385L18.1615 14.8954L17.6128 15.444L16.9559 14.7871C16.8386 14.6698 16.649 14.6698 16.5317 14.7871C16.4144 14.9044 16.4144 15.0939 16.5317 15.2112L17.1886 15.8682L16.64 16.4168L15.9831 15.7599C15.8658 15.6426 15.6762 15.6426 15.5589 15.7599C15.4416 15.8772 15.4416 16.0668 15.5589 16.1841L16.2158 16.841L15.6672 17.3897L15.0102 16.7327C14.8929 16.6154 14.7034 16.6154 14.5861 16.7327C14.4688 16.85 14.4688 17.0396 14.5861 17.1569L15.243 17.8138L14.6943 18.3625L14.0374 17.7056C13.9201 17.5883 13.7305 17.5883 13.6132 17.7056C13.4959 17.8229 13.4959 18.0125 13.6132 18.1297L14.2702 18.7867L13.5606 19.4962C13.4433 19.6135 13.4433 19.8031 13.5606 19.9204C13.6191 19.9789 13.6959 20.0083 13.7727 20.0083C13.8495 20.0083 13.9263 19.9789 13.9848 19.9204L14.6945 19.2107L15.3514 19.8676C15.4099 19.9261 15.4867 19.9555 15.5635 19.9555C15.6403 19.9555 15.7171 19.9261 15.7756 19.8676C15.8929 19.7503 15.8929 19.5607 15.7756 19.4434L15.1187 18.7865L15.6674 18.2378L16.3243 18.8948C16.3828 18.9532 16.4596 18.9826 16.5364 18.9826C16.6132 18.9826 16.6899 18.9532 16.7485 18.8948C16.8657 18.7775 16.8657 18.5879 16.7485 18.4706L16.0915 17.8137L16.6402 17.265L17.2968 17.9219C17.3553 17.9804 17.4321 18.0098 17.5089 18.0098C17.5857 18.0098 17.6625 17.9804 17.721 17.9219C17.8383 17.8046 17.8383 17.6151 17.721 17.4978L17.0644 16.8408L17.613 16.2922L18.2697 16.9492C18.3281 17.0076 18.4049 17.037 18.4817 17.037C18.5586 17.037 18.6353 17.0076 18.6938 16.9492C18.8111 16.8319 18.8111 16.6423 18.6938 16.525L18.0372 15.8681L18.5859 15.3194L19.2428 15.976C19.3013 16.0345 19.3781 16.0639 19.4549 16.0639C19.5317 16.0639 19.6084 16.0345 19.667 15.976C19.7843 15.8587 19.7843 15.6692 19.667 15.5519L19.0098 14.8954Z" fill="black"/>
<path d="M19.0391 0.726562C16.9153 0.726562 15.1875 2.45435 15.1875 4.57812C15.1875 6.7019 16.9153 8.42968 19.0391 8.42968C21.1628 8.42968 22.8903 6.7019 22.8903 4.57812C22.8903 2.45435 21.1628 0.726562 19.0391 0.726562ZM19.0391 1.32649C19.8004 1.32649 20.4996 1.59136 21.0542 2.03112C20.4861 2.49846 19.7773 2.75736 19.0372 2.75736C18.2978 2.75736 17.5899 2.4994 17.0218 2.03264C17.5767 1.59195 18.2768 1.32649 19.0391 1.32649ZM19.0394 7.82975C18.2985 7.82975 17.6169 7.57806 17.0695 7.15934C17.6292 6.71748 18.3186 6.47452 19.0372 6.47452C19.7566 6.47452 20.4468 6.71807 21.0068 7.16087C20.4597 7.57865 19.7791 7.82975 19.0394 7.82975ZM21.4511 6.75076C20.7729 6.18651 19.924 5.87424 19.037 5.87424C18.1508 5.87424 17.3028 6.18592 16.6249 6.74894C16.106 6.17268 15.7871 5.41287 15.7871 4.57812C15.7871 3.764 16.0898 3.021 16.586 2.45019C17.2699 3.03424 18.1338 3.35729 19.0367 3.35729C19.9405 3.35729 20.8053 3.0333 21.4895 2.44837C21.9865 3.01948 22.2898 3.76341 22.2898 4.57812C22.2904 5.41381 21.9709 6.17426 21.4511 6.75076Z" fill="black"/>
<path d="M7.3503 16.0637C5.84866 14.5618 3.40518 14.5624 1.90354 16.0637C1.17612 16.7911 0.775391 17.7582 0.775391 18.7871C0.775391 19.8159 1.17583 20.783 1.90354 21.5104C2.63095 22.2381 3.59805 22.6386 4.62695 22.6386C5.6555 22.6386 6.62289 22.2381 7.3503 21.5104C8.07772 20.783 8.47845 19.8162 8.47845 18.7871C8.47851 17.7582 8.07772 16.7911 7.3503 16.0637ZM6.92619 16.4879C7.45084 17.0125 7.77207 17.6854 7.85521 18.4116C7.12181 18.3408 6.43729 18.0222 5.91323 17.4985C5.3904 16.9757 5.07215 16.2927 5.00044 15.5611C5.70442 15.6417 6.38743 15.9491 6.92619 16.4879ZM2.32771 21.0866C1.81689 20.5758 1.5004 19.924 1.40743 19.2196C2.11627 19.3024 2.77648 19.6183 3.2849 20.1267C3.79426 20.6361 4.1098 21.2969 4.19229 22.0066C3.48884 21.913 2.83794 21.5969 2.32771 21.0866ZM6.92619 21.0863C6.35233 21.6605 5.60096 21.9892 4.79644 22.0303C4.71606 21.1514 4.33659 20.3299 3.70907 19.7023C3.08242 19.0757 2.26174 18.6959 1.38405 18.6152C1.42576 17.8113 1.75479 17.0611 2.32806 16.4876C2.90368 15.912 3.6431 15.6009 4.39782 15.5478C4.46859 16.4444 4.85075 17.2837 5.48941 17.9223C6.12894 18.5619 6.96972 18.9443 7.8678 19.0142C7.81378 19.7974 7.48623 20.5263 6.92619 21.0863Z" fill="black"/>
<path d="M12.1036 2.08899C9.3391 -0.675495 4.84115 -0.675495 2.07667 2.08899C0.737609 3.42805 0 5.20833 0 7.10232C0 8.99632 0.737609 10.7769 2.07667 12.116C3.41573 13.4553 5.19631 14.1929 7.0903 14.1929C8.98401 14.1929 10.7649 13.4553 12.1036 12.116C13.4427 10.7769 14.1803 8.99661 14.1803 7.10232C14.1803 5.20868 13.4426 3.42805 12.1036 2.08899ZM13.5581 6.64371C11.8684 6.78262 10.2858 7.47822 9.04066 8.62886L7.51412 7.10232L11.881 2.73543C12.8715 3.8204 13.4564 5.18284 13.5581 6.64371ZM7.54892 0.63691C8.96086 0.736214 10.3422 1.29531 11.4565 2.31162L7.09024 6.67821L5.56376 5.15167C6.71412 3.90711 7.40943 2.32568 7.54892 0.63691ZM6.9484 0.622204C6.8143 2.15654 6.18138 3.59303 5.13959 4.7278L2.7237 2.31191C3.92145 1.21973 5.42819 0.655189 6.9484 0.622204ZM2.29924 2.73573L4.71548 5.15197C3.57983 6.19434 2.14241 6.82755 0.606843 6.96107C0.640706 5.38116 1.23735 3.89868 2.29924 2.73573ZM0.622134 7.56159C2.31155 7.42268 3.89415 6.72707 5.1393 5.57643L6.66613 7.10268L2.29924 11.4696C1.30877 10.3848 0.723841 9.02239 0.622134 7.56159ZM6.63133 13.5705C5.17053 13.4688 3.80809 12.8841 2.72341 11.8934L7.0903 7.52649L8.61684 9.05303C7.46584 10.2982 6.76989 11.8808 6.63133 13.5705ZM7.23155 13.5858C7.36537 12.0506 7.99828 10.6128 9.04066 9.47714L11.4569 11.8934C10.2939 12.9556 8.81117 13.5522 7.23155 13.5858ZM11.8813 11.4692L9.46506 9.05297C10.6007 8.0106 12.0381 7.37739 13.5737 7.24387C13.5398 8.82384 12.9432 10.3063 11.8813 11.4692Z" fill="black"/>
</g>
<defs>
<clipPath id="clip0_2_401">
<rect width="24" height="24" fill="white"/>
</clipPath>
</defs>
</svg>
