<svg width="24" height="24" viewBox="0 0 24 24" fill="none" xmlns="http://www.w3.org/2000/svg">
<path d="M7.12329 18.0116L5.95658 16.8449L1.87311 20.9284L3.03982 22.0951L7.12329 18.0116Z" stroke="black" stroke-width="0.751161" stroke-linecap="round" stroke-linejoin="round"/>
<path d="M10.1335 13.973C7.73397 11.5736 8.38154 7.03572 10.781 4.63623C13.1805 2.23678 18.4863 0.821236 20.8858 3.22064C23.2853 5.62013 21.8697 10.9259 19.4702 13.3254C17.0708 15.7249 12.5329 16.3724 10.1335 13.973Z" stroke="black" stroke-width="0.751275" stroke-linecap="round" stroke-linejoin="round"/>
<path d="M8.64391 9.48621L8.48299 11.1717C8.32918 12.7827 7.94626 14.3635 7.34581 15.8663L6.75024 17.3569L8.5296 16.6444C9.8397 16.1198 11.21 15.7602 12.6089 15.574L13.4958 15.4561" stroke="black" stroke-width="0.751275" stroke-linecap="round" stroke-linejoin="round"/>
<path d="M18.7531 20.7301C19.788 20.7301 20.627 19.8912 20.627 18.8563C20.627 17.8213 19.788 16.9823 18.7531 16.9823C17.7181 16.9823 16.8792 17.8213 16.8792 18.8563C16.8792 19.8912 17.7181 20.7301 18.7531 20.7301Z" stroke="black" stroke-width="0.751275" stroke-linecap="round" stroke-linejoin="round"/>
<path d="M10.1272 9.47462V9.35384C10.1272 8.6966 10.3313 8.04835 10.7234 7.4605L10.8743 7.23425" stroke="black" stroke-width="0.751275" stroke-linecap="round" stroke-linejoin="round"/>
<path d="M10.1264 10.9787C10.3331 10.9787 10.5006 10.8112 10.5006 10.6045C10.5006 10.3979 10.3331 10.2303 10.1264 10.2303C9.91974 10.2303 9.7522 10.3979 9.7522 10.6045C9.7522 10.8112 9.91974 10.9787 10.1264 10.9787Z" fill="black"/>
</svg>
